<svg xmlns="http://www.w3.org/2000/svg" width="240" height="234" viewBox="0 0 240 234">
  <g>
    <circle cx="119.685" cy="107.242" r="107.242" fill="#e6f2ff"/>
    <path d="M119.964,10.38c-3.168,0-5.736.963-5.736,2.151v220.9c4.268,0,11.471-8.036,11.471-18.814V12.531C125.7,11.343,123.131,10.38,119.964,10.38Z" fill="#ddd"/>
    <polygon points="20.43 122.568 1.359 138.321 0 137.443 0 139.443 20.43 163.428 194.338 193.684 194.338 152.824 20.43 122.568" fill="#bbb"/>
    <polygon points="20.43 17.682 1.188 33.576 0 32.557 0 34.557 20.43 58.542 194.338 88.798 194.338 47.939 20.43 17.682" fill="#bbb"/>
    <polygon points="20.43 15.682 0 32.557 20.43 56.542 194.338 86.798 194.338 45.939 20.43 15.682" fill="#ccc"/>
    <g>
      <polygon points="238.142 85.315 219.57 69.974 45.662 100.231 45.662 141.091 219.57 110.834 240 86.85 240 84.85 238.142 85.315" fill="#ad2330"/>
      <polygon points="219.57 67.974 45.662 98.231 45.662 139.091 219.57 108.834 240 84.85 219.57 67.974" fill="#cc2936"/>
      <g>
        <path d="M83.1,118.343l9.936-14.222-9.781,1.7v-2.838l13.653-2.375v2.942l-9.988,14.177,10.143-1.764v2.891L83.1,121.284Z" fill="#fff"/>
        <path d="M99.77,109.2a11.211,11.211,0,0,1,.735-4.089,11.03,11.03,0,0,1,2.039-3.363,11.511,11.511,0,0,1,3.1-2.448,12.579,12.579,0,0,1,3.911-1.352,10.81,10.81,0,0,1,3.949-.016,7.41,7.41,0,0,1,3.122,1.367,6.739,6.739,0,0,1,2.052,2.651,9.279,9.279,0,0,1,.736,3.833,11.053,11.053,0,0,1-.736,4.038,11.365,11.365,0,0,1-2.052,3.4,11.89,11.89,0,0,1-3.122,2.532,12.224,12.224,0,0,1-3.949,1.4,10.065,10.065,0,0,1-3.911-.03,7.4,7.4,0,0,1-3.1-1.449,7.171,7.171,0,0,1-2.039-2.691A9.164,9.164,0,0,1,99.77,109.2Zm3.535-.615a7.105,7.105,0,0,0,.453,2.618,4.979,4.979,0,0,0,1.289,1.906,4.733,4.733,0,0,0,1.989,1.06,5.911,5.911,0,0,0,2.541.062,7.275,7.275,0,0,0,2.556-.949,7.553,7.553,0,0,0,2-1.754,7.825,7.825,0,0,0,1.291-2.354,8.43,8.43,0,0,0,.453-2.776,6.861,6.861,0,0,0-.453-2.554,5.086,5.086,0,0,0-1.277-1.895,4.7,4.7,0,0,0-1.988-1.072,5.915,5.915,0,0,0-2.581-.068,7.1,7.1,0,0,0-2.568.964,7.632,7.632,0,0,0-1.974,1.761,8.053,8.053,0,0,0-1.277,2.34A8.158,8.158,0,0,0,103.305,108.58Z" fill="#fff"/>
        <path d="M126.767,98.252l-5.6.974V96.388l14.454-2.515v2.838l-5.6.975v15.435l-3.253.566Z" fill="#fff"/>
        <path d="M139.028,93.28l12.1-2.106v2.839l-8.853,1.54V100.2l8.389-1.46v2.737l-8.389,1.459V108.1l9.317-1.621v2.892l-12.568,2.187Z" fill="#fff"/>
        <path d="M156.06,90.317l6.349-1.1a11.363,11.363,0,0,1,2.5-.165,5.533,5.533,0,0,1,2.155.516,3.594,3.594,0,0,1,1.509,1.364,4.384,4.384,0,0,1,.569,2.353,5.438,5.438,0,0,1-1.123,3.434,7.125,7.125,0,0,1-3.058,2.222l4.877,7.257-3.922.682-4.233-7.007-2.375.413v7.744l-3.252.565Zm5.911,6.844a10.494,10.494,0,0,0,1.393-.346,4.769,4.769,0,0,0,1.252-.606,3.152,3.152,0,0,0,.916-.971,2.67,2.67,0,0,0,.361-1.419,1.826,1.826,0,0,0-.335-1.167,1.942,1.942,0,0,0-.852-.613,3.2,3.2,0,0,0-1.174-.184,8.441,8.441,0,0,0-1.278.12l-2.942.512v5.136Z" fill="#fff"/>
        <path d="M172.708,96.505a11.211,11.211,0,0,1,.735-4.089,11.045,11.045,0,0,1,2.039-3.362,11.515,11.515,0,0,1,3.1-2.449,12.537,12.537,0,0,1,3.91-1.351,10.789,10.789,0,0,1,3.949-.017,7.427,7.427,0,0,1,3.123,1.367,6.737,6.737,0,0,1,2.051,2.651,9.263,9.263,0,0,1,.737,3.833,11.029,11.029,0,0,1-.737,4.038,11.362,11.362,0,0,1-2.051,3.4,11.9,11.9,0,0,1-3.123,2.532,12.215,12.215,0,0,1-3.949,1.4,10.06,10.06,0,0,1-3.91-.03,7.41,7.41,0,0,1-3.1-1.449,7.174,7.174,0,0,1-2.039-2.691A9.157,9.157,0,0,1,172.708,96.505Zm3.536-.615a7.106,7.106,0,0,0,.452,2.618,4.97,4.97,0,0,0,1.29,1.906,4.712,4.712,0,0,0,1.988,1.06,5.915,5.915,0,0,0,2.542.062,7.27,7.27,0,0,0,2.555-.949,7.537,7.537,0,0,0,2-1.754,7.825,7.825,0,0,0,1.291-2.354,8.43,8.43,0,0,0,.452-2.776,6.861,6.861,0,0,0-.452-2.554,5.1,5.1,0,0,0-1.277-1.895,4.712,4.712,0,0,0-1.989-1.072,5.911,5.911,0,0,0-2.58-.068,7.1,7.1,0,0,0-2.568.964,7.638,7.638,0,0,0-1.975,1.762,8.035,8.035,0,0,0-1.277,2.339A8.161,8.161,0,0,0,176.244,95.89Z" fill="#fff"/>
      </g>
    </g>
    <polygon points="20.43 120.568 0 137.443 20.43 161.428 194.338 191.684 194.338 150.824 20.43 120.568" fill="#ccc"/>
    <polygon points="86.279 132.024 138.173 183.918 194.338 193.684 194.338 150.824 86.279 132.024" opacity="0.1"/>
    <polygon points="125.699 127.166 125.699 138.882 114.228 136.887 114.228 129.161 125.699 127.166" opacity="0.1"/>
  </g>
</svg>
