<svg xmlns="http://www.w3.org/2000/svg" width="260" height="48" viewBox="0 0 260 48">
  <g>
    <path d="M0,0V23.576H23.689V0ZM17.441,19.632a1.286,1.286,0,0,0,1.207.5c.18,0,.4-.013.65-.038q.663-.066.721-.08l.3-.038.029,1.005a9.659,9.659,0,0,1-1.9.24,2.053,2.053,0,0,1-1.924-.816,5.273,5.273,0,0,1-.484-2.624,5.107,5.107,0,0,1,.517-2.663,2.093,2.093,0,0,1,1.89-.792,6.934,6.934,0,0,1,.855.059,5.417,5.417,0,0,1,.758.13l.293.069-.038.973a13.708,13.708,0,0,0-1.711-.142,1.27,1.27,0,0,0-1.169.5,4,4,0,0,0-.3,1.871A4.049,4.049,0,0,0,17.441,19.632Z" fill="#fff"/>
    <path d="M25.009,0V23.576H48.133V0ZM44.581,20.853h-1.1V18.006H40.718v2.846h-1.1V14.176h1.1v2.742h2.765V14.176h1.1Z" fill="#fff"/>
    <path d="M0,24.875V48H23.689V24.875Zm20.265,19.9H18.547l-2.183-5.269h-.194v5.269h-1.1V38.1h1.892l2.112,5.248h.093V38.1h1.1Z" fill="#fff"/>
    <path d="M25.009,24.875V48H48.133V24.875Zm19.62,19.954h-1.1V39.56h-.112l-1.5,5H40.773l-1.509-5h-.175v5.269h-1.1V38.151h1.844l1.512,5.075,1.517-5.075h1.767Z" fill="#fff"/>
    <g>
      <path d="M55.628,22.593V10.277h4.554a4.429,4.429,0,0,1,3.1.939,3.984,3.984,0,0,1,.989,3.024A3.675,3.675,0,0,1,62.5,17.785l1.769,4.808h-2.3l-1.52-4.19h-2.8v4.19Zm2.025-6.2h2.6q1.977,0,1.986-2.1a1.785,1.785,0,0,0-2.021-2.008H57.654Z" fill="#fff"/>
      <path d="M65.928,18.1a5.442,5.442,0,0,1,.914-3.429A3.672,3.672,0,0,1,69.9,13.493a3.546,3.546,0,0,1,3.036,1.246,5.493,5.493,0,0,1,.914,3.363,5.851,5.851,0,0,1-.9,3.422A3.512,3.512,0,0,1,69.9,22.793a3.639,3.639,0,0,1-3.075-1.179A5.73,5.73,0,0,1,65.928,18.1Zm2.025,0a4,4,0,0,0,.4,2.061,1.707,1.707,0,0,0,1.554.621,1.675,1.675,0,0,0,1.533-.621A4.031,4.031,0,0,0,71.83,18.1a3.616,3.616,0,0,0-.427-1.98,1.687,1.687,0,0,0-1.5-.622,1.749,1.749,0,0,0-1.533.606A3.561,3.561,0,0,0,67.953,18.1Z" fill="#fff"/>
      <path d="M74.846,13.71h2l1.834,6.911.5.009L81,13.71h2L79.674,26.383h-2l1-3.792-1.508,0Z" fill="#fff"/>
      <path d="M88.744,22.593V10.277H93.3a4.429,4.429,0,0,1,3.1.939,3.984,3.984,0,0,1,.989,3.024,3.675,3.675,0,0,1-1.769,3.545l1.769,4.808h-2.3l-1.52-4.19h-2.8v4.19Zm2.025-6.2h2.6q1.977,0,1.986-2.1a1.785,1.785,0,0,0-2.021-2.008H90.769Z" fill="#fff"/>
      <path d="M99.044,18.1a5.442,5.442,0,0,1,.914-3.429,3.672,3.672,0,0,1,3.062-1.181,3.546,3.546,0,0,1,3.036,1.246,5.493,5.493,0,0,1,.914,3.363,5.851,5.851,0,0,1-.9,3.422,3.512,3.512,0,0,1-3.054,1.269,3.639,3.639,0,0,1-3.075-1.179A5.729,5.729,0,0,1,99.044,18.1Zm2.025,0a4,4,0,0,0,.4,2.061,1.707,1.707,0,0,0,1.554.621,1.675,1.675,0,0,0,1.533-.621,4.031,4.031,0,0,0,.393-2.061,3.616,3.616,0,0,0-.427-1.98,1.687,1.687,0,0,0-1.5-.622,1.749,1.749,0,0,0-1.533.606A3.562,3.562,0,0,0,101.069,18.1Z" fill="#fff"/>
      <path d="M108.613,16.424a2.584,2.584,0,0,1,.963-2.207,3.876,3.876,0,0,1,2.4-.724,14.037,14.037,0,0,1,3.394.574l-.043,1.721a25.062,25.062,0,0,0-3.2-.287,2.413,2.413,0,0,0-1.141.191.737.737,0,0,0-.34.682.54.54,0,0,0,.358.546,8.8,8.8,0,0,0,1.5.318,5.41,5.41,0,0,1,2.454.824,2.156,2.156,0,0,1,.678,1.769q0,2.962-3.542,2.962a9.242,9.242,0,0,1-1.389-.105q-1.119-.152-1.389-.209l-.546-.123.068-1.839a27.077,27.077,0,0,0,3.061.269,3.068,3.068,0,0,0,1.337-.2.731.731,0,0,0,.375-.7.593.593,0,0,0-.323-.57,6.286,6.286,0,0,0-1.394-.335,6.238,6.238,0,0,1-2.545-.8A2.021,2.021,0,0,1,108.613,16.424Z" fill="#fff"/>
      <path d="M117.209,18.248q0-4.754,3.846-4.754,3.8,0,3.811,4.059l-.148,1.46h-5.485a1.829,1.829,0,0,0,.471,1.341,2.27,2.27,0,0,0,1.534.432q1.412,0,3.287-.151l.035,1.688a16.933,16.933,0,0,1-3.614.471,3.458,3.458,0,0,1-2.864-1.091A5.518,5.518,0,0,1,117.209,18.248Zm2.025-.817h3.607a2.183,2.183,0,0,0-.41-1.487,2.341,2.341,0,0,0-2.761.016A2.1,2.1,0,0,0,119.234,17.431Z" fill="#fff"/>
      <path d="M126.822,22.593V13.71h2.025v.468a5.606,5.606,0,0,1,2.381-.685,2.662,2.662,0,0,1,2.435,1.034,6.631,6.631,0,0,1,.659,3.416v4.65H132.3V18.031a4.786,4.786,0,0,0-.278-1.938,1.182,1.182,0,0,0-1.182-.592,4.376,4.376,0,0,0-.852.1,6.94,6.94,0,0,0-.817.189l-.322.111v6.69Z" fill="#fff"/>
      <path d="M136.528,22.593V20.827l4.079-5.126h-4.163V13.693h6.688V15.6l-3.946,4.986h4.146v2.008Z" fill="#fff"/>
      <path d="M144.284,13.71H146.3l1.315,6.875H148l1.521-6.719h2.216l1.482,6.719h.508l1.449-6.875h1.88L155.2,22.593h-3.244l-1.3-5.947-1.341,5.947h-3.3Z" fill="#fff"/>
      <path d="M158.06,18.248q0-4.754,3.846-4.754,3.8,0,3.811,4.059l-.148,1.46h-5.484a1.829,1.829,0,0,0,.471,1.341,2.271,2.271,0,0,0,1.534.432q1.412,0,3.287-.151l.035,1.688a16.935,16.935,0,0,1-3.614.471,3.457,3.457,0,0,1-2.864-1.091A5.517,5.517,0,0,1,158.06,18.248Zm2.025-.817h3.607a2.183,2.183,0,0,0-.41-1.487,2.34,2.34,0,0,0-2.761.016A2.1,2.1,0,0,0,160.086,17.431Z" fill="#fff"/>
      <path d="M167.63,12.12V10.112h2.025V12.12Zm0,10.474V13.71h2.025v8.883Z" fill="#fff"/>
      <path d="M171.6,24.071a1.868,1.868,0,0,1,.32-1.1,4.249,4.249,0,0,1,.986-.968,1.374,1.374,0,0,1-.69-1.295A2.969,2.969,0,0,1,173,19.3a2.913,2.913,0,0,1-1.3-2.668,2.769,2.769,0,0,1,.976-2.347,4.188,4.188,0,0,1,2.6-.765,7.007,7.007,0,0,1,.8.052q.267.035.726.122l.284.052,2.686-.052v1.651h-1.237a2.1,2.1,0,0,1,.377,1.286,2.882,2.882,0,0,1-.877,2.438,4.7,4.7,0,0,1-2.788.656,3.655,3.655,0,0,1-.785-.07,2.5,2.5,0,0,0-.217.8.53.53,0,0,0,.323.539,5.679,5.679,0,0,0,1.551.122,5.457,5.457,0,0,1,2.913.558,2.288,2.288,0,0,1,.792,2.038,2.728,2.728,0,0,1-1.13,2.394,5.186,5.186,0,0,1-2.986.765,6.1,6.1,0,0,1-3.113-.6A2.38,2.38,0,0,1,171.6,24.071Zm2.13-7.44a1.425,1.425,0,0,0,.339,1.069,1.72,1.72,0,0,0,1.176.322,1.949,1.949,0,0,0,1.247-.3,1.362,1.362,0,0,0,.393-1.087,1.292,1.292,0,0,0-.375-1.069,2.043,2.043,0,0,0-1.247-.3,1.726,1.726,0,0,0-1.176.3A1.382,1.382,0,0,0,173.731,16.631Zm0,7.248a.755.755,0,0,0,.455.751,3.7,3.7,0,0,0,1.54.232q2.073,0,2.073-1.047,0-.607-.358-.759a4.611,4.611,0,0,0-1.481-.176l-1.734-.113A1.621,1.621,0,0,0,173.731,23.879Z" fill="#fff"/>
      <path d="M185.283,16.448a9.4,9.4,0,0,1,.956-4.911q.954-1.46,3.485-1.46a12.7,12.7,0,0,1,1.573.111,9.952,9.952,0,0,1,1.4.238l.539.127-.07,1.795a24.96,24.96,0,0,0-3.155-.264,2.345,2.345,0,0,0-2.156.913,7.351,7.351,0,0,0-.548,3.45,7.45,7.45,0,0,0,.548,3.406,2.369,2.369,0,0,0,2.225.931q.5,0,1.2-.07,1.225-.123,1.33-.149l.556-.07.052,1.855a17.867,17.867,0,0,1-3.494.442q-2.653,0-3.552-1.5A9.777,9.777,0,0,1,185.283,16.448Z" fill="#fff"/>
      <path d="M194.713,18.248q0-4.754,3.846-4.754,3.8,0,3.811,4.059l-.148,1.46h-5.485a1.829,1.829,0,0,0,.471,1.341,2.271,2.271,0,0,0,1.534.432q1.412,0,3.287-.151l.035,1.688a16.935,16.935,0,0,1-3.614.471,3.457,3.457,0,0,1-2.864-1.091A5.517,5.517,0,0,1,194.713,18.248Zm2.025-.817h3.607a2.183,2.183,0,0,0-.41-1.487,2.34,2.34,0,0,0-2.761.016A2.1,2.1,0,0,0,196.738,17.431Z" fill="#fff"/>
      <path d="M204.326,22.593V13.71h2.025v.468a5.607,5.607,0,0,1,2.382-.685,2.662,2.662,0,0,1,2.435,1.034,6.631,6.631,0,0,1,.659,3.416v4.65H209.8V18.031a4.786,4.786,0,0,0-.278-1.938,1.183,1.183,0,0,0-1.182-.592,4.375,4.375,0,0,0-.852.1,6.937,6.937,0,0,0-.817.189l-.322.111v6.69Z" fill="#fff"/>
      <path d="M213.34,15.718V13.71h1.121V11.3h2.025V13.71h2.408v2.008h-2.408v3.473a3.428,3.428,0,0,0,.148,1.288q.156.324.782.324l1.443-.052.087,1.747a8.422,8.422,0,0,1-1.817.313,2.587,2.587,0,0,1-2.1-.7,4.211,4.211,0,0,1-.565-2.571V15.718Z" fill="#fff"/>
      <path d="M219.989,18.248q0-4.754,3.846-4.754,3.8,0,3.811,4.059l-.148,1.46h-5.485a1.828,1.828,0,0,0,.471,1.341,2.27,2.27,0,0,0,1.534.432q1.412,0,3.287-.151l.035,1.688a16.933,16.933,0,0,1-3.614.471,3.458,3.458,0,0,1-2.864-1.091A5.518,5.518,0,0,1,219.989,18.248Zm2.025-.817h3.607a2.183,2.183,0,0,0-.41-1.487,2.34,2.34,0,0,0-2.761.016A2.1,2.1,0,0,0,222.014,17.431Z" fill="#fff"/>
      <path d="M229.6,22.593V13.71h2.025v.868a6.844,6.844,0,0,1,2.686-1.085V15.5a8.828,8.828,0,0,0-2.686.952v6.14Z" fill="#fff"/>
      <path d="M54.629,36.486V34.478h1.017v-.572a4.731,4.731,0,0,1,.548-2.716,2.356,2.356,0,0,1,1.982-.745l1.938.209L60.1,32.487q-1.139-.035-1.408-.035a.9.9,0,0,0-.8.317,2.28,2.28,0,0,0-.213,1.178v.53h2.295v2.008H57.671v6.875H55.646V36.486Z" fill="#fff"/>
      <path d="M61,38.87a5.443,5.443,0,0,1,.914-3.429,3.673,3.673,0,0,1,3.062-1.181,3.545,3.545,0,0,1,3.036,1.246,5.492,5.492,0,0,1,.914,3.363,5.85,5.85,0,0,1-.9,3.422,3.512,3.512,0,0,1-3.054,1.269A3.639,3.639,0,0,1,61.9,42.382,5.73,5.73,0,0,1,61,38.87Zm2.025,0a4,4,0,0,0,.4,2.061,1.707,1.707,0,0,0,1.554.621,1.675,1.675,0,0,0,1.533-.621A4.033,4.033,0,0,0,66.9,38.87a3.616,3.616,0,0,0-.427-1.98,1.686,1.686,0,0,0-1.5-.622,1.75,1.75,0,0,0-1.533.606A3.562,3.562,0,0,0,63.025,38.87Z" fill="#fff"/>
      <path d="M71,43.361V34.478h2.025v.868a6.844,6.844,0,0,1,2.686-1.085v2.008a8.826,8.826,0,0,0-2.686.952v6.14Z" fill="#fff"/>
      <path d="M81.591,43.361V31.045h2.025V36.1h5.1V31.045h2.025V43.361H88.718v-5.25h-5.1v5.25Z" fill="#fff"/>
      <path d="M93.472,32.887V30.879H95.5v2.008Zm0,10.474V34.478H95.5v8.883Z" fill="#fff"/>
      <path d="M97.636,37.191a2.584,2.584,0,0,1,.963-2.207,3.876,3.876,0,0,1,2.4-.724,14.037,14.037,0,0,1,3.394.574l-.043,1.721a25.062,25.062,0,0,0-3.2-.287A2.413,2.413,0,0,0,100,36.46a.738.738,0,0,0-.34.682.54.54,0,0,0,.358.546,8.8,8.8,0,0,0,1.5.318,5.41,5.41,0,0,1,2.454.824,2.156,2.156,0,0,1,.678,1.769q0,2.962-3.542,2.962a9.242,9.242,0,0,1-1.389-.105q-1.119-.152-1.389-.209l-.546-.123.068-1.839a27.077,27.077,0,0,0,3.061.269,3.068,3.068,0,0,0,1.337-.2.731.731,0,0,0,.375-.7.593.593,0,0,0-.323-.57,6.284,6.284,0,0,0-1.394-.335,6.239,6.239,0,0,1-2.545-.8A2.021,2.021,0,0,1,97.636,37.191Z" fill="#fff"/>
      <path d="M105.858,36.486V34.478h1.121V32.07H109v2.408h2.408v2.008H109v3.473a3.432,3.432,0,0,0,.148,1.288q.156.324.782.324l1.443-.052.087,1.747a8.425,8.425,0,0,1-1.817.313,2.587,2.587,0,0,1-2.1-.7,4.211,4.211,0,0,1-.565-2.571V36.486Z" fill="#fff"/>
      <path d="M112.507,38.87a5.442,5.442,0,0,1,.914-3.429,3.672,3.672,0,0,1,3.062-1.181,3.546,3.546,0,0,1,3.036,1.246,5.493,5.493,0,0,1,.914,3.363,5.851,5.851,0,0,1-.9,3.422,3.512,3.512,0,0,1-3.054,1.269,3.639,3.639,0,0,1-3.075-1.179A5.73,5.73,0,0,1,112.507,38.87Zm2.025,0a3.993,3.993,0,0,0,.4,2.061,1.707,1.707,0,0,0,1.554.621,1.675,1.675,0,0,0,1.533-.621,4.031,4.031,0,0,0,.393-2.061,3.616,3.616,0,0,0-.427-1.98,1.687,1.687,0,0,0-1.5-.622,1.749,1.749,0,0,0-1.533.606A3.561,3.561,0,0,0,114.532,38.87Z" fill="#fff"/>
      <path d="M122.511,43.361V34.478h2.025v.868a6.845,6.845,0,0,1,2.686-1.085v2.008a8.829,8.829,0,0,0-2.686.952v6.14Z" fill="#fff"/>
      <path d="M127.8,34.478h2l1.834,6.911.5.009,1.815-6.921h2L132.624,47.15h-2l1-3.792-1.508,0Z" fill="#fff"/>
      <path d="M141.085,40.719a2.469,2.469,0,0,1,.73-1.982,3.852,3.852,0,0,1,2.228-.74l2.2-.172v-.516a.947.947,0,0,0-.306-.761,1.18,1.18,0,0,0-.8-.279q-.593,0-1.447.052c-.156.012-.629.035-1.414.069l-.561.035-.068-1.721a20.659,20.659,0,0,1,3.6-.443,3.121,3.121,0,0,1,2.271.721,3.2,3.2,0,0,1,.753,2.331v3.63a1.247,1.247,0,0,0,.174.638,1.07,1.07,0,0,0,.548.25l-.07,1.73a5.532,5.532,0,0,1-1.457-.148,2.59,2.59,0,0,1-.917-.478,7.794,7.794,0,0,1-2.909.626,2.372,2.372,0,0,1-1.885-.745A3.057,3.057,0,0,1,141.085,40.719Zm2.025-.091q0,1.186.907,1.186a8.7,8.7,0,0,0,2.231-.364v-2.1l-1.942.109Q143.111,39.566,143.111,40.627Z" fill="#fff"/>
      <path d="M150.985,43.361V34.478h2.025v.468a5.607,5.607,0,0,1,2.382-.685,2.662,2.662,0,0,1,2.435,1.034,6.631,6.631,0,0,1,.659,3.416v4.65h-2.025V38.8a4.786,4.786,0,0,0-.278-1.938A1.182,1.182,0,0,0,155,36.268a4.375,4.375,0,0,0-.852.1,6.953,6.953,0,0,0-.817.189l-.322.111v6.69Z" fill="#fff"/>
      <path d="M160.372,38.882a5.633,5.633,0,0,1,.9-3.511,3.326,3.326,0,0,1,2.776-1.11,8.987,8.987,0,0,1,1.995.254V30.9h2.025V43.361h-2.025v-.454a5.184,5.184,0,0,1-2.318.654,2.956,2.956,0,0,1-2.557-1.081A6.286,6.286,0,0,1,160.372,38.882Zm2.025.017a3.794,3.794,0,0,0,.4,2.051,1.427,1.427,0,0,0,1.246.6,7.692,7.692,0,0,0,1.995-.372V36.426L166,36.418a.847.847,0,0,0-.113-.017,1.592,1.592,0,0,0-.175-.009l-.749-.083c-.191-.022-.453-.035-.784-.041a1.542,1.542,0,0,0-1.354.612A3.592,3.592,0,0,0,162.4,38.9Z" fill="#fff"/>
      <path d="M174.931,43.361V31.045h3.488l3.9,9.68h.17v-9.68h2.025V43.361h-3.173l-4.024-9.717h-.356v9.717Z" fill="#fff"/>
      <path d="M186.673,39.015q0-4.754,3.846-4.754,3.8,0,3.811,4.059l-.148,1.46H188.7a1.828,1.828,0,0,0,.471,1.341,2.27,2.27,0,0,0,1.534.432q1.412,0,3.287-.151l.035,1.688a16.933,16.933,0,0,1-3.614.471,3.457,3.457,0,0,1-2.864-1.091A5.517,5.517,0,0,1,186.673,39.015ZM188.7,38.2h3.607a2.183,2.183,0,0,0-.41-1.487,2.34,2.34,0,0,0-2.761.016A2.1,2.1,0,0,0,188.7,38.2Z" fill="#fff"/>
      <path d="M195.27,34.478h2.014l1.315,6.875h.391l1.521-6.719h2.216l1.482,6.719h.509l1.449-6.875h1.88l-1.859,8.883h-3.244l-1.3-5.947L200.3,43.361h-3.3Z" fill="#fff"/>
      <path d="M213.87,43.361V31.045h3.4l2.79,9.361,2.8-9.361h3.259V43.361h-2.025V33.643h-.206l-2.765,9.221H219l-2.784-9.22h-.325v9.718Z" fill="#fff"/>
      <path d="M228.3,39.015q0-4.754,3.846-4.754,3.8,0,3.811,4.059l-.148,1.46h-5.484a1.828,1.828,0,0,0,.471,1.341,2.27,2.27,0,0,0,1.534.432q1.412,0,3.287-.151l.035,1.688a16.935,16.935,0,0,1-3.614.471,3.457,3.457,0,0,1-2.864-1.091A5.517,5.517,0,0,1,228.3,39.015Zm2.025-.817h3.607a2.183,2.183,0,0,0-.41-1.487,2.34,2.34,0,0,0-2.761.016A2.1,2.1,0,0,0,230.323,38.2Z" fill="#fff"/>
      <path d="M237.3,38.882a5.633,5.633,0,0,1,.9-3.511,3.326,3.326,0,0,1,2.776-1.11,8.989,8.989,0,0,1,1.995.254V30.9h2.025V43.361H242.97v-.454a5.185,5.185,0,0,1-2.318.654A2.956,2.956,0,0,1,238.1,42.48,6.286,6.286,0,0,1,237.3,38.882Zm2.025.017a3.794,3.794,0,0,0,.4,2.051,1.427,1.427,0,0,0,1.246.6,7.693,7.693,0,0,0,1.995-.372V36.426l-.035-.008a.848.848,0,0,0-.113-.017,1.6,1.6,0,0,0-.175-.009l-.749-.083c-.191-.022-.453-.035-.784-.041a1.542,1.542,0,0,0-1.354.612A3.593,3.593,0,0,0,239.328,38.9Z" fill="#fff"/>
      <path d="M247.6,32.887V30.879h2.025v2.008Zm0,10.474V34.478h2.025v8.883Z" fill="#fff"/>
      <path d="M251.644,40.719a2.469,2.469,0,0,1,.73-1.982A3.852,3.852,0,0,1,254.6,38l2.2-.172v-.516a.947.947,0,0,0-.306-.761,1.18,1.18,0,0,0-.8-.279q-.593,0-1.447.052c-.156.012-.629.035-1.414.069l-.561.035L252.21,34.7a20.656,20.656,0,0,1,3.6-.443,3.12,3.12,0,0,1,2.271.721,3.2,3.2,0,0,1,.753,2.331v3.63a1.247,1.247,0,0,0,.174.638,1.07,1.07,0,0,0,.548.25l-.069,1.73a5.532,5.532,0,0,1-1.457-.148,2.589,2.589,0,0,1-.917-.478,7.8,7.8,0,0,1-2.909.626,2.373,2.373,0,0,1-1.885-.745A3.057,3.057,0,0,1,251.644,40.719Zm2.025-.091q0,1.186.907,1.186a8.7,8.7,0,0,0,2.231-.364v-2.1l-1.943.109Q253.669,39.566,253.669,40.627Z" fill="#fff"/>
    </g>
  </g>
</svg>
