<svg xmlns="http://www.w3.org/2000/svg" width="110" height="32" viewBox="0 0 110 32">
  <title>Zotero</title>
  <g>
    <path d="M15.54,8.36,4.032,23.48H15.96V26H0V23.984L11.508,8.864H.588V6.344H15.54Z" fill="#e52e3d"/>
    <path d="M38.556,16.172a10.724,10.724,0,0,1-.777,4.116,9.743,9.743,0,0,1-5.46,5.439A11.126,11.126,0,0,1,28.1,26.5a11.008,11.008,0,0,1-4.179-.777,9.743,9.743,0,0,1-5.46-5.439,10.706,10.706,0,0,1-.777-4.116,10.7,10.7,0,0,1,.777-4.116,9.743,9.743,0,0,1,5.46-5.439A10.989,10.989,0,0,1,28.1,5.84a11.107,11.107,0,0,1,4.221.777,9.743,9.743,0,0,1,5.46,5.439A10.721,10.721,0,0,1,38.556,16.172Zm-3.024,0a8.839,8.839,0,0,0-.525-3.066,7.387,7.387,0,0,0-1.491-2.478,7.012,7.012,0,0,0-2.331-1.659,8.128,8.128,0,0,0-6.174,0,6.779,6.779,0,0,0-2.31,1.659,7.558,7.558,0,0,0-1.47,2.478,9.215,9.215,0,0,0,0,6.132,7.547,7.547,0,0,0,1.47,2.478,6.779,6.779,0,0,0,2.31,1.659,8.128,8.128,0,0,0,6.174,0,7.012,7.012,0,0,0,2.331-1.659,7.377,7.377,0,0,0,1.491-2.478A8.835,8.835,0,0,0,35.532,16.172Z" fill="#222"/>
    <path d="M52.5,8.864H46.829V20.456a6.29,6.29,0,0,0,.21,1.785,2.525,2.525,0,0,0,.589,1.071,2.025,2.025,0,0,0,.9.525,4.243,4.243,0,0,0,1.156.147,5.443,5.443,0,0,0,1.469-.211,6.721,6.721,0,0,0,1.387-.544l.126,2.561a8.91,8.91,0,0,1-3.738.714,6.984,6.984,0,0,1-1.659-.21,3.909,3.909,0,0,1-1.576-.8,4.381,4.381,0,0,1-1.175-1.6,6.389,6.389,0,0,1-.462-2.646V8.864H39.9V6.344h4.159V.8h2.771V6.344H52.5Z" fill="#222"/>
    <path d="M56.951,16.928a8.409,8.409,0,0,0,.714,2.772,7.247,7.247,0,0,0,3.78,3.738,6.771,6.771,0,0,0,2.73.546,7.005,7.005,0,0,0,3.844-1.029,7.69,7.69,0,0,0,2.457-2.373l2.141,1.764a10.645,10.645,0,0,1-3.885,3.192,10.864,10.864,0,0,1-4.557.966,10.471,10.471,0,0,1-4.053-.777,9.494,9.494,0,0,1-3.213-2.163,10.236,10.236,0,0,1-2.121-3.276,10.724,10.724,0,0,1-.777-4.116,10.963,10.963,0,0,1,.757-4.116,9.946,9.946,0,0,1,2.1-3.276,9.64,9.64,0,0,1,3.151-2.163,9.766,9.766,0,0,1,3.905-.777,9.578,9.578,0,0,1,3.99.8,8.853,8.853,0,0,1,2.961,2.121A9.078,9.078,0,0,1,72.7,11.867a11.342,11.342,0,0,1,.63,3.8v1.26ZM70.307,14.66a6.293,6.293,0,0,0-1.68-4.557,6.227,6.227,0,0,0-4.7-1.743,6.7,6.7,0,0,0-2.6.525,7.33,7.33,0,0,0-2.205,1.407A7.035,7.035,0,0,0,57.6,12.308a5.186,5.186,0,0,0-.568,2.352Z" fill="#222"/>
    <path d="M77.615,12.476q0-1.3-.063-2.646t-.105-3.486h2.73V10h.084a6.047,6.047,0,0,1,.84-1.533,6.606,6.606,0,0,1,1.323-1.323,6.476,6.476,0,0,1,1.8-.945,7.094,7.094,0,0,1,2.332-.357,7.525,7.525,0,0,1,2.058.252l-.546,2.73a4.663,4.663,0,0,0-1.6-.21,5.7,5.7,0,0,0-2.73.609,6.068,6.068,0,0,0-1.891,1.554,6.453,6.453,0,0,0-1.112,2.037,6.754,6.754,0,0,0-.357,2.1V26H77.615Z" fill="#222"/>
    <path d="M109.114,16.172a10.743,10.743,0,0,1-.776,4.116,9.743,9.743,0,0,1-5.46,5.439,11.132,11.132,0,0,1-4.222.777,11.006,11.006,0,0,1-4.178-.777,9.743,9.743,0,0,1-5.46-5.439,10.706,10.706,0,0,1-.778-4.116,10.7,10.7,0,0,1,.778-4.116,9.743,9.743,0,0,1,5.46-5.439,10.987,10.987,0,0,1,4.178-.777,11.112,11.112,0,0,1,4.222.777,9.743,9.743,0,0,1,5.46,5.439A10.739,10.739,0,0,1,109.114,16.172Zm-3.023,0a8.816,8.816,0,0,0-.526-3.066,7.355,7.355,0,0,0-1.491-2.478,7,7,0,0,0-2.331-1.659,8.128,8.128,0,0,0-6.174,0,6.775,6.775,0,0,0-2.309,1.659,7.558,7.558,0,0,0-1.47,2.478,9.215,9.215,0,0,0,0,6.132,7.547,7.547,0,0,0,1.47,2.478,6.775,6.775,0,0,0,2.309,1.659,8.128,8.128,0,0,0,6.174,0,7,7,0,0,0,2.331-1.659,7.345,7.345,0,0,0,1.491-2.478A8.812,8.812,0,0,0,106.091,16.172Z" fill="#222"/>
  </g>
</svg>
