<svg xmlns="http://www.w3.org/2000/svg" width="94" height="20" viewBox="0 0 94 20">
  <g>
    <path d="M8.88,8.92,2.3,17.561H9.12V19H0V17.848l6.576-8.64H.336V7.768H8.88Z" fill="#cc2936"/>
    <path d="M21.792,13.384a6.126,6.126,0,0,1-.444,2.352,5.643,5.643,0,0,1-1.236,1.871,5.586,5.586,0,0,1-1.884,1.237,6.347,6.347,0,0,1-2.412.444,6.281,6.281,0,0,1-2.388-.444,5.586,5.586,0,0,1-1.884-1.237,5.643,5.643,0,0,1-1.236-1.871,6.452,6.452,0,0,1,0-4.7,5.567,5.567,0,0,1,3.12-3.108,6.281,6.281,0,0,1,2.388-.444,6.347,6.347,0,0,1,2.412.444,5.567,5.567,0,0,1,3.12,3.108A6.126,6.126,0,0,1,21.792,13.384Zm-1.728,0a5.038,5.038,0,0,0-.3-1.752,4.228,4.228,0,0,0-.852-1.416,4.011,4.011,0,0,0-1.332-.948,4.645,4.645,0,0,0-3.528,0,3.873,3.873,0,0,0-1.32.948,4.319,4.319,0,0,0-.84,1.416,5.266,5.266,0,0,0,0,3.5,4.319,4.319,0,0,0,.84,1.416,3.873,3.873,0,0,0,1.32.948,4.645,4.645,0,0,0,3.528,0,4.011,4.011,0,0,0,1.332-.948,4.228,4.228,0,0,0,.852-1.416A5.038,5.038,0,0,0,20.064,13.384Z" fill="#222"/>
    <path d="M29.52,9.208H26.28v6.624a3.6,3.6,0,0,0,.12,1.02,1.44,1.44,0,0,0,.336.612,1.168,1.168,0,0,0,.516.3,2.443,2.443,0,0,0,.66.084,3.13,3.13,0,0,0,.84-.119,3.891,3.891,0,0,0,.792-.313l.072,1.464a5.088,5.088,0,0,1-2.136.408,4,4,0,0,1-.948-.12,2.235,2.235,0,0,1-.9-.456,2.511,2.511,0,0,1-.672-.912,3.662,3.662,0,0,1-.264-1.512V9.208H22.32V7.768H24.7V4.6H26.28V7.768h3.24Z" fill="#222"/>
    <path d="M31.824,13.816a4.788,4.788,0,0,0,.408,1.584,4.141,4.141,0,0,0,2.16,2.136,3.881,3.881,0,0,0,1.56.312,4,4,0,0,0,2.2-.588A4.4,4.4,0,0,0,39.552,15.9l1.224,1.008a6.1,6.1,0,0,1-2.22,1.824,6.211,6.211,0,0,1-2.6.552,5.973,5.973,0,0,1-2.316-.444A5.375,5.375,0,0,1,31.8,17.607a5.84,5.84,0,0,1-1.212-1.871,6.126,6.126,0,0,1-.444-2.352,6.276,6.276,0,0,1,.432-2.352,5.694,5.694,0,0,1,1.2-1.872,5.518,5.518,0,0,1,1.8-1.236,5.584,5.584,0,0,1,2.232-.444,5.473,5.473,0,0,1,2.28.456A5.059,5.059,0,0,1,39.78,9.148a5.2,5.2,0,0,1,1.044,1.776,6.508,6.508,0,0,1,.36,2.172v.72Zm7.632-1.3a3.6,3.6,0,0,0-.96-2.6,3.561,3.561,0,0,0-2.688-1,3.829,3.829,0,0,0-1.488.3,4.188,4.188,0,0,0-1.26.8,4.032,4.032,0,0,0-.864,1.152,2.957,2.957,0,0,0-.324,1.344Z" fill="#222"/>
    <path d="M43.511,11.272c0-.5-.012-1-.036-1.512s-.044-1.176-.06-1.992h1.56V9.856h.048a3.491,3.491,0,0,1,.48-.876,3.76,3.76,0,0,1,.756-.756,3.712,3.712,0,0,1,1.032-.54,4.05,4.05,0,0,1,1.332-.2,4.3,4.3,0,0,1,1.176.144l-.312,1.56a2.665,2.665,0,0,0-.912-.12,3.256,3.256,0,0,0-1.56.348,3.459,3.459,0,0,0-1.08.888,3.689,3.689,0,0,0-.636,1.164,3.857,3.857,0,0,0-.2,1.2V19H43.511Z" fill="#222"/>
    <path d="M61.511,13.384a6.145,6.145,0,0,1-.444,2.352,5.643,5.643,0,0,1-1.236,1.871,5.576,5.576,0,0,1-1.884,1.237,6.347,6.347,0,0,1-2.412.444,6.281,6.281,0,0,1-2.388-.444,5.586,5.586,0,0,1-1.884-1.237,5.643,5.643,0,0,1-1.236-1.871,6.452,6.452,0,0,1,0-4.7,5.567,5.567,0,0,1,3.12-3.108,6.281,6.281,0,0,1,2.388-.444,6.347,6.347,0,0,1,2.412.444,5.567,5.567,0,0,1,3.12,3.108A6.145,6.145,0,0,1,61.511,13.384Zm-1.728,0a5.038,5.038,0,0,0-.3-1.752,4.242,4.242,0,0,0-.851-1.416A4.022,4.022,0,0,0,57.3,9.268a4.647,4.647,0,0,0-3.529,0,3.873,3.873,0,0,0-1.32.948,4.319,4.319,0,0,0-.84,1.416,5.266,5.266,0,0,0,0,3.5,4.319,4.319,0,0,0,.84,1.416,3.873,3.873,0,0,0,1.32.948,4.647,4.647,0,0,0,3.529,0,4.022,4.022,0,0,0,1.332-.948,4.242,4.242,0,0,0,.851-1.416A5.038,5.038,0,0,0,59.783,13.384Z" fill="#222"/>
    <path d="M63.335.856H65.5v8.4h.047a3.95,3.95,0,0,1,1.656-1.4A5.284,5.284,0,0,1,69.5,7.336a6.027,6.027,0,0,1,2.388.456,5.367,5.367,0,0,1,1.824,1.26,5.586,5.586,0,0,1,1.163,1.9,6.7,6.7,0,0,1,.408,2.364,6.6,6.6,0,0,1-.408,2.352,5.759,5.759,0,0,1-1.163,1.9,5.3,5.3,0,0,1-1.824,1.271,6.027,6.027,0,0,1-2.388.456,5.3,5.3,0,0,1-2.244-.5,4.1,4.1,0,0,1-1.717-1.416H65.5V19h-2.16Zm5.9,16.416a3.924,3.924,0,0,0,1.56-.3,3.47,3.47,0,0,0,1.176-.817,3.611,3.611,0,0,0,.744-1.248,4.974,4.974,0,0,0,0-3.192,3.63,3.63,0,0,0-.744-1.248A3.454,3.454,0,0,0,70.8,9.652a4.206,4.206,0,0,0-3.12,0,3.435,3.435,0,0,0-1.176.816,3.6,3.6,0,0,0-.744,1.248,4.956,4.956,0,0,0,0,3.192,3.581,3.581,0,0,0,.744,1.248,3.451,3.451,0,0,0,1.176.817A3.92,3.92,0,0,0,69.239,17.272Z" fill="#222"/>
    <path d="M76.7,3.544a1.521,1.521,0,0,1,.469-1.116,1.565,1.565,0,0,1,2.232,0,1.523,1.523,0,0,1,.467,1.116A1.523,1.523,0,0,1,79.4,4.66a1.565,1.565,0,0,1-2.232,0A1.521,1.521,0,0,1,76.7,3.544Zm.5,4.08h2.16V19h-2.16Z" fill="#222"/>
    <path d="M81.839.856H84v8.4h.047a3.944,3.944,0,0,1,1.656-1.4,5.281,5.281,0,0,1,2.305-.516,6.027,6.027,0,0,1,2.388.456,5.376,5.376,0,0,1,1.824,1.26,5.586,5.586,0,0,1,1.163,1.9,6.7,6.7,0,0,1,.408,2.364,6.6,6.6,0,0,1-.408,2.352,5.759,5.759,0,0,1-1.163,1.9A5.307,5.307,0,0,1,90.4,18.832a6.027,6.027,0,0,1-2.388.456,5.3,5.3,0,0,1-2.244-.5,4.1,4.1,0,0,1-1.717-1.416H84V19h-2.16Zm5.9,16.416a3.924,3.924,0,0,0,1.56-.3,3.47,3.47,0,0,0,1.176-.817,3.611,3.611,0,0,0,.744-1.248,4.974,4.974,0,0,0,0-3.192,3.63,3.63,0,0,0-.744-1.248A3.454,3.454,0,0,0,89.3,9.652a4.206,4.206,0,0,0-3.12,0,3.435,3.435,0,0,0-1.176.816,3.584,3.584,0,0,0-.744,1.248,4.956,4.956,0,0,0,0,3.192,3.566,3.566,0,0,0,.744,1.248,3.451,3.451,0,0,0,1.176.817A3.917,3.917,0,0,0,87.743,17.272Z" fill="#222"/>
  </g>
</svg>
