<svg xmlns="http://www.w3.org/2000/svg" width="113" height="32" viewBox="0 0 113 32">
  <title>Zotero</title>
  <g>
    <path d="M15.54,8.36,4.032,23.48H15.96V26H0V23.984L11.508,8.864H.588V6.344H15.54Z" fill="#cc2936"/>
    <path d="M38.682,16.172a10.72,10.72,0,0,1-.777,4.116,9.74,9.74,0,0,1-5.46,5.439,11.117,11.117,0,0,1-4.221.777,11,11,0,0,1-4.179-.777,9.744,9.744,0,0,1-5.46-5.439,10.711,10.711,0,0,1-.777-4.116,10.708,10.708,0,0,1,.777-4.116,9.74,9.74,0,0,1,5.46-5.439,10.991,10.991,0,0,1,4.179-.777,11.108,11.108,0,0,1,4.221.777,9.736,9.736,0,0,1,5.46,5.439A10.718,10.718,0,0,1,38.682,16.172Zm-3.024,0a8.815,8.815,0,0,0-.525-3.066,7.384,7.384,0,0,0-1.491-2.478,7.011,7.011,0,0,0-2.331-1.659,8.123,8.123,0,0,0-6.174,0,6.771,6.771,0,0,0-2.31,1.659,7.551,7.551,0,0,0-1.47,2.478,9.216,9.216,0,0,0,0,6.132,7.531,7.531,0,0,0,1.47,2.478,6.766,6.766,0,0,0,2.31,1.659,8.129,8.129,0,0,0,6.174,0,7.006,7.006,0,0,0,2.331-1.659,7.365,7.365,0,0,0,1.491-2.478A8.809,8.809,0,0,0,35.658,16.172Z" fill="#222"/>
    <path d="M53.058,8.864h-5.67V20.456a6.273,6.273,0,0,0,.21,1.785,2.515,2.515,0,0,0,.588,1.071,2.023,2.023,0,0,0,.9.525,4.247,4.247,0,0,0,1.155.147,5.462,5.462,0,0,0,1.47-.21,6.749,6.749,0,0,0,1.386-.546l.126,2.562a8.911,8.911,0,0,1-3.738.714,7.013,7.013,0,0,1-1.659-.21,3.912,3.912,0,0,1-1.575-.8,4.391,4.391,0,0,1-1.176-1.6,6.4,6.4,0,0,1-.462-2.646V8.864H40.458V6.344h4.158V.8h2.772V6.344h5.67Z" fill="#222"/>
    <path d="M57.942,16.928a8.417,8.417,0,0,0,.714,2.772,7.25,7.25,0,0,0,3.78,3.738,6.785,6.785,0,0,0,2.73.546,7,7,0,0,0,3.843-1.029,7.7,7.7,0,0,0,2.457-2.373l2.142,1.764a10.657,10.657,0,0,1-3.885,3.192,10.871,10.871,0,0,1-4.557.966,10.458,10.458,0,0,1-4.053-.777A9.491,9.491,0,0,1,57.9,23.564a10.232,10.232,0,0,1-2.121-3.276A10.711,10.711,0,0,1,55,16.172a10.982,10.982,0,0,1,.756-4.116,9.958,9.958,0,0,1,2.1-3.276,9.652,9.652,0,0,1,3.15-2.163,9.773,9.773,0,0,1,3.906-.777,9.583,9.583,0,0,1,3.99.8,8.853,8.853,0,0,1,2.961,2.121,9.085,9.085,0,0,1,1.827,3.108,11.341,11.341,0,0,1,.63,3.8v1.26ZM71.3,14.66a6.294,6.294,0,0,0-1.68-4.557,6.229,6.229,0,0,0-4.7-1.743,6.712,6.712,0,0,0-2.6.525A7.339,7.339,0,0,0,60.1,10.292a7.043,7.043,0,0,0-1.512,2.016,5.2,5.2,0,0,0-.567,2.352Z" fill="#222"/>
    <path d="M79.105,12.476q0-1.3-.063-2.646t-.1-3.486h2.73V10h.084a6.106,6.106,0,0,1,.84-1.533,6.579,6.579,0,0,1,1.323-1.323A6.5,6.5,0,0,1,85.721,6.2a7.1,7.1,0,0,1,2.331-.357,7.527,7.527,0,0,1,2.058.252l-.546,2.73a4.674,4.674,0,0,0-1.6-.21,5.7,5.7,0,0,0-2.73.609,6.052,6.052,0,0,0-1.89,1.554,6.454,6.454,0,0,0-1.113,2.037,6.759,6.759,0,0,0-.357,2.1V26H79.105Z" fill="#222"/>
    <path d="M112.038,16.172a10.72,10.72,0,0,1-.777,4.116,9.74,9.74,0,0,1-5.46,5.439,11.117,11.117,0,0,1-4.221.777,11,11,0,0,1-4.179-.777,9.744,9.744,0,0,1-5.46-5.439,10.711,10.711,0,0,1-.777-4.116,10.708,10.708,0,0,1,.777-4.116A9.74,9.74,0,0,1,97.4,6.617a10.991,10.991,0,0,1,4.179-.777,11.108,11.108,0,0,1,4.221.777,9.736,9.736,0,0,1,5.46,5.439A10.718,10.718,0,0,1,112.038,16.172Zm-3.024,0a8.815,8.815,0,0,0-.525-3.066A7.384,7.384,0,0,0,107,10.628a7.011,7.011,0,0,0-2.331-1.659,8.123,8.123,0,0,0-6.174,0,6.771,6.771,0,0,0-2.31,1.659,7.551,7.551,0,0,0-1.47,2.478,9.216,9.216,0,0,0,0,6.132,7.531,7.531,0,0,0,1.47,2.478,6.766,6.766,0,0,0,2.31,1.659,8.129,8.129,0,0,0,6.174,0A7.006,7.006,0,0,0,107,21.716a7.365,7.365,0,0,0,1.491-2.478A8.809,8.809,0,0,0,109.014,16.172Z" fill="#222"/>
  </g>
</svg>
