<svg xmlns="http://www.w3.org/2000/svg" width="109" height="32" viewBox="0 0 109 32">
  <title>Zotero</title>
  <g>
    <path d="M15.54,8.361,4.032,23.481H15.96V26H0V23.985L11.508,8.865H.588V6.345H15.54Z" fill="#cc2936"/>
    <path d="M38.556,16.173a10.739,10.739,0,0,1-.777,4.116,9.731,9.731,0,0,1-5.459,5.438,11.1,11.1,0,0,1-4.222.778,10.974,10.974,0,0,1-4.179-.778,9.737,9.737,0,0,1-5.46-5.438,10.7,10.7,0,0,1-.777-4.116,10.7,10.7,0,0,1,.777-4.116,9.743,9.743,0,0,1,5.46-5.439A11.012,11.012,0,0,1,28.1,5.841a11.139,11.139,0,0,1,4.222.777,9.737,9.737,0,0,1,5.459,5.439A10.739,10.739,0,0,1,38.556,16.173Zm-3.023,0a8.816,8.816,0,0,0-.526-3.066,7.373,7.373,0,0,0-1.492-2.478,7.012,7.012,0,0,0-2.33-1.659,8.128,8.128,0,0,0-6.174,0,6.792,6.792,0,0,0-2.31,1.659,7.558,7.558,0,0,0-1.47,2.478,9.215,9.215,0,0,0,0,6.132,7.558,7.558,0,0,0,1.47,2.478,6.765,6.765,0,0,0,2.31,1.659,8.128,8.128,0,0,0,6.174,0,6.984,6.984,0,0,0,2.33-1.659,7.373,7.373,0,0,0,1.492-2.478A8.816,8.816,0,0,0,35.533,16.173Z" fill="#222"/>
    <path d="M52.5,8.865H46.829V20.457a6.294,6.294,0,0,0,.21,1.785,2.515,2.515,0,0,0,.588,1.07,2.015,2.015,0,0,0,.9.526,4.27,4.27,0,0,0,1.155.147,5.481,5.481,0,0,0,1.47-.21,6.783,6.783,0,0,0,1.387-.547l.125,2.563a8.91,8.91,0,0,1-3.738.714,7.042,7.042,0,0,1-1.659-.21,3.905,3.905,0,0,1-1.575-.8,4.383,4.383,0,0,1-1.176-1.6,6.4,6.4,0,0,1-.462-2.646V8.865H39.9V6.345h4.158V.8h2.772V6.345H52.5Z" fill="#222"/>
    <path d="M56.951,16.929a8.409,8.409,0,0,0,.714,2.772,7.237,7.237,0,0,0,3.78,3.738,6.787,6.787,0,0,0,2.729.546,7.009,7.009,0,0,0,3.844-1.029,7.7,7.7,0,0,0,2.457-2.373l2.142,1.764a10.663,10.663,0,0,1-3.885,3.192,10.868,10.868,0,0,1-4.558.966,10.43,10.43,0,0,1-4.052-.778,9.457,9.457,0,0,1-3.213-2.162,10.214,10.214,0,0,1-2.121-3.276,10.7,10.7,0,0,1-.778-4.116,10.963,10.963,0,0,1,.757-4.116,9.949,9.949,0,0,1,2.1-3.276,9.651,9.651,0,0,1,3.15-2.163,9.786,9.786,0,0,1,3.9-.777,9.58,9.58,0,0,1,3.991.8A8.863,8.863,0,0,1,70.874,8.76,9.094,9.094,0,0,1,72.7,11.868a11.342,11.342,0,0,1,.63,3.8v1.26Zm13.355-2.268a6.293,6.293,0,0,0-1.68-4.558,6.229,6.229,0,0,0-4.7-1.742,6.7,6.7,0,0,0-2.6.525,7.33,7.33,0,0,0-2.205,1.407A7.057,7.057,0,0,0,57.6,12.309a5.187,5.187,0,0,0-.567,2.352Z" fill="#222"/>
    <path d="M77.405,12.476q0-1.3-.064-2.645t-.1-3.486h2.729V10h.084a6.127,6.127,0,0,1,.84-1.533,6.611,6.611,0,0,1,1.323-1.324A6.521,6.521,0,0,1,84.019,6.2a7.092,7.092,0,0,1,2.331-.357,7.533,7.533,0,0,1,2.059.252l-.546,2.73a4.7,4.7,0,0,0-1.6-.21,5.691,5.691,0,0,0-2.729.609,6.054,6.054,0,0,0-1.891,1.554,6.44,6.44,0,0,0-1.112,2.036,6.734,6.734,0,0,0-.358,2.1V26H77.405Z" fill="#222"/>
    <path d="M108.9,16.173a10.721,10.721,0,0,1-.777,4.116,9.737,9.737,0,0,1-5.46,5.438,11.088,11.088,0,0,1-4.221.778,10.974,10.974,0,0,1-4.179-.778,9.737,9.737,0,0,1-5.46-5.438,10.721,10.721,0,0,1-.777-4.116,10.721,10.721,0,0,1,.777-4.116,9.743,9.743,0,0,1,5.46-5.439,11.012,11.012,0,0,1,4.179-.777,11.126,11.126,0,0,1,4.221.777,9.743,9.743,0,0,1,5.46,5.439A10.721,10.721,0,0,1,108.9,16.173Zm-3.024,0a8.816,8.816,0,0,0-.525-3.066,7.387,7.387,0,0,0-1.491-2.478,7.027,7.027,0,0,0-2.331-1.659,8.128,8.128,0,0,0-6.174,0,6.792,6.792,0,0,0-2.31,1.659,7.538,7.538,0,0,0-1.469,2.478,9.2,9.2,0,0,0,0,6.132,7.538,7.538,0,0,0,1.469,2.478,6.765,6.765,0,0,0,2.31,1.659,8.128,8.128,0,0,0,6.174,0,7,7,0,0,0,2.331-1.659,7.387,7.387,0,0,0,1.491-2.478A8.816,8.816,0,0,0,105.88,16.173Z" fill="#222"/>
  </g>
</svg>
