<svg xmlns="http://www.w3.org/2000/svg" width="444" height="370" viewBox="0 0 444 370">
  <title>cite</title>
  <g style="isolation: isolate">
    <g>
      <rect width="444" height="306.68" rx="20" ry="20" fill="#f6f6f6"/>
      <polygon points="270.977 365.418 173.023 365.418 178.515 306.68 265.485 306.68 270.977 365.418" fill="#e6e6e6"/>
      <rect x="154.713" y="365.418" width="134.573" height="3.662" fill="#e6e6e6"/>
      <path d="M422,250H22a4,4,0,0,1-4-4V27H426V246A4,4,0,0,1,422,250Z" fill="#ddd"/>
      <path d="M22,17H422a4,4,0,0,1,4,4v6a0,0,0,0,1,0,0H18a0,0,0,0,1,0,0V21A4,4,0,0,1,22,17Z" fill="#e6e6e6"/>
      <g>
        <circle cx="25" cy="22" r="2" fill="#e6e6e6" style="mix-blend-mode: multiply"/>
        <circle cx="32" cy="22" r="2" fill="#e6e6e6" style="mix-blend-mode: multiply"/>
        <circle cx="39" cy="22" r="2" fill="#e6e6e6" style="mix-blend-mode: multiply"/>
      </g>
      <rect x="18" y="43" width="408" height="14" fill="#e6e6e6"/>
      <rect x="117" y="44" width="12" height="12" rx="2" ry="2" fill="#fff"/>
      <rect x="131" y="44" width="12" height="12" rx="3" ry="3" fill="none" opacity="0.25"/>
      <rect x="145" y="44" width="12" height="12" rx="3" ry="3" fill="none" opacity="0.25"/>
      <rect x="159" y="44" width="12" height="12" rx="3" ry="3" fill="none" opacity="0.25"/>
      <rect x="173" y="44" width="12" height="12" rx="3" ry="3" fill="none" opacity="0.25"/>
      <rect x="187" y="44" width="12" height="12" rx="3" ry="3" fill="none" opacity="0.25"/>
      <g>
        <g>
          <circle cx="22" cy="47" r="1" fill="#ccc"/>
          <circle cx="22" cy="50" r="1" fill="#ccc"/>
          <circle cx="22" cy="53" r="1" fill="#ccc"/>
        </g>
        <rect x="18" y="43" width="1" height="14" fill="#ddd"/>
      </g>
      <g>
        <g>
          <circle cx="113" cy="47" r="1" fill="#ccc"/>
          <circle cx="113" cy="50" r="1" fill="#ccc"/>
          <circle cx="113" cy="53" r="1" fill="#ccc"/>
        </g>
        <rect x="109" y="43" width="1" height="14" fill="#ddd"/>
      </g>
      <rect x="25" y="44" width="12" height="12" rx="3" ry="3" fill="none" opacity="0.25"/>
      <rect x="28" y="47" width="6" height="6" fill="#e6e6e6" style="mix-blend-mode: multiply"/>
      <rect x="39" y="44" width="12" height="12" rx="3" ry="3" fill="none" opacity="0.25"/>
      <rect x="42" y="47" width="6" height="6" fill="#e6e6e6" style="mix-blend-mode: multiply"/>
      <rect x="53" y="44" width="12" height="12" rx="3" ry="3" fill="none" opacity="0.25"/>
      <rect x="56" y="47" width="6" height="6" fill="#e6e6e6" style="mix-blend-mode: multiply"/>
      <rect x="67" y="44" width="12" height="12" rx="3" ry="3" fill="none" opacity="0.25"/>
      <rect x="70" y="47" width="6" height="6" fill="#e6e6e6" style="mix-blend-mode: multiply"/>
      <rect x="81" y="44" width="12" height="12" rx="3" ry="3" fill="none" opacity="0.25"/>
      <rect x="84" y="47" width="6" height="6" fill="#e6e6e6" style="mix-blend-mode: multiply"/>
      <rect x="95" y="44" width="12" height="12" rx="3" ry="3" fill="none" opacity="0.25"/>
      <rect x="98" y="47" width="6" height="6" fill="#e6e6e6" style="mix-blend-mode: multiply"/>
      <rect x="120" y="47" width="6" height="6" fill="#cc2936" style="mix-blend-mode: multiply"/>
      <rect x="134" y="47" width="6" height="6" fill="#e6e6e6" style="mix-blend-mode: multiply"/>
      <rect x="148" y="47" width="6" height="6" fill="#e6e6e6" style="mix-blend-mode: multiply"/>
      <rect x="162" y="47" width="6" height="6" fill="#e6e6e6" style="mix-blend-mode: multiply"/>
      <rect x="176" y="47" width="6" height="6" fill="#e6e6e6" style="mix-blend-mode: multiply"/>
      <rect x="190" y="47" width="6" height="6" fill="#e6e6e6" style="mix-blend-mode: multiply"/>
      <rect x="18" y="28" width="408" height="14" fill="#e6e6e6"/>
      <rect x="25" y="29" width="12" height="12" rx="3" ry="3" fill="none" opacity="0.25"/>
      <rect x="39" y="29" width="12" height="12" rx="3" ry="3" fill="none" opacity="0.25"/>
      <rect x="53" y="29" width="12" height="12" rx="3" ry="3" fill="none" opacity="0.25"/>
      <rect x="67" y="29" width="12" height="12" rx="3" ry="3" fill="none" opacity="0.25"/>
      <rect x="81" y="29" width="12" height="12" rx="3" ry="3" fill="none" opacity="0.25"/>
      <rect x="95" y="29" width="12" height="12" rx="3" ry="3" fill="none" opacity="0.25"/>
      <rect x="109" y="29" width="12" height="12" rx="3" ry="3" fill="none" opacity="0.25"/>
      <rect x="123" y="29" width="12" height="12" rx="3" ry="3" fill="none" opacity="0.25"/>
      <rect x="137" y="29" width="12" height="12" rx="3" ry="3" fill="none" opacity="0.25"/>
      <rect x="151" y="29" width="12" height="12" rx="3" ry="3" fill="none" opacity="0.25"/>
      <g>
        <g>
          <circle cx="169" cy="32" r="1" fill="#ccc"/>
          <circle cx="169" cy="35" r="1" fill="#ccc"/>
          <circle cx="169" cy="38" r="1" fill="#ccc"/>
        </g>
        <rect x="165" y="28" width="1" height="14" fill="#ddd"/>
      </g>
      <g>
        <g>
          <circle cx="22" cy="32" r="1" fill="#ccc"/>
          <circle cx="22" cy="35" r="1" fill="#ccc"/>
          <circle cx="22" cy="38" r="1" fill="#ccc"/>
        </g>
        <rect x="18" y="28" width="1" height="14" fill="#ddd"/>
      </g>
      <rect x="172" y="29" width="12" height="12" rx="3" ry="3" fill="none" opacity="0.25"/>
      <rect x="175" y="32" width="6" height="6" fill="#e6e6e6" style="mix-blend-mode: multiply"/>
      <rect x="186" y="29" width="12" height="12" rx="3" ry="3" fill="none" opacity="0.25"/>
      <rect x="189" y="32" width="6" height="6" fill="#e6e6e6" style="mix-blend-mode: multiply"/>
      <rect x="200" y="29" width="12" height="12" rx="3" ry="3" fill="none" opacity="0.25"/>
      <rect x="203" y="32" width="6" height="6" fill="#e6e6e6" style="mix-blend-mode: multiply"/>
      <rect x="214" y="29" width="12" height="12" rx="3" ry="3" fill="none" opacity="0.25"/>
      <rect x="217" y="32" width="6" height="6" fill="#e6e6e6" style="mix-blend-mode: multiply"/>
      <rect x="228" y="29" width="12" height="12" rx="3" ry="3" fill="none" opacity="0.25"/>
      <rect x="231" y="32" width="6" height="6" fill="#e6e6e6" style="mix-blend-mode: multiply"/>
      <rect x="242" y="29" width="12" height="12" rx="3" ry="3" fill="none" opacity="0.25"/>
      <rect x="245" y="32" width="6" height="6" fill="#e6e6e6" style="mix-blend-mode: multiply"/>
      <rect x="256" y="29" width="12" height="12" rx="3" ry="3" fill="none" opacity="0.25"/>
      <rect x="259" y="32" width="6" height="6" fill="#e6e6e6" style="mix-blend-mode: multiply"/>
      <rect x="270" y="29" width="12" height="12" rx="3" ry="3" fill="none" opacity="0.25"/>
      <rect x="273" y="32" width="6" height="6" fill="#e6e6e6" style="mix-blend-mode: multiply"/>
      <rect x="284" y="29" width="12" height="12" rx="3" ry="3" fill="none" opacity="0.25"/>
      <rect x="287" y="32" width="6" height="6" fill="#e6e6e6" style="mix-blend-mode: multiply"/>
      <rect x="298" y="29" width="12" height="12" rx="3" ry="3" fill="none" opacity="0.25"/>
      <rect x="301" y="32" width="6" height="6" fill="#e6e6e6" style="mix-blend-mode: multiply"/>
      <rect x="312" y="29" width="12" height="12" rx="3" ry="3" fill="none" opacity="0.25"/>
      <rect x="315" y="32" width="6" height="6" fill="#e6e6e6" style="mix-blend-mode: multiply"/>
      <rect x="326" y="29" width="12" height="12" rx="3" ry="3" fill="none" opacity="0.25"/>
      <rect x="329" y="32" width="6" height="6" fill="#e6e6e6" style="mix-blend-mode: multiply"/>
      <rect x="340" y="29" width="12" height="12" rx="3" ry="3" fill="none" opacity="0.25"/>
      <rect x="343" y="32" width="6" height="6" fill="#e6e6e6" style="mix-blend-mode: multiply"/>
      <rect x="354" y="29" width="12" height="12" rx="3" ry="3" fill="none" opacity="0.25"/>
      <rect x="357" y="32" width="6" height="6" fill="#e6e6e6" style="mix-blend-mode: multiply"/>
      <rect x="368" y="29" width="12" height="12" rx="3" ry="3" fill="none" opacity="0.25"/>
      <rect x="371" y="32" width="6" height="6" fill="#e6e6e6" style="mix-blend-mode: multiply"/>
      <rect x="382" y="29" width="12" height="12" rx="3" ry="3" fill="none" opacity="0.25"/>
      <rect x="385" y="32" width="6" height="6" fill="#e6e6e6" style="mix-blend-mode: multiply"/>
      <rect x="42" y="32" width="6" height="6" fill="#e6e6e6" style="mix-blend-mode: multiply"/>
      <rect x="28" y="32" width="6" height="6" fill="#e6e6e6" style="mix-blend-mode: multiply"/>
      <rect x="56" y="32" width="14" height="6" fill="#fff" opacity="0.5"/>
      <rect x="70" y="32" width="6" height="6" fill="#e6e6e6" style="mix-blend-mode: multiply"/>
      <rect x="84" y="32" width="28" height="6" fill="#fff" opacity="0.5"/>
      <rect x="112" y="32" width="6" height="6" fill="#e6e6e6" style="mix-blend-mode: multiply"/>
      <rect x="126" y="32" width="6" height="6" fill="#e6e6e6" style="mix-blend-mode: multiply"/>
      <rect x="140" y="32" width="6" height="6" fill="#e6e6e6" style="mix-blend-mode: multiply"/>
      <rect x="154" y="32" width="6" height="6" fill="#e6e6e6" style="mix-blend-mode: multiply"/>
      <g>
        <rect x="85" y="76" width="274" height="174" opacity="0.04"/>
        <rect x="87" y="74" width="270" height="176" fill="#fff"/>
        <rect x="119" y="114" width="104" height="6" fill="#e6e6e6"/>
        <rect x="119" y="132" width="206" height="4" fill="#ccc"/>
        <rect x="119" y="144" width="206" height="4" fill="#e6e6e6"/>
        <rect x="119" y="132" width="206" height="4" fill="#e6e6e6"/>
        <rect x="215" y="156" width="82" height="4" fill="#e6e6e6"/>
        <rect x="119" y="168" width="206" height="4" fill="#e6e6e6"/>
        <rect x="119" y="192" width="206" height="4" fill="#e6e6e6"/>
        <rect x="119" y="204" width="122" height="4" fill="#e6e6e6"/>
        <rect x="119" y="216" width="206" height="4" fill="#e6e6e6"/>
        <rect x="119" y="228" width="157" height="4" fill="#e6e6e6"/>
        <rect x="280" y="227" width="2" height="6" fill="#0069e0"/>
        <rect x="129" y="156" width="72" height="4" fill="#0069e0"/>
        <rect x="255" y="204" width="60" height="4" fill="#0069e0"/>
        <rect x="119" y="180" width="206" height="4" fill="#e6e6e6"/>
        <g>
          <path d="M334.6,99l6,15H313.428l22,69H275V114h-4V99h63.6m4.062-6H265v27h4v69h74.638l-2.494-7.823L321.638,120h27.82l-3.291-8.228-6-15L338.659,93Z" fill="#fff"/>
          <g>
            <rect x="272.5" y="100.5" width="129" height="12" fill="#fff"/>
            <path d="M400,102v9H274v-9H400m3-3H271v15H403V99Z" fill="#cc2936"/>
          </g>
          <rect x="275" y="114" width="124" height="69" fill="#f6f6f6"/>
          <rect x="275" y="133" width="124" height="1" fill="#e6e6e6"/>
          <rect x="275" y="123" width="124" height="1" fill="#e6e6e6"/>
          <rect x="275" y="143" width="124" height="1" fill="#e6e6e6"/>
          <rect x="275" y="153" width="124" height="1" fill="#e6e6e6"/>
          <rect x="275" y="163" width="124" height="1" fill="#e6e6e6"/>
          <rect x="275" y="173" width="124" height="1" fill="#e6e6e6"/>
          <rect x="276" y="105" width="38" height="3" fill="#ccc"/>
          <rect x="275" y="134" width="124" height="9" fill="#0069e0"/>
          <rect x="278" y="117" width="85" height="3" fill="#ccc"/>
          <rect x="278" y="127" width="71" height="3" fill="#ccc"/>
          <rect x="278" y="137" width="99" height="3" fill="#fff" opacity="0.8"/>
          <rect x="278" y="147" width="87" height="3" fill="#ccc"/>
          <rect x="278" y="157" width="109" height="3" fill="#ccc"/>
          <rect x="278" y="167" width="79" height="3" fill="#ccc"/>
          <rect x="278" y="177" width="94" height="3" fill="#ccc"/>
        </g>
        <rect x="119" y="150" width="3" height="8" fill="#0069e0"/>
        <rect x="124" y="150" width="3" height="8" fill="#0069e0"/>
        <rect x="203" y="150" width="3" height="8" fill="#0069e0"/>
        <rect x="208" y="150" width="3" height="8" fill="#0069e0"/>
        <rect x="245" y="198" width="3" height="8" fill="#0069e0"/>
        <rect x="250" y="198" width="3" height="8" fill="#0069e0"/>
        <rect x="317" y="198" width="3" height="8" fill="#0069e0"/>
        <rect x="322" y="198" width="3" height="8" fill="#0069e0"/>
      </g>
    </g>
  </g>
</svg>
