<svg xmlns="http://www.w3.org/2000/svg" xmlns:xlink="http://www.w3.org/1999/xlink" width="444" height="514" viewBox="0 0 444 514">
  <defs>
    <clipPath id="a">
      <circle cx="344" cy="100" r="100" fill="none"/>
    </clipPath>
  </defs>
  <title>collect</title>
  <g style="isolation: isolate">
    <g>
      <rect x="223" y="158" width="119" height="6" fill="#f6f6f6"/>
      <rect x="223" y="170" width="119" height="6" fill="#f6f6f6"/>
      <rect x="223" y="182" width="119" height="6" fill="#f6f6f6"/>
      <rect x="223" y="194" width="119" height="6" fill="#f6f6f6"/>
      <rect x="223" y="206" width="119" height="6" fill="#f6f6f6"/>
      <rect x="223" y="146" width="119" height="6" fill="#f6f6f6"/>
      <rect x="223" y="158" width="119" height="6" fill="#f6f6f6"/>
      <rect x="223" y="146" width="119" height="6" fill="#f6f6f6"/>
      <g>
        <path d="M340.955,201.451a101.436,101.436,0,0,1-91.277-63.9l-.819-2.055H342.5v66Z" fill="#fff"/>
        <path d="M341,137v62.951A100.038,100.038,0,0,1,251.072,137H341m3-3H246.647l1.638,4.111a102.934,102.934,0,0,0,92.626,64.84l3.088.091V134Z" fill="#fff"/>
      </g>
      <rect x="79" y="146" width="120" height="76" fill="#f6f6f6"/>
      <path d="M50,58H371a6,6,0,0,1,6,6V86a0,0,0,0,1,0,0H44a0,0,0,0,1,0,0V64A6,6,0,0,1,50,58Z" fill="#e6e6e6"/>
      <rect x="45" y="86" width="331" height="28" fill="#f6f6f6"/>
      <rect x="102" y="91" width="229" height="18" rx="3" ry="3" fill="#fff"/>
      <rect x="110" y="97" width="128" height="6" fill="#ebebeb" opacity="0.8"/>
      <circle cx="57" cy="72" r="5" fill="#e6e6e6" style="mix-blend-mode: multiply"/>
      <circle cx="73" cy="72" r="5" fill="#e6e6e6" style="mix-blend-mode: multiply"/>
      <circle cx="89" cy="72" r="5" fill="#e6e6e6" style="mix-blend-mode: multiply"/>
      <polygon points="291 86 205 86 214 64 282 64 291 86" fill="none"/>
      <polygon points="200 86 100 86 109 64 191 64 200 86" fill="#f6f6f6"/>
      <g>
        <polygon points="94 99 94 95 90 99 94 99" fill="#ddd"/>
        <path d="M92.858,101a4,4,0,1,1,0-2H93.9a5,5,0,1,0,0,2Z" fill="#ddd"/>
      </g>
      <g>
        <rect x="53.414" y="99" width="7.586" height="1" transform="translate(114.414 199) rotate(180)" fill="#ddd"/>
        <polyline points="58 104 53.5 99.5 58 95" fill="none" stroke="#ddd" stroke-miterlimit="10"/>
      </g>
      <g>
        <rect x="69" y="99" width="7.586" height="1" fill="#ddd"/>
        <polyline points="72 95 76.5 99.5 72 104" fill="none" stroke="#ddd" stroke-miterlimit="10"/>
      </g>
      <g>
        <rect x="363" y="95" width="2" height="2" fill="#ddd"/>
        <rect x="363" y="99" width="2" height="2" fill="#ddd"/>
        <rect x="363" y="103" width="2" height="2" fill="#ddd"/>
      </g>
      <rect x="335" y="91" width="18" height="18" rx="3" ry="3" fill="#ddd"/>
      <rect x="44" y="86" width="1" height="129" fill="#e6e6e6"/>
      <rect x="376" y="195" width="1" height="20" fill="#e6e6e6"/>
      <g clip-path="url(#a)">
        <rect x="7" y="79" width="396" height="42" fill="#f6f6f6"/>
        <rect x="401" y="79" width="2" height="108" fill="#e6e6e6"/>
        <path d="M7,37H394a9,9,0,0,1,9,9V79a0,0,0,0,1,0,0H7a0,0,0,0,1,0,0V37A0,0,0,0,1,7,37Z" fill="#e6e6e6"/>
        <rect x="73" y="86" width="247" height="28" rx="4" ry="4" fill="#fff"/>
        <rect x="330" y="86" width="28" height="28" rx="1.497" ry="1.497" fill="#0069e0"/>
        <g>
          <rect x="276" y="133" width="136" height="28" fill="#ebebeb"/>
          <g>
            <path d="M293.091,142.584a2.8,2.8,0,0,0-2.466-1.242,3.691,3.691,0,0,0-.99.135,2.729,2.729,0,0,0-.873.414,2.076,2.076,0,0,0-.621.72,2.19,2.19,0,0,0-.233,1.035,1.8,1.8,0,0,0,.485,1.341,3.85,3.85,0,0,0,1.206.783,13.4,13.4,0,0,0,1.575.549,7.217,7.217,0,0,1,1.575.648,3.754,3.754,0,0,1,1.206,1.071,3.023,3.023,0,0,1,.486,1.817,3.273,3.273,0,0,1-.369,1.558,3.572,3.572,0,0,1-.973,1.16,4.542,4.542,0,0,1-1.35.721,4.676,4.676,0,0,1-1.5.252,5.692,5.692,0,0,1-2.223-.441,4.219,4.219,0,0,1-1.791-1.449l1.188-.846a3.091,3.091,0,0,0,1.148,1.125,3.429,3.429,0,0,0,1.74.423,3.209,3.209,0,0,0,.969-.152,2.791,2.791,0,0,0,.87-.45,2.492,2.492,0,0,0,.638-.729,1.935,1.935,0,0,0,.251-.989,2.03,2.03,0,0,0-.279-1.107,2.4,2.4,0,0,0-.738-.738,4.715,4.715,0,0,0-1.044-.5q-.584-.2-1.206-.4t-1.205-.45a4.172,4.172,0,0,1-1.045-.639,2.854,2.854,0,0,1-.737-.973,3.393,3.393,0,0,1-.279-1.467,3.46,3.46,0,0,1,.352-1.6,3.315,3.315,0,0,1,.936-1.134,3.974,3.974,0,0,1,1.323-.666,5.6,5.6,0,0,1,3.474.126,4.223,4.223,0,0,1,1.638,1.206Z" fill="#555"/>
            <path d="M302.037,148.056v-.216a1.917,1.917,0,0,0-2.16-2.178,3.723,3.723,0,0,0-2.574.989l-.72-.846a4.755,4.755,0,0,1,3.563-1.224,3.872,3.872,0,0,1,1.18.18,2.667,2.667,0,0,1,.98.549,2.726,2.726,0,0,1,.666.927,3.22,3.22,0,0,1,.252,1.332v3.763c0,.323.015.663.045,1.017s.063.646.1.873h-1.152c-.036-.2-.062-.426-.081-.666s-.027-.474-.027-.7h-.035a3.218,3.218,0,0,1-1.233,1.215,3.736,3.736,0,0,1-1.737.369,3.839,3.839,0,0,1-1.08-.152,2.775,2.775,0,0,1-.927-.469,2.373,2.373,0,0,1-.647-.773,2.258,2.258,0,0,1-.243-1.071,2.313,2.313,0,0,1,.53-1.611,3.264,3.264,0,0,1,1.332-.873,6.587,6.587,0,0,1,1.71-.359q.91-.072,1.665-.072Zm-.612.972c-.3,0-.675.016-1.125.045a6.5,6.5,0,0,0-1.3.217,2.868,2.868,0,0,0-1.062.53,1.209,1.209,0,0,0-.44.99,1.4,1.4,0,0,0,.171.711,1.421,1.421,0,0,0,.459.486,1.947,1.947,0,0,0,.639.27,3.113,3.113,0,0,0,.711.081,2.7,2.7,0,0,0,1.125-.216,2.285,2.285,0,0,0,1.278-1.449,3.559,3.559,0,0,0,.153-1.053v-.612Z" fill="#555"/>
            <path d="M309.687,153.222h-1.332l-3.42-8.424h1.4l2.7,7.092h.035l2.683-7.092h1.35Z" fill="#555"/>
            <path d="M315.482,149.334a3.616,3.616,0,0,0,.306,1.188,3.11,3.11,0,0,0,1.62,1.6,2.924,2.924,0,0,0,1.17.233,3,3,0,0,0,1.647-.44,3.291,3.291,0,0,0,1.053-1.018l.918.756a4.549,4.549,0,0,1-1.665,1.368,4.648,4.648,0,0,1-1.953.414,4.479,4.479,0,0,1-1.736-.333,4.067,4.067,0,0,1-1.377-.927,4.38,4.38,0,0,1-.909-1.4,4.582,4.582,0,0,1-.333-1.764,4.691,4.691,0,0,1,.324-1.764,4.266,4.266,0,0,1,.9-1.4,4.119,4.119,0,0,1,1.351-.927,4.175,4.175,0,0,1,1.674-.333,4.113,4.113,0,0,1,1.71.342,3.786,3.786,0,0,1,1.269.909,3.882,3.882,0,0,1,.783,1.332,4.864,4.864,0,0,1,.27,1.629v.54Zm5.724-.973a2.7,2.7,0,0,0-.72-1.953,2.673,2.673,0,0,0-2.016-.746,2.867,2.867,0,0,0-1.116.225,3.152,3.152,0,0,0-.945.6,3.03,3.03,0,0,0-.647.864,2.227,2.227,0,0,0-.243,1.008Z" fill="#555"/>
            <path d="M334.023,145.878h-2.431v4.968a2.705,2.705,0,0,0,.09.765,1.077,1.077,0,0,0,.253.459.86.86,0,0,0,.387.226,1.827,1.827,0,0,0,.5.063,2.325,2.325,0,0,0,.63-.09,2.85,2.85,0,0,0,.594-.234l.054,1.1a3.81,3.81,0,0,1-1.6.306,3.017,3.017,0,0,1-.711-.09,1.676,1.676,0,0,1-.675-.342,1.881,1.881,0,0,1-.5-.685,2.733,2.733,0,0,1-.2-1.134v-5.31h-1.782V144.8h1.782v-2.376h1.188V144.8h2.431Z" fill="#555"/>
            <path d="M344.156,149.01a4.582,4.582,0,0,1-.333,1.764,4.172,4.172,0,0,1-2.34,2.331,4.763,4.763,0,0,1-1.809.333,4.715,4.715,0,0,1-1.791-.333,4.172,4.172,0,0,1-2.34-2.331,4.837,4.837,0,0,1,0-3.527,4.172,4.172,0,0,1,2.34-2.331,4.7,4.7,0,0,1,1.791-.333,4.745,4.745,0,0,1,1.809.333,4.172,4.172,0,0,1,2.34,2.331A4.582,4.582,0,0,1,344.156,149.01Zm-1.3,0a3.8,3.8,0,0,0-.225-1.314,3.178,3.178,0,0,0-.639-1.062,3.009,3.009,0,0,0-1-.711,3.488,3.488,0,0,0-2.646,0,2.915,2.915,0,0,0-.99.711,3.257,3.257,0,0,0-.63,1.062,3.956,3.956,0,0,0,0,2.628,3.252,3.252,0,0,0,.63,1.063,2.915,2.915,0,0,0,.99.711,3.488,3.488,0,0,0,2.646,0,3.009,3.009,0,0,0,1-.711,3.173,3.173,0,0,0,.639-1.062A3.787,3.787,0,0,0,342.86,149.01Z" fill="#555"/>
            <path d="M359.511,141.558l-7.435,10.476h7.542v1.188h-9.18v-1.08l7.452-10.476h-7.344v-1.188h8.964Z" fill="#555"/>
            <path d="M369.842,149.01a4.582,4.582,0,0,1-.333,1.764,4.172,4.172,0,0,1-2.34,2.331,4.763,4.763,0,0,1-1.809.333,4.715,4.715,0,0,1-1.791-.333,4.172,4.172,0,0,1-2.34-2.331,4.837,4.837,0,0,1,0-3.527,4.172,4.172,0,0,1,2.34-2.331,4.7,4.7,0,0,1,1.791-.333,4.745,4.745,0,0,1,1.809.333,4.172,4.172,0,0,1,2.34,2.331A4.582,4.582,0,0,1,369.842,149.01Zm-1.3,0a3.8,3.8,0,0,0-.225-1.314,3.178,3.178,0,0,0-.639-1.062,3.009,3.009,0,0,0-1-.711,3.488,3.488,0,0,0-2.646,0,2.915,2.915,0,0,0-.99.711,3.257,3.257,0,0,0-.63,1.062,3.956,3.956,0,0,0,0,2.628,3.252,3.252,0,0,0,.63,1.063,2.915,2.915,0,0,0,.99.711,3.488,3.488,0,0,0,2.646,0,3.009,3.009,0,0,0,1-.711,3.173,3.173,0,0,0,.639-1.062A3.787,3.787,0,0,0,368.546,149.01Z" fill="#555"/>
            <path d="M376.358,145.878h-2.431v4.968a2.705,2.705,0,0,0,.09.765,1.077,1.077,0,0,0,.253.459.86.86,0,0,0,.387.226,1.827,1.827,0,0,0,.5.063,2.325,2.325,0,0,0,.63-.09,2.85,2.85,0,0,0,.594-.234l.054,1.1a3.81,3.81,0,0,1-1.6.306,3.017,3.017,0,0,1-.711-.09,1.676,1.676,0,0,1-.675-.342,1.881,1.881,0,0,1-.5-.685,2.733,2.733,0,0,1-.2-1.134v-5.31h-1.782V144.8h1.782v-2.376h1.188V144.8h2.431Z" fill="#555"/>
            <path d="M378.806,149.334a3.616,3.616,0,0,0,.306,1.188,3.11,3.11,0,0,0,1.62,1.6,2.924,2.924,0,0,0,1.17.233,3,3,0,0,0,1.647-.44A3.291,3.291,0,0,0,384.6,150.9l.918.756a4.549,4.549,0,0,1-1.665,1.368,4.648,4.648,0,0,1-1.953.414,4.479,4.479,0,0,1-1.736-.333,4.067,4.067,0,0,1-1.377-.927,4.38,4.38,0,0,1-.909-1.4,4.582,4.582,0,0,1-.333-1.764,4.691,4.691,0,0,1,.324-1.764,4.266,4.266,0,0,1,.9-1.4,4.119,4.119,0,0,1,1.351-.927,4.175,4.175,0,0,1,1.674-.333,4.113,4.113,0,0,1,1.71.342,3.786,3.786,0,0,1,1.269.909,3.882,3.882,0,0,1,.783,1.332,4.864,4.864,0,0,1,.27,1.629v.54Zm5.724-.973a2.7,2.7,0,0,0-.72-1.953,2.673,2.673,0,0,0-2.016-.746,2.867,2.867,0,0,0-1.116.225,3.152,3.152,0,0,0-.945.6,3.03,3.03,0,0,0-.647.864,2.227,2.227,0,0,0-.243,1.008Z" fill="#555"/>
            <path d="M388.111,147.426q0-.558-.027-1.134t-.045-1.494h1.17v1.565h.036a2.615,2.615,0,0,1,.36-.656,2.778,2.778,0,0,1,1.341-.973,3.049,3.049,0,0,1,1-.152,3.253,3.253,0,0,1,.882.107l-.233,1.17a2.015,2.015,0,0,0-.685-.09,2.444,2.444,0,0,0-1.17.261,2.605,2.605,0,0,0-.81.666,2.794,2.794,0,0,0-.478.873,2.908,2.908,0,0,0-.152.9v4.752h-1.188Z" fill="#555"/>
            <path d="M402.151,149.01a4.582,4.582,0,0,1-.333,1.764,4.172,4.172,0,0,1-2.34,2.331,4.763,4.763,0,0,1-1.809.333,4.715,4.715,0,0,1-1.791-.333,4.172,4.172,0,0,1-2.34-2.331,4.837,4.837,0,0,1,0-3.527,4.172,4.172,0,0,1,2.34-2.331,4.7,4.7,0,0,1,1.791-.333,4.745,4.745,0,0,1,1.809.333,4.172,4.172,0,0,1,2.34,2.331A4.582,4.582,0,0,1,402.151,149.01Zm-1.3,0a3.8,3.8,0,0,0-.225-1.314,3.178,3.178,0,0,0-.639-1.062,3.009,3.009,0,0,0-1-.711,3.488,3.488,0,0,0-2.646,0,2.915,2.915,0,0,0-.99.711,3.257,3.257,0,0,0-.63,1.062,3.956,3.956,0,0,0,0,2.628,3.252,3.252,0,0,0,.63,1.063,2.915,2.915,0,0,0,.99.711,3.488,3.488,0,0,0,2.646,0,3.009,3.009,0,0,0,1-.711,3.173,3.173,0,0,0,.639-1.062A3.787,3.787,0,0,0,400.855,149.01Z" fill="#555"/>
          </g>
        </g>
        <g>
          <circle cx="379.5" cy="94.5" r="1.5" fill="#ddd"/>
          <circle cx="379.5" cy="100.5" r="1.5" fill="#ddd"/>
          <circle cx="379.5" cy="106.5" r="1.5" fill="#ddd"/>
        </g>
        <rect x="141" y="187" width="179" height="9" fill="#f6f6f6"/>
        <rect x="141" y="169" width="179" height="9" fill="#f6f6f6"/>
        <g>
          <path d="M299.5,94.978l1.057,3.254.168.518h3.966l-2.768,2.011-.441.32.168.518,1.057,3.254-2.768-2.011-.441-.32-.441.32-2.768,2.011,1.057-3.254.168-.518-.441-.32-2.768-2.011h3.966l.168-.518,1.057-3.254m0-2.427L297.729,98H292l4.635,3.368-1.771,5.449,4.635-3.368,4.635,3.368-1.771-5.449L307,98h-5.729L299.5,92.551Z" fill="#ddd"/>
          <path d="M299.5,92.551,301.271,98H307l-4.635,3.368,1.771,5.449-4.635-3.368-4.635,3.368,1.771-5.449L292,98h5.729l1.771-5.449m0-.75a.75.75,0,0,0-.713.518l-1.6,4.931H292a.75.75,0,0,0-.441,1.357l4.194,3.047-1.6,4.931a.75.75,0,0,0,1.154.839l4.194-3.047,4.194,3.047a.75.75,0,0,0,1.154-.839l-1.6-4.931,4.194-3.047A.75.75,0,0,0,307,97.25h-5.185l-1.6-4.931a.75.75,0,0,0-.713-.518Z" fill="#ddd"/>
        </g>
        <g>
          <path d="M346.293,90,352,95.707V109H336V90h10.293m.414-1H335v21h18V95.293L346.707,89Z" fill="#fff"/>
          <rect x="346" y="90" width="1" height="6" fill="#fff"/>
          <rect x="346" y="95" width="6" height="1" fill="#fff"/>
          <rect x="339" y="95" width="4" height="1" fill="#fff"/>
          <rect x="339" y="99" width="10" height="1" fill="#fff"/>
          <rect x="339" y="103" width="10" height="1" fill="#fff"/>
        </g>
        <g>
          <g>
            <polygon points="359.455 122.035 344 106.543 344 127.897 348.3 123.721 351.306 130.842 356.113 128.796 353.312 122.035 359.455 122.035" fill="#fff"/>
            <polygon points="356.22 120.664 345.334 109.753 345.334 124.67 348.717 121.405 351.877 128.92 354.335 127.888 351.295 120.664 356.22 120.664" fill="#222"/>
          </g>
          <rect x="344" y="106" width="15.455" height="24.842" fill="none"/>
        </g>
        <circle cx="344" cy="100" r="100" fill="#0069e0" opacity="0.06"/>
      </g>
    </g>
    <g>
      <rect x="239" y="220" width="140" height="6" fill="#f6f6f6"/>
      <rect x="239" y="225" width="140" height="6" fill="#f6f6f6"/>
      <rect x="239" y="232" width="140" height="6" fill="#f6f6f6"/>
      <rect x="125" y="283" width="12" height="11" fill="#fff" opacity="0.15"/>
      <path d="M6,215H415a6,6,0,0,1,6,6v20a0,0,0,0,1,0,0H0a0,0,0,0,1,0,0V221A6,6,0,0,1,6,215Z" fill="#e6e6e6"/>
      <circle cx="13" cy="228" r="5" fill="#e6e6e6" style="mix-blend-mode: multiply"/>
      <circle cx="29" cy="228" r="5" fill="#e6e6e6" style="mix-blend-mode: multiply"/>
      <circle cx="45" cy="228" r="5" fill="#e6e6e6" style="mix-blend-mode: multiply"/>
      <rect y="244" width="115" height="160" fill="#f6f6f6"/>
      <path d="M0,407H115a0,0,0,0,1,0,0V514a0,0,0,0,1,0,0H6a6,6,0,0,1-6-6V407A0,0,0,0,1,0,407Z" fill="#f6f6f6"/>
      <path d="M306,244H421a0,0,0,0,1,0,0V508a6,6,0,0,1-6,6H306a0,0,0,0,1,0,0V244A0,0,0,0,1,306,244Z" fill="#f6f6f6"/>
      <rect x="118" y="244" width="185" height="18" transform="translate(421 506) rotate(180)" fill="#f6f6f6"/>
      <rect x="118" y="280" width="185" height="18" transform="translate(421 578) rotate(180)" fill="#f6f6f6"/>
      <rect x="118" y="316" width="185" height="18" transform="translate(421 650) rotate(180)" fill="#f6f6f6"/>
      <rect x="118" y="388" width="185" height="18" transform="translate(421 794) rotate(180)" fill="#f6f6f6"/>
      <rect x="118" y="424" width="185" height="18" transform="translate(421 866) rotate(180)" fill="#f6f6f6"/>
      <rect x="118" y="460" width="185" height="18" transform="translate(421 938) rotate(180)" fill="#f6f6f6"/>
      <rect x="118" y="496" width="185" height="18" transform="translate(421 1010) rotate(180)" fill="#f6f6f6"/>
      <rect x="42" y="258" width="56" height="6" fill="#ebebeb"/>
      <rect x="52" y="278" width="36" height="6" fill="#ebebeb"/>
      <rect x="42" y="318" width="41" height="6" fill="#ebebeb"/>
      <polygon points="26.928 281 20 285 20 277 26.928 281" fill="#ebebeb"/>
      <rect x="52" y="298" width="48" height="6" fill="#ebebeb"/>
      <polygon points="12 264.928 8 258 16 258 12 264.928" fill="#ebebeb"/>
      <rect x="42" y="338" width="51" height="6" fill="#ebebeb"/>
      <path d="M35,256H30l-.724-1.447a1,1,0,0,0-.894-.553H25.618a1,1,0,0,0-.894.553L24,256H23a1,1,0,0,0-1,1v9a1,1,0,0,0,1,1H35a1,1,0,0,0,1-1v-9A1,1,0,0,0,35,256Zm0,10H23v-7H35Zm0-8H23v-1h1a1,1,0,0,0,.894-.553L25.618,255h2.764l.724,1.447A1,1,0,0,0,30,257h5Z" fill="#ebebeb"/>
      <path d="M28.382,255l.724,1.447A1,1,0,0,0,30,257h5v1H23v-1h1a1,1,0,0,0,.894-.553L25.618,255h2.764" fill="#ebebeb"/>
      <rect x="23" y="259" width="12" height="7" fill="#ebebeb"/>
      <path d="M45,296H40l-.724-1.447a1,1,0,0,0-.894-.553H35.618a1,1,0,0,0-.894.553L34,296H33a1,1,0,0,0-1,1v9a1,1,0,0,0,1,1H45a1,1,0,0,0,1-1v-9A1,1,0,0,0,45,296Zm0,10H33v-7H45Zm0-8H33v-1h1a1,1,0,0,0,.894-.553L35.618,295h2.764l.724,1.447A1,1,0,0,0,40,297h5Z" fill="#ebebeb"/>
      <path d="M38.382,295l.724,1.447A1,1,0,0,0,40,297h5v1H33v-1h1a1,1,0,0,0,.894-.553L35.618,295h2.764" fill="#ebebeb"/>
      <rect x="33" y="299" width="12" height="7" fill="#ebebeb"/>
      <path d="M45,276H40l-.724-1.447a1,1,0,0,0-.894-.553H35.618a1,1,0,0,0-.894.553L34,276H33a1,1,0,0,0-1,1v9a1,1,0,0,0,1,1H45a1,1,0,0,0,1-1v-9A1,1,0,0,0,45,276Zm0,10H33v-7H45Zm0-8H33v-1h1a1,1,0,0,0,.894-.553L35.618,275h2.764l.724,1.447A1,1,0,0,0,40,277h5Z" fill="#ebebeb"/>
      <path d="M38.382,275l.724,1.447A1,1,0,0,0,40,277h5v1H33v-1h1a1,1,0,0,0,.894-.553L35.618,275h2.764" fill="#ebebeb"/>
      <rect x="33" y="279" width="12" height="7" fill="#ebebeb"/>
      <rect x="8" y="433" width="42" height="6" rx="3" ry="3" fill="#ebebeb"/>
      <rect x="8" y="417" width="22" height="6" fill="#ebebeb"/>
      <rect x="33" y="465" width="35" height="6" rx="3" ry="3" fill="#ebebeb"/>
      <rect x="65" y="449" width="35" height="6" rx="3" ry="3" fill="#ebebeb"/>
      <rect x="54" y="433" width="21" height="6" rx="3" ry="3" fill="#ebebeb"/>
      <rect x="40" y="449" width="21" height="6" rx="3" ry="3" fill="#ebebeb"/>
      <rect x="8" y="465" width="21" height="6" rx="3" ry="3" fill="#ebebeb"/>
      <rect x="79" y="433" width="28" height="6" rx="3" ry="3" fill="#ebebeb"/>
      <rect x="8" y="449" width="28" height="6" rx="3" ry="3" fill="#ebebeb"/>
      <rect x="8" y="481" width="28" height="6" rx="3" ry="3" transform="translate(44 967.999) rotate(-180)" fill="#ebebeb"/>
      <rect x="58" y="481" width="35" height="6" rx="3" ry="3" fill="#ebebeb"/>
      <rect x="40" y="481" width="14" height="6" rx="3" ry="3" fill="#ebebeb"/>
      <rect x="72" y="465" width="35" height="6" rx="3" ry="3" fill="#ebebeb"/>
      <rect x="144" y="304" width="36.8" height="6" fill="#0069e0"/>
      <rect x="144" y="268" width="36.8" height="6" fill="#0069e0"/>
      <rect x="206" y="304" width="38" height="6" fill="#0069e0"/>
      <g>
        <path d="M28.046,327.5l-.131-.911a.5.5,0,0,0-.357-.384,5.365,5.365,0,0,1-1.22-.5.5.5,0,0,0-.524.019l-.814.543-1.27-1.341.55-.735a.5.5,0,0,0,.019-.524,5.365,5.365,0,0,1-.5-1.22.5.5,0,0,0-.384-.357l-.961-.192.05-1.846.911-.131a.5.5,0,0,0,.384-.357,5.37,5.37,0,0,1,.5-1.22.5.5,0,0,0-.019-.524L23.737,317l1.341-1.27.735.55a.5.5,0,0,0,.277.084.5.5,0,0,0,.247-.065,5.37,5.37,0,0,1,1.22-.5.5.5,0,0,0,.357-.384l.192-.961,1.846.05.131.911a.5.5,0,0,0,.357.384,5.365,5.365,0,0,1,1.22.5.5.5,0,0,0,.247.065.5.5,0,0,0,.277-.084l.814-.542,1.27,1.341-.55.735a.5.5,0,0,0-.019.524,5.37,5.37,0,0,1,.5,1.22.5.5,0,0,0,.384.357l.961.192-.05,1.846-.911.131a.5.5,0,0,0-.384.357,5.365,5.365,0,0,1-.5,1.22.5.5,0,0,0,.019.524l.542.814-1.341,1.271-.735-.551a.5.5,0,0,0-.524-.019,5.365,5.365,0,0,1-1.22.5.5.5,0,0,0-.357.384l-.182.911Zm.954-9a2.5,2.5,0,1,0,2.5,2.5A2.5,2.5,0,0,0,29,318.5Z" fill="#ebebeb"/>
        <path d="M29.493,315l.1.509a1,1,0,0,0,.714.768,4.87,4.87,0,0,1,1.107.457,1,1,0,0,0,1.048-.038l.43-.287.7.7-.287.43a1,1,0,0,0-.038,1.048,4.876,4.876,0,0,1,.457,1.107,1,1,0,0,0,.768.714l.509.1v.985l-.509.1a1,1,0,0,0-.768.714,4.876,4.876,0,0,1-.457,1.107,1,1,0,0,0,.038,1.048l.287.43-.7.7-.43-.287a1,1,0,0,0-1.048-.038,4.868,4.868,0,0,1-1.107.457,1,1,0,0,0-.714.768l-.1.509h-.985l-.1-.509a1,1,0,0,0-.714-.768,4.868,4.868,0,0,1-1.107-.457,1,1,0,0,0-1.048.038l-.43.287-.7-.7.287-.43a1,1,0,0,0,.038-1.048,4.876,4.876,0,0,1-.457-1.107,1,1,0,0,0-.768-.714l-.509-.1v-.985l.509-.1a1,1,0,0,0,.768-.714,4.876,4.876,0,0,1,.457-1.107,1,1,0,0,0-.038-1.048l-.287-.43.7-.7.43.287a1,1,0,0,0,1.048.038,4.87,4.87,0,0,1,1.107-.457,1,1,0,0,0,.714-.768l.1-.509h.985M29,324a3,3,0,1,0-3-3,3,3,0,0,0,3,3m.954-10H28.046a.438.438,0,0,0-.429.352l-.192.961a5.859,5.859,0,0,0-1.334.551l-.814-.543a.438.438,0,0,0-.552.055l-1.349,1.349a.437.437,0,0,0-.055.552l.543.814a5.866,5.866,0,0,0-.551,1.334l-.961.192a.437.437,0,0,0-.352.429v1.908a.437.437,0,0,0,.352.429l.961.192a5.866,5.866,0,0,0,.551,1.334l-.543.814a.437.437,0,0,0,.055.552l1.349,1.349a.438.438,0,0,0,.552.055l.814-.543a5.86,5.86,0,0,0,1.334.551l.192.961a.438.438,0,0,0,.429.352h1.908a.438.438,0,0,0,.429-.352l.192-.961a5.86,5.86,0,0,0,1.334-.551l.814.543a.438.438,0,0,0,.552-.055l1.349-1.349a.437.437,0,0,0,.055-.552l-.543-.814a5.866,5.866,0,0,0,.551-1.334l.961-.192a.437.437,0,0,0,.352-.429v-1.908a.437.437,0,0,0-.352-.429l-.961-.192a5.866,5.866,0,0,0-.551-1.334l.543-.814a.437.437,0,0,0-.055-.552l-1.349-1.349a.438.438,0,0,0-.552-.055l-.814.543a5.859,5.859,0,0,0-1.334-.551l-.192-.961a.438.438,0,0,0-.429-.352ZM29,323a2,2,0,1,1,2-2,2,2,0,0,1-2,2Z" fill="#ebebeb"/>
      </g>
      <g>
        <path d="M28.046,347.5l-.131-.911a.5.5,0,0,0-.357-.384,5.365,5.365,0,0,1-1.22-.5.5.5,0,0,0-.524.019l-.814.543-1.27-1.341.55-.735a.5.5,0,0,0,.019-.524,5.365,5.365,0,0,1-.5-1.22.5.5,0,0,0-.384-.357l-.961-.192.05-1.846.911-.131a.5.5,0,0,0,.384-.357,5.37,5.37,0,0,1,.5-1.22.5.5,0,0,0-.019-.524L23.737,337l1.341-1.27.735.55a.5.5,0,0,0,.277.084.5.5,0,0,0,.247-.065,5.37,5.37,0,0,1,1.22-.5.5.5,0,0,0,.357-.384l.192-.961,1.846.05.131.911a.5.5,0,0,0,.357.384,5.365,5.365,0,0,1,1.22.5.5.5,0,0,0,.247.065.5.5,0,0,0,.277-.084l.814-.542,1.27,1.341-.55.735a.5.5,0,0,0-.019.524,5.37,5.37,0,0,1,.5,1.22.5.5,0,0,0,.384.357l.961.192-.05,1.846-.911.131a.5.5,0,0,0-.384.357,5.365,5.365,0,0,1-.5,1.22.5.5,0,0,0,.019.524l.542.814-1.341,1.271-.735-.551a.5.5,0,0,0-.524-.019,5.365,5.365,0,0,1-1.22.5.5.5,0,0,0-.357.384l-.182.911Zm.954-9a2.5,2.5,0,1,0,2.5,2.5A2.5,2.5,0,0,0,29,338.5Z" fill="#ebebeb"/>
        <path d="M29.493,335l.1.509a1,1,0,0,0,.714.768,4.87,4.87,0,0,1,1.107.457,1,1,0,0,0,1.048-.038l.43-.287.7.7-.287.43a1,1,0,0,0-.038,1.048,4.876,4.876,0,0,1,.457,1.107,1,1,0,0,0,.768.714l.509.1v.985l-.509.1a1,1,0,0,0-.768.714,4.876,4.876,0,0,1-.457,1.107,1,1,0,0,0,.038,1.048l.287.43-.7.7-.43-.287a1,1,0,0,0-1.048-.038,4.868,4.868,0,0,1-1.107.457,1,1,0,0,0-.714.768l-.1.509h-.985l-.1-.509a1,1,0,0,0-.714-.768,4.868,4.868,0,0,1-1.107-.457,1,1,0,0,0-1.048.038l-.43.287-.7-.7.287-.43a1,1,0,0,0,.038-1.048,4.876,4.876,0,0,1-.457-1.107,1,1,0,0,0-.768-.714l-.509-.1v-.985l.509-.1a1,1,0,0,0,.768-.714,4.876,4.876,0,0,1,.457-1.107,1,1,0,0,0-.038-1.048l-.287-.43.7-.7.43.287a1,1,0,0,0,1.048.038,4.87,4.87,0,0,1,1.107-.457,1,1,0,0,0,.714-.768l.1-.509h.985M29,344a3,3,0,1,0-3-3,3,3,0,0,0,3,3m.954-10H28.046a.438.438,0,0,0-.429.352l-.192.961a5.859,5.859,0,0,0-1.334.551l-.814-.543a.438.438,0,0,0-.552.055l-1.349,1.349a.437.437,0,0,0-.055.552l.543.814a5.866,5.866,0,0,0-.551,1.334l-.961.192a.437.437,0,0,0-.352.429v1.908a.437.437,0,0,0,.352.429l.961.192a5.866,5.866,0,0,0,.551,1.334l-.543.814a.437.437,0,0,0,.055.552l1.349,1.349a.438.438,0,0,0,.552.055l.814-.543a5.86,5.86,0,0,0,1.334.551l.192.961a.438.438,0,0,0,.429.352h1.908a.438.438,0,0,0,.429-.352l.192-.961a5.86,5.86,0,0,0,1.334-.551l.814.543a.438.438,0,0,0,.552-.055l1.349-1.349a.437.437,0,0,0,.055-.552l-.543-.814a5.866,5.866,0,0,0,.551-1.334l.961-.192a.437.437,0,0,0,.352-.429v-1.908a.437.437,0,0,0-.352-.429l-.961-.192a5.866,5.866,0,0,0-.551-1.334l.543-.814a.437.437,0,0,0-.055-.552l-1.349-1.349a.438.438,0,0,0-.552-.055l-.814.543a5.859,5.859,0,0,0-1.334-.551l-.192-.961a.438.438,0,0,0-.429-.352ZM29,343a2,2,0,1,1,2-2,2,2,0,0,1-2,2Z" fill="#ebebeb"/>
      </g>
      <rect x="211" y="219" width="92" height="18" rx="3" ry="3" fill="#fff"/>
      <rect x="118" y="352" width="185" height="18" transform="translate(421 722) rotate(180)" fill="#0069e0"/>
      <rect x="144" y="358" width="46" height="6" fill="#fff" opacity="0.8"/>
      <rect x="206" y="358" width="38" height="6" fill="#fff" opacity="0.8"/>
      <rect x="260" y="358" width="24" height="6" fill="#fff" opacity="0.8"/>
      <g>
        <g>
          <path d="M137,282H125a1,1,0,0,0-1,1v11a1,1,0,0,0,1,1h12a1,1,0,0,0,1-1V283A1,1,0,0,0,137,282Zm0,12H125v-7h12Zm0-8H125v-3h12Z" fill="#0069e0"/>
          <rect x="132" y="288" width="4" height="1" fill="#0069e0"/>
          <rect x="132" y="290" width="4" height="1" fill="#0069e0"/>
          <rect x="132" y="292" width="4" height="1" fill="#0069e0"/>
          <path d="M131,288h-5v5h5Zm-1,4h-3v-3h3Z" fill="#0069e0"/>
          <circle cx="126.5" cy="284.5" r="0.5" fill="#0069e0"/>
          <circle cx="128.5" cy="284.5" r="0.5" fill="#0069e0"/>
          <circle cx="130.5" cy="284.5" r="0.5" fill="#0069e0"/>
        </g>
        <rect x="124" y="282" width="14" height="14" fill="none"/>
      </g>
      <rect x="144" y="250" width="46" height="6" fill="#0069e0"/>
      <rect x="144" y="286" width="46" height="6" fill="#0069e0"/>
      <rect x="206" y="268" width="32" height="6" fill="#0069e0"/>
      <rect x="260" y="250" width="24" height="6" fill="#0069e0"/>
      <rect x="260" y="286" width="24" height="6" fill="#0069e0"/>
      <rect x="144" y="340" width="36.8" height="6" fill="#0069e0"/>
      <rect x="206" y="340" width="32" height="6" fill="#0069e0"/>
      <rect x="144" y="322" width="46" height="6" fill="#0069e0"/>
      <rect x="260" y="322" width="24" height="6" fill="#0069e0"/>
      <path d="M137,246h-9a.994.994,0,0,0-.716.306l-1.979,1.979A.994.994,0,0,0,125,249v10a1,1,0,0,0,1,1h9a1,1,0,0,0,1-1V249a1,1,0,0,0-1-1h-8l1-1h9v11a1,1,0,0,0,1-1V247A1,1,0,0,0,137,246Zm-2,13h-9V249h9Z" fill="#0069e0"/>
      <g>
        <path d="M131.5,319.309c-1.126-.764-3.054-1.309-6.5-1.309v12c3.435,0,5.364.541,6.5,1.3v0c1.131-.761,3.063-1.3,6.5-1.3V318C134.554,318,132.626,318.546,131.5,319.309Zm-3.5-.155a3.212,3.212,0,0,1,1,.314v6.683l-.522-.565-.478.393Zm-2-.138c.344.011.677.029,1,.051v8.316l1.416-.692L130,328v-8.272a3.871,3.871,0,0,1,.939.409l.061.042v9.776a13.329,13.329,0,0,0-5-.94Zm11,10a13.327,13.327,0,0,0-5,.94v-9.776l.061-.042c.751-.509,1.978-1.024,4.939-1.121Z" fill="#0069e0"/>
        <rect x="124" y="318" width="14" height="14" fill="none"/>
      </g>
      <g>
        <path d="M132.707,354H125v14h12v-9.707Zm2.586,4H133v-2.293Zm.707,9H126V355h6v4h4Z" fill="#fff" opacity="0.8"/>
        <rect x="124" y="354" width="14" height="14" fill="none"/>
        <rect x="128" y="358" width="2" height="1" fill="#fff" opacity="0.8"/>
        <rect x="128" y="361" width="6" height="1" fill="#fff" opacity="0.8"/>
        <rect x="128" y="364" width="6" height="1" fill="#fff" opacity="0.8"/>
      </g>
      <g>
        <path d="M132.707,336H125v14h12v-9.707Zm2.586,4H133v-2.293Zm.707,9H126V337h6v4h4Z" fill="#0069e0"/>
        <rect x="124" y="336" width="14" height="14" fill="none"/>
      </g>
      <g>
        <g>
          <path d="M131.5,265.309c-1.126-.764-3.054-1.309-6.5-1.309v12c3.435,0,5.364.541,6.5,1.3v0c1.131-.761,3.063-1.3,6.5-1.3V264C134.554,264,132.626,264.546,131.5,265.309Zm-5.5-.293c2.961.1,4.188.612,4.939,1.121l.061.042v9.776a13.329,13.329,0,0,0-5-.94Zm11,10a13.327,13.327,0,0,0-5,.94v-9.776l.061-.042c.751-.509,1.978-1.024,4.939-1.121Z" fill="#0069e0"/>
          <path d="M136,267.068a10.953,10.953,0,0,0-3,.6v1.041a9.448,9.448,0,0,1,3-.641Z" fill="#0069e0"/>
          <path d="M136,271.068a10.953,10.953,0,0,0-3,.6v1.041a9.448,9.448,0,0,1,3-.641Z" fill="#0069e0"/>
          <path d="M136,269.068a10.953,10.953,0,0,0-3,.6v1.041a9.448,9.448,0,0,1,3-.641Z" fill="#0069e0"/>
        </g>
        <rect x="124" y="264" width="14" height="14" fill="none"/>
      </g>
      <g>
        <g>
          <polygon points="129.293 302 125 306.293 125 306.707 129.293 311 130 310.293 126.207 306.5 130 302.707 129.293 302" fill="#0069e0"/>
          <polygon points="133.707 302 133 302.707 136.793 306.5 133 310.293 133.707 311 138 306.707 138 306.293 133.707 302" fill="#0069e0"/>
        </g>
        <rect x="124" y="300" width="14" height="14" fill="none"/>
      </g>
      <rect x="344" y="244" width="77" height="18" fill="#ebebeb"/>
      <rect x="318" y="272" width="22" height="6" fill="#ebebeb"/>
      <rect x="315" y="288" width="25" height="6" fill="#ebebeb"/>
      <rect x="323" y="304" width="17" height="6" fill="#ebebeb"/>
      <rect x="318" y="320" width="22" height="6" fill="#ebebeb"/>
      <rect x="323" y="336" width="17" height="6" fill="#ebebeb"/>
      <rect x="315" y="352" width="25" height="6" fill="#ebebeb"/>
      <rect x="323" y="368" width="17" height="6" fill="#ebebeb"/>
      <rect x="318" y="384" width="22" height="6" fill="#ebebeb"/>
      <rect x="315" y="400" width="25" height="6" fill="#ebebeb"/>
      <rect x="323" y="416" width="17" height="6" fill="#ebebeb"/>
      <rect x="348" y="272" width="37" height="6" fill="#ebebeb"/>
      <rect x="348" y="288" width="50" height="6" fill="#ebebeb"/>
      <rect x="348" y="304" width="44" height="6" fill="#ebebeb"/>
      <rect x="348" y="320" width="57" height="6" fill="#ebebeb"/>
      <rect x="348" y="336" width="50" height="6" fill="#ebebeb"/>
      <rect x="348" y="352" width="57" height="6" fill="#ebebeb"/>
      <rect x="348" y="368" width="44" height="6" fill="#ebebeb"/>
      <rect x="348" y="384" width="34" height="6" fill="#ebebeb"/>
      <rect x="348" y="400" width="44" height="6" fill="#ebebeb"/>
      <rect x="348" y="416" width="29" height="6" fill="#ebebeb"/>
    </g>
  </g>
</svg>
