<svg xmlns="http://www.w3.org/2000/svg" width="444" height="331" viewBox="0 0 444 331">
  <title>collaborate</title>
  <g style="isolation: isolate">
    <g id="his_chair" data-name="his chair">
      <g>
        <circle cx="159.726" cy="324.488" r="6.167" fill="#e6e6e6"/>
        <polygon points="159.726 315.855 152.206 313.644 153.559 324.488 159.726 324.488 159.726 315.855" fill="#e6e6e6"/>
        <path d="M159.726,317.582h0a6.907,6.907,0,0,1,6.907,6.907h-6.907Z" fill="#e6e6e6"/>
        <polygon points="159.726 315.855 152.482 315.855 152.206 313.644 159.726 315.855" fill="#e6e6e6"/>
      </g>
      <rect x="114.707" y="249.256" width="6.167" height="24.666" fill="#eee"/>
      <polygon points="132.591 224.589 102.991 224.589 65.991 224.589 102.991 234.456 102.991 244.323 107.924 249.256 127.657 249.256 132.591 244.323 132.591 234.456 169.59 224.589 132.591 224.589" fill="#e6e6e6"/>
      <g>
        <circle cx="122.569" cy="324.488" r="6.167" fill="#ccc"/>
        <polygon points="122.569 315.855 115.325 315.855 116.402 324.488 122.569 324.488 122.569 315.855" fill="#ccc"/>
        <path d="M122.569,317.582h0a6.907,6.907,0,0,1,6.907,6.907h-6.907Z" fill="#ccc"/>
      </g>
      <polygon points="117.791 308.455 45.025 315.855 45.025 309.686 117.791 291.189 190.557 309.686 190.557 315.855 117.791 308.455" fill="#e6e6e6"/>
      <polygon points="117.791 291.189 117.791 308.455 75.856 315.855 75.856 309.686 117.791 291.189" fill="#e6e6e6"/>
      <polygon points="117.791 291.189 117.791 308.455 159.726 315.855 159.726 309.686 117.791 291.189" fill="#f6f6f6"/>
      <g>
        <circle cx="45.025" cy="324.488" r="6.167" fill="#e6e6e6"/>
        <polygon points="45.025 315.855 52.425 314.601 51.191 324.488 45.025 324.488 45.025 315.855" fill="#e6e6e6"/>
        <path d="M45.025,317.582h0a6.907,6.907,0,0,0-6.907,6.907h6.907Z" fill="#e6e6e6"/>
        <polygon points="45.025 315.855 52.268 315.855 52.425 314.601 45.025 315.855" fill="#e6e6e6"/>
      </g>
      <g>
        <circle cx="75.856" cy="324.488" r="6.167" fill="#e6e6e6"/>
        <polygon points="75.849 315.855 83.368 313.646 82.016 324.488 75.849 324.488 75.849 315.855" fill="#e6e6e6"/>
        <path d="M75.849,317.582h0a6.907,6.907,0,0,0-6.907,6.907h6.907Z" fill="#e6e6e6"/>
        <polygon points="75.856 315.855 83.092 315.855 83.368 313.646 75.856 315.855" fill="#e6e6e6"/>
      </g>
      <g>
        <circle cx="190.557" cy="324.488" r="6.167" fill="#e6e6e6"/>
        <polygon points="190.557 315.855 183.157 314.601 184.39 324.488 190.557 324.488 190.557 315.855" fill="#e6e6e6"/>
        <path d="M190.557,317.582h0a6.907,6.907,0,0,1,6.907,6.907h-6.907Z" fill="#e6e6e6"/>
        <polygon points="190.557 315.855 183.314 315.855 183.157 314.601 190.557 315.855" fill="#e6e6e6"/>
      </g>
      <rect x="111.624" y="265.683" width="12.333" height="27.133" fill="#e6e6e6"/>
      <polygon points="120.257 315.855 115.324 315.855 114.091 292.816 121.491 292.816 120.257 315.855" fill="#ccc"/>
      <path d="M176.99,215.956a31.354,31.354,0,0,0-1.158-8.633H59.749a32.764,32.764,0,0,0,0,17.266H175.832A31.354,31.354,0,0,0,176.99,215.956Z" fill="#f6f6f6"/>
      <path d="M164.542,223.361a1.105,1.105,0,0,1-1.119,1.228H72.158a1.079,1.079,0,0,1-1.094-1.225l13.7-120.881a1.418,1.418,0,0,1,1.372-1.225h65.777a1.384,1.384,0,0,1,1.348,1.228Z" fill="#f6f6f6"/>
    </g>
    <g id="he">
      <path d="M177.6,114.012c-2.713-14.307-8.234-32.158-8.234-32.158l-8.28-7.212-28.579-8.814-29.38,3.205L73.21,81.587l-5.342,5.075s-7.683,16.62-13.272,30.384A186.312,186.312,0,0,0,46.066,145.4l1.792,7.645,10.108.013,0-.007,12.821.007,1.841-8.6a15.814,15.814,0,0,0-5.81-6.193c4.219-7.647,8.7-16.829,10.327-23.889l2.737,17.7,1.153,29,75.262,12.8.08-2.546.087-2.8,1.57-.056s-.215-4.879-.7-5.2a2.428,2.428,0,0,0-.7-.214l.075-2.42.322-10.244.68,2.669h21.741l3.075-7.225S180.311,128.319,177.6,114.012Zm-20.346,29.464.627-19.955.268-3.279c1.545,5.942,3.635,12.265,5.608,17.76A16.923,16.923,0,0,0,157.253,143.476Z" fill="#0069e0"/>
      <g>
        <polygon points="107.956 301.356 107.41 298.5 108.401 294.546 109.769 292.701 122.383 294.958 122.393 298.971 123.438 301.188 123.257 305.025 107.956 301.356" fill="#dbdbdb"/>
        <path d="M107.371,302.8s-.154-2.552,1.087-2.552c.756,0,1.607,1.323,1.607,1.323s3.119-2.6,6.285-2.6a5.464,5.464,0,0,1,4.347,2.693s.425-.8,1.134-.8c1.181,0,1.8,3.638,1.8,3.638l3.922,12.711c.851,1.559,2.457,3.682,2.457,7.466,0,0-2.693,2.741-12.3,2.741-10.854,0-11.941-3.449-11.941-3.449l.189-6.474.9-9.592.142-4.017Z" fill="#eee"/>
        <path d="M120.7,301.665a5.464,5.464,0,0,0-4.347-2.693c-3.166,0-6.285,2.6-6.285,2.6l.585,13.8c0,.759,2.567,1.374,5.734,1.374s5.734-.615,5.734-1.374Z" fill="#dbdbdb"/>
        <path d="M105.765,323.968l.007-.225h0l.091-3.107a12.915,12.915,0,0,0-.518,2.121,12.148,12.148,0,0,0,.006,1.611Z" fill="#e2e2e2"/>
        <path d="M105.351,324.368a8.486,8.486,0,0,0-.295,2.624,5.364,5.364,0,0,0,.567,2.457s1.3,1.206,12.168,1.206,12.262-1.3,12.262-1.3.473-.189.473-2.835-.567-3.213-.567-3.213h-.027a12.491,12.491,0,0,1,.074,1.37s-2.188-1.156-12.215-1.156c-7.558,0-10.634.657-11.691.98a2.353,2.353,0,0,1-.265-.383l-.022-.042-.011-.021-.018-.039,0-.006-.011-.029v0l0-.01Z" fill="#e2e2e2"/>
      </g>
      <path d="M109.09,182.37l-18.7-4.63-7.5,29.582H93.821l5.9,39.268L97.3,296.215a74.416,74.416,0,0,0,13.731,1.727c8.815.109,13.6-1.126,13.6-1.126l4.794-53.913Z" fill="#ddd"/>
      <path d="M162.088,179.159a10.733,10.733,0,0,0-2.285-2.4l0-.02a17.8,17.8,0,0,0,1.009-2.97c.512-1.805.905-3.933.282-4.864-1.505-2.249-12.449-1.959-17.942-1.665l-8.881-2.742-53.227-3.431S75.4,164.39,75.4,166.744c0,1.867.24,4.546.34,5.575l-3.06,6.49,9.216,28.514h70.3a39.746,39.746,0,0,0,5.163-6.291c1.116-1.766,1.948-7.545,2.483-12.578C160.984,185.975,163.233,180.638,162.088,179.159Z" fill="#ddd"/>
      <path d="M144.1,15.175a8.5,8.5,0,0,0-9.475-8.31,8.038,8.038,0,0,0-9.814-4.624,5.594,5.594,0,0,0-9.182,1.038,9.974,9.974,0,0,0-12.285,6.949q-.24-.012-.483-.012a9.368,9.368,0,1,0,8.807,12.564,10.055,10.055,0,0,0,1.289.086,9.949,9.949,0,0,0,3.53-.645,9.446,9.446,0,0,0,4.5,1.134c.279,0,.554-.015.827-.038a8.269,8.269,0,0,0,13.049.492q.242.02.488.027a6.326,6.326,0,1,0,8.747-8.66Z" fill="#655248"/>
      <polygon points="177.11 110.166 169.364 81.854 161.084 74.643 157.879 120.85 177.11 110.166" fill="#5c6e99"/>
      <polygon points="55.048 116.042 78.552 124.856 73.21 81.587 67.869 86.662 63.595 94.942 55.048 116.042" fill="#5c6e99"/>
      <path d="M63.441,153.043l-2.157-5.129a15.6,15.6,0,0,1,6.272-6.2c3.488-1.7,8.5-2.807,9.028-2.091l6.378,8.3-1.378,5.115Z" fill="#edcab2"/>
      <path d="M167.958,149.337l.89-3.033-5.177-5.366s-7.846-1.341-8.089-1.166S149.435,141,149.435,141l-1.537,8.34Z" fill="#edcab2"/>
      <g>
        <path d="M64.895,151.019s.857,2.025,2.054,2.025h4.974l-.769-2.187Z" fill="#ccc"/>
        <path d="M78.951,151.019s-.857,2.025-2.054,2.025H71.923l.769-2.187Z" fill="#ccc"/>
        <path d="M71.923,153.043c-7.921,0-7.524-3.06-7.524-4.189a3.19,3.19,0,0,1,.48-2.065,26.377,26.377,0,0,1,14.088,0,3.19,3.19,0,0,1,.48,2.065C79.446,149.984,79.844,153.043,71.923,153.043Z" fill="#e6e6e6"/>
      </g>
      <path d="M77.087,143.22l-12.419,2.036-.329,4.525a1.27,1.27,0,1,0,1.706,1.188,1.22,1.22,0,0,0-.055-.273c3.091.563,9.446,1.487,10.681-.162C78.316,148.34,77.087,143.22,77.087,143.22Z" fill="#edcab2"/>
      <path d="M126.545,268.978c.471,1.3,7.209.04,15.05-2.807s13.816-6.2,13.346-7.5-7.209-.04-15.05,2.807-13.816,6.2-13.346,7.5" fill="#dbdbdb"/>
      <g>
        <polygon points="139.647 274.351 144.022 275.029 154.653 268.582 156.476 267.588 157.303 267.769 154.967 264.354 150.711 252.838 134.115 256.833 135.805 262.673 135.498 264.824 138.418 269.741 139.647 274.351" fill="#dbdbdb"/>
        <path d="M177.6,294.636c-1.6-2.149-11.832-14.291-11.832-14.291l-7.593-12.383-1.7-.374-1.823.995-2.445-.187-5.039,2.807-3.147,3.827-4.375-.678,3.688,8.3,2.279,8.056,2.467,5.016,5.15,7.928c7.97,6.015,14.182,5.452,19.567,3.1s5.881-6.122,5.881-6.122S179.446,297.031,177.6,294.636Z" fill="#eee"/>
        <path d="M177.6,294.636c1.076,3.875-3.871,8.11-7.9,9.178s-8.079,1.42-11.774-.237a5.474,5.474,0,0,0-4.7.072h0l-.21-.3-.159.509c7.97,6.015,14.55,5.245,19.936,2.9s5.881-6.122,5.881-6.122S179.446,297.031,177.6,294.636Z" fill="#e2e2e2"/>
        <path d="M166.678,289.5l-5.58-7.483-6.445-13.439-2.445-1.42-6.272,4.04-1.914,3.827,7.183,11.811,6.972,7.795c.438.725,2.7.165,5.043-1.252S167.116,290.229,166.678,289.5Z" fill="#dbdbdb"/>
      </g>
      <path d="M139.891,261.342c7.841-2.846,14.579-4.1,15.05-2.807,0,0-2.137-7.746-4.808-15.224s-7.212-30.716-9.081-39.8S130.636,173.6,130.636,173.6l-3.205-10.417-5.393-5.341H107.131L83.36,164.786s-10.471,9.031-10.684,13.889c-.774,8.585,9.216,28.514,9.216,28.514H93.821l-1.076-4.347,4.209-14.017,7.014-6.187s5.566,22.48,7.97,31.027,6.5,19.193,6.5,19.193l8.1,35.987C126.075,267.547,132.05,264.189,139.891,261.342Z" fill="#e6e6e6"/>
      <path d="M103.969,182.772c-9.115,2.561-12.046,8.857-12.046,8.857s-1.324,9.529,1.9,15.694c2.893,5.535,7.782-15.644,7.782-15.644Z" fill="#ddd"/>
    </g>
    <g id="equipment">
      <rect x="431.662" y="153.057" width="12.333" height="177.598" fill="#e6e6e6"/>
      <rect y="153.057" width="12.333" height="177.598" fill="#e6e6e6"/>
      <g>
        <path d="M358.384,151.019s.857,2.025,2.054,2.025h4.974l-.769-2.187Z" fill="#ccc"/>
        <path d="M372.44,151.019s-.857,2.025-2.054,2.025h-4.974l.769-2.187Z" fill="#ccc"/>
        <path d="M365.412,153.043c-7.921,0-7.524-3.06-7.524-4.189a3.19,3.19,0,0,1,.48-2.065,26.377,26.377,0,0,1,14.088,0,3.19,3.19,0,0,1,.48,2.065C372.936,149.984,373.333,153.043,365.412,153.043Z" fill="#e6e6e6"/>
      </g>
      <g>
        <rect x="234.098" y="20.229" width="160.332" height="110.434" rx="3.669" ry="3.669" fill="#f6f6f6"/>
        <polygon points="333.893 153.043 294.635 153.043 296.842 130.663 331.686 130.663 333.893 153.043" fill="#e6e6e6"/>
        <rect x="240.538" y="26.822" width="147.453" height="83.028" fill="#ddd"/>
        <rect x="289.934" y="152.303" width="48.66" height="0.74" fill="#e6e6e6"/>
      </g>
      <rect x="0.005" y="153.043" width="443.995" height="4.933" fill="#eee"/>
      <rect x="262.98" y="149.357" width="106.066" height="3.7" fill="#e6e6e6"/>
      <rect x="89.71" y="149.337" width="106.066" height="3.7" fill="#f6f6f6"/>
      <g>
        <rect x="42.558" y="20.229" width="160.332" height="110.434" rx="3.669" ry="3.669" fill="#f6f6f6"/>
        <polygon points="142.353 153.043 103.095 153.043 110.8 74.896 134.648 74.896 142.353 153.043" fill="#e6e6e6"/>
        <rect x="98.394" y="152.303" width="48.66" height="0.74" fill="#e6e6e6"/>
      </g>
      <path d="M418.672,132.444c.04-1.466.1-2.33-.263-2.705-.814-.847-4.322-1.361-8.574-1.361s-7.76.515-8.574,1.361c-.457.476-.242,1.734-.242,4.009,0,8.951,2.685,17.9,3.506,18.686.787.751,3.931.6,5.311.6s4.524.154,5.311-.6c.389-.371,1.2-2.576,1.938-5.746h0c3.982-1.434,8.2-1.956,8.2-8.352C425.28,132.442,421.513,132.778,418.672,132.444Zm.044,12.008a2.644,2.644,0,0,1-1.1-.305,58.687,58.687,0,0,0,1.013-9.087,2.708,2.708,0,0,1,2.1-.827c1.952.174,3.049.684,3.049,4.2C423.779,141.655,422.809,143.809,418.716,144.452Z" fill="#eee"/>
    </g>
    <g id="zotero">
      <rect x="258" y="35" width="112" height="63" fill="#fff"/>
      <rect x="258" y="43" width="20" height="55" fill="#f6f6f6"/>
      <rect x="280" y="43" width="64" height="2" fill="#f6f6f6"/>
      <rect x="280" y="47" width="64" height="2" fill="#f6f6f6"/>
      <rect x="280" y="51" width="64" height="2" fill="#f6f6f6"/>
      <rect x="280" y="55" width="64" height="2" fill="#f6f6f6"/>
      <rect x="280" y="59" width="64" height="2" fill="#f6f6f6"/>
      <rect x="280" y="63" width="64" height="2" fill="#f6f6f6"/>
      <rect x="280" y="67" width="64" height="2" fill="#f6f6f6"/>
      <rect x="280" y="71" width="64" height="2" fill="#f6f6f6"/>
      <rect x="280" y="75" width="64" height="2" fill="#f6f6f6"/>
      <rect x="280" y="79" width="64" height="2" fill="#f6f6f6"/>
      <rect x="346" y="43" width="24" height="55" fill="#f6f6f6"/>
      <rect x="258" y="35" width="112" height="6" fill="#f6f6f6"/>
      <circle cx="261" cy="38" r="1" fill="#ebebeb" style="mix-blend-mode: multiply"/>
      <circle cx="264" cy="38" r="1" fill="#ebebeb" style="mix-blend-mode: multiply"/>
      <circle cx="267" cy="38" r="1" fill="#ebebeb" style="mix-blend-mode: multiply"/>
    </g>
    <g id="she">
      <path d="M262.7,153.043c-3.386-4.289-2.736-8.582-.4-11.546,2.709-3.443,7.326,3.244,7.99.09.041-.2,13.7,2.682,13.657,2.878v8.578Z" fill="#6d472e"/>
      <path d="M281.006,153.043l-.828-3.913,4.816-6.923s7.3-1.731,7.525-1.5,5.719,1.58,5.719,1.58l1.43,10.76Z" fill="#f9d4b9"/>
      <path d="M374.621,153.043l1.788-4.252s-1.605-3.884-5.2-5.139c-3.015-1.053-7.045-1.991-7.484-1.4l-4.547,5.538.4,5.25Z" fill="#6d472e"/>
      <path d="M292.671,311.954c2.064.664,4.095-5.53,5.361-6.079a15.363,15.363,0,0,1,5.783-.929c2.491,0,4.264,3.208,4.264,3.208s1.171,2.047,2.026,1.889-.95-6.047-.95-6.047-2.153-1.836-3.8-1.33c0,0-1.71-3.039-3.673-3.039,0,0-3.546-.317-4.939.823a5.051,5.051,0,0,0-1.71,2.406,3.366,3.366,0,0,0-1.583.57c-.292.292-1.27,1.681-1.9,2.6C291.548,306.024,291.489,311.574,292.671,311.954Z" fill="#ccc"/>
      <path d="M302.777,196.08c5.253,17.268,3.594,85.429-2.008,94.877l-7.5.209s-3.639-8.34-10.678-43.445S278.1,194.23,278.1,194.23Z" fill="#ddd"/>
      <polygon points="290.669 281.14 293.658 300.765 292.437 305.501 292.619 309.338 294.545 312.713 308.084 305.357 308.465 302.813 307.474 298.859 305.751 297.678 304.2 292.211 303.202 270.99 290.669 281.14" fill="#ddd"/>
      <polygon points="293.425 310.155 293.541 313.876 289.704 316.318 288.077 319.341 288.658 320.969 295.634 323.992 306.913 324.108 309.238 322.364 309.471 321.201 311.099 320.039 311.564 317.713 310.983 315.853 309.238 313.527 308.89 310.969 309.006 309.003 308.308 307.481 308.076 304.807 293.425 310.155" fill="#f9d4b9"/>
      <rect x="283.828" y="313.45" width="32.477" height="13.022" fill="#fff"/>
      <path d="M310.542,321.973c-.068.722-1.2,1.97-8.225,1.97-9.878,0-10.258-2.913-10.258-2.913l-2.406,1.013-.633,4.369,2.216,1.14.633,2.469,1.33.633h18.046l.7-2.849Z" fill="#efeef3"/>
      <g>
        <path d="M293.23,303.688l.073-.09Z" fill="#a9deef"/>
        <path d="M293.13,303.816l.091-.117Z" fill="#a9deef"/>
        <path d="M293.027,303.95l.072-.094Z" fill="#a9deef"/>
        <path d="M293.325,303.571l.051-.06Z" fill="#a9deef"/>
        <path d="M311.878,311.659,309.156,304s1.8,5.889.95,6.047-2.026-1.889-2.026-1.889-1.773-3.208-4.264-3.208a15.363,15.363,0,0,0-5.783.929c-1.266.549-3.3,6.742-5.361,6.079-1.182-.38-1.123-5.93-1.123-5.93.157-.227.334-.482.517-.742-.568.807-1.083,1.564-1.083,1.564l-.57,3.039.317,3.356-.063,3.293-.886,3.989a4.575,4.575,0,0,0-.127,1.52l2.406-1.013s.38,2.913,10.258,2.913,8.105-2.469,8.105-2.469Z" fill="#ddd"/>
        <path d="M293.4,303.488c.021-.023.04-.044.057-.061C293.436,303.444,293.416,303.465,293.4,303.488Z" fill="#a9deef"/>
        <path d="M292.508,304.659l.1-.144Z" fill="#a9deef"/>
        <path d="M292.226,305.055l.112-.158Z" fill="#a9deef"/>
        <path d="M292.089,305.249l.107-.151Z" fill="#a9deef"/>
        <path d="M292.9,304.115l.089-.119Z" fill="#a9deef"/>
        <path d="M292.357,304.87l.129-.18Z" fill="#a9deef"/>
        <path d="M292.769,304.3l.115-.157Z" fill="#a9deef"/>
        <path d="M292.647,304.467l.092-.127Z" fill="#a9deef"/>
      </g>
      <polygon points="291.236 327.552 292.059 321.03 289.653 322.043 289.02 326.412 291.236 327.552" fill="#e6e6e6"/>
      <path d="M336.656,311.954c-2.064.664-4.095-5.53-5.361-6.079a15.363,15.363,0,0,0-5.783-.929c-2.491,0-4.264,3.208-4.264,3.208s-1.171,2.047-2.026,1.889.95-6.047.95-6.047,2.153-1.836,3.8-1.33c0,0,1.71-3.039,3.673-3.039,0,0,3.546-.317,4.939.823a5.051,5.051,0,0,1,1.71,2.406,3.366,3.366,0,0,1,1.583.57c.292.292,1.27,1.681,1.9,2.6C337.779,306.024,337.838,311.574,336.656,311.954Z" fill="#ccc"/>
      <path d="M326.55,196.08c-5.253,17.268-3.594,85.429,2.008,94.877l7.5.209s3.639-8.34,10.678-43.445,4.491-53.491,4.491-53.491Z" fill="#ddd"/>
      <polygon points="338.658 281.14 335.67 300.765 336.89 305.501 336.709 309.338 334.783 312.713 321.243 305.357 320.862 302.813 321.854 298.859 323.577 297.678 325.128 292.211 326.125 270.99 338.658 281.14" fill="#ddd"/>
      <polygon points="335.902 310.155 335.786 313.876 339.623 316.318 341.251 319.341 340.669 320.969 333.693 323.992 322.414 324.108 320.089 322.364 319.856 321.201 318.229 320.039 317.764 317.713 318.345 315.853 320.089 313.527 320.438 310.969 320.322 309.003 321.019 307.481 321.252 304.807 335.902 310.155" fill="#f9d4b9"/>
      <rect x="313.022" y="313.45" width="32.477" height="13.022" transform="translate(658.521 639.922) rotate(-180)" fill="#fff"/>
      <path d="M318.786,321.973c.068.722,1.2,1.97,8.225,1.97,9.878,0,10.258-2.913,10.258-2.913l2.406,1.013.633,4.369-2.216,1.14-.633,2.469-1.33.633H318.082l-.7-2.849Z" fill="#efeef3"/>
      <g>
        <path d="M336.1,303.688l-.073-.09Z" fill="#a9deef"/>
        <path d="M336.2,303.816l-.091-.117Z" fill="#a9deef"/>
        <path d="M336.3,303.95l-.072-.094Z" fill="#a9deef"/>
        <path d="M336,303.571l-.051-.06Z" fill="#a9deef"/>
        <path d="M317.449,311.659,320.172,304s-1.8,5.889-.95,6.047,2.026-1.889,2.026-1.889,1.773-3.208,4.264-3.208a15.363,15.363,0,0,1,5.783.929c1.266.549,3.3,6.742,5.361,6.079,1.182-.38,1.123-5.93,1.123-5.93-.157-.227-.334-.482-.517-.742.568.807,1.083,1.564,1.083,1.564l.57,3.039-.317,3.356.063,3.293.886,3.989a4.575,4.575,0,0,1,.127,1.52l-2.406-1.013s-.38,2.913-10.258,2.913-8.105-2.469-8.105-2.469Z" fill="#ddd"/>
        <path d="M335.932,303.488c-.021-.023-.04-.044-.057-.061C335.892,303.444,335.911,303.465,335.932,303.488Z" fill="#a9deef"/>
        <path d="M336.819,304.659l-.1-.144Z" fill="#a9deef"/>
        <path d="M337.1,305.055l-.112-.158Z" fill="#a9deef"/>
        <path d="M337.238,305.249l-.107-.151Z" fill="#a9deef"/>
        <path d="M336.423,304.115l-.089-.119Z" fill="#a9deef"/>
        <path d="M336.97,304.87l-.129-.18Z" fill="#a9deef"/>
        <path d="M336.558,304.3l-.115-.157Z" fill="#a9deef"/>
        <path d="M336.681,304.467l-.092-.127Z" fill="#a9deef"/>
      </g>
      <polygon points="340.308 326.412 338.091 327.552 337.268 321.03 339.674 322.043 340.308 326.412" fill="#e6e6e6"/>
      <path d="M300.151,52.951c.564.255.872,0,.966-.327.3,3.024,1.126,7.007,3.325,9.787a15.749,15.749,0,0,1-.6,5.78c-1.443,4.705-8.077,7.853-12.98,9.62,3.724,2.665,12.787,4.546,23.378,4.546,12.641,0,23.106-2.68,24.913-6.174-6.529-1.771-12.883-4.98-13.712-9.689a24.668,24.668,0,0,1-.315-5.7l.037-.028c2.5-2.062,2.787-10.337,2.8-10.732.04.245.073.452.091.558a.658.658,0,0,0,1.084.417,28.473,28.473,0,0,0,2.252-4.976,27.847,27.847,0,0,0,1.668-5.893c-.03-.565-.525-.649-.945-.361-.119.081-.555.493-1.079,1l0,0,.076-.748c1.779-15.789-6.894-23.684-17.012-23.684-13.009,0-20.431,10.813-17.262,25.574h0a3.122,3.122,0,0,0-.639-.334c-.5-.167-1.214.039-1.279.612-.108.962,1.112,4.058,2.224,6.5S299.564,52.687,300.151,52.951Zm28.69-10.012,0,0,0,0Z" fill="#6d472e"/>
      <path d="M362.5,119.75c-1.737-9.663-4.191-20.435-5.658-26.641a30.092,30.092,0,0,0-2.252-9.119h0c-.042-.086-.084-.168-.127-.251l-.032-.064q-.109-.21-.222-.407l-.03-.05q-.1-.166-.2-.323l-.025-.042h0A8.129,8.129,0,0,0,353,81.617c-3.087-3.239-3.211-3.009-11.654-4.892-.727-.162-1.458-.343-2.188-.541-1.807,3.494-12.272,6.174-24.913,6.174-10.591,0-19.654-1.881-23.378-4.546-1.614.582-3.041,1.015-4.032,1.3-3.705,1.081-7.727,1.453-10.858,4.344l-.078.074q-.124.118-.241.242c-.036.039-.072.078-.107.117s-.061.064-.089.1h.007c-.06.07-.122.139-.178.212a13.811,13.811,0,0,0-2.133,4.562h0s-5.544,16.187-9.819,30.987A199.839,199.839,0,0,0,257.5,146.8l3.124,6.242h9.241l13.172-40.753.341.682,3.037,8.006s5,21.349,5,26.352c0,4.554,3.674,8.992,3.674,11.508l42.755-.056c-1.223-3.669,2.384-8.006,2.384-11.675s2.537-25.351,2.537-25.351l1.334-3.669,10.044,34.956h1.15l7.825.013,3.074-6.42S365.075,134.1,362.5,119.75Z" fill="#6d472e"/>
      <path d="M340.231,147.108c0,18.1,13.978,32.645,13.978,49.992,0,10.141-2.343,15.156-2.343,15.156H279.059A59.915,59.915,0,0,1,277,197.945c0-19.66,14.415-33.4,14.415-50.6Z" fill="#334a80"/>
      <path d="M261.875,116.15C268.617,107.434,272.317,85.44,277,82.6s13.484-5.262,13.484-5.262,3.89,5.016,23.754,5.016c23.687,0,25.167-6.866,25.167-6.866s9.723,2.041,13.32,4.851c3.947,3.083,8.12,29.573,12.5,34.248-1.607,5.113-7.322,6.866-15.923,10.664-9.815,4.335-57.875,4.544-67.618,4.544C275.4,123.755,264.424,122.152,261.875,116.15Z" fill="#0069e0"/>
      <path d="M314.1,16.348c-13.009,0-20.431,10.813-17.262,25.574a53.5,53.5,0,0,0,8.845,11.751l-.026.03a3.916,3.916,0,0,1,1.6,4.563,17.724,17.724,0,0,0,4.471-3.085h0a18.364,18.364,0,0,1,3,5.346,7.679,7.679,0,0,0,3.247-5.169c3.832,1.518,4.659,2.867,4.659,2.867a12.013,12.013,0,0,1,1.671-4.991,33.5,33.5,0,0,0,4.938-10.689l1.791-1.765.076-.748C332.893,24.243,324.22,16.348,314.1,16.348Z" fill="#3a2c26"/>
      <path d="M314.334,7.372c7.31.173,12.507,8.823,6.048,12.262s-10.127,3.075-14.373-.739C300.772,14.191,308,7.223,314.334,7.372Z" fill="#44342c"/>
    </g>
    <g id="her_chair" data-name="her chair">
      <g>
        <circle cx="356.199" cy="324.488" r="6.167" fill="#e6e6e6"/>
        <polygon points="356.199 315.855 348.679 313.644 350.032 324.488 356.199 324.488 356.199 315.855" fill="#e6e6e6"/>
        <path d="M356.2,317.582h0a6.907,6.907,0,0,1,6.907,6.907H356.2Z" fill="#e6e6e6"/>
        <polygon points="356.199 315.855 348.955 315.855 348.679 313.644 356.199 315.855" fill="#f6f6f6"/>
      </g>
      <rect x="311.181" y="249.256" width="6.167" height="24.666" fill="#eee"/>
      <path d="M361.015,223.361a1.105,1.105,0,0,1-1.119,1.228H268.631a1.079,1.079,0,0,1-1.094-1.225l13.7-120.881a1.418,1.418,0,0,1,1.372-1.225h65.777a1.384,1.384,0,0,1,1.348,1.228Z" fill="#f6f6f6"/>
      <polygon points="329.064 224.589 299.464 224.589 262.464 224.589 299.464 234.456 299.464 244.323 304.397 249.256 324.13 249.256 329.064 244.323 329.064 234.456 366.063 224.589 329.064 224.589" fill="#e6e6e6"/>
      <polygon points="241.498 315.855 248.898 314.601 247.665 324.488 241.498 324.488 241.498 315.855" fill="#e6e6e6"/>
      <path d="M241.5,317.582h0a6.907,6.907,0,0,0-6.907,6.907H241.5Z" fill="#e6e6e6"/>
      <g>
        <circle cx="319.042" cy="324.488" r="6.167" fill="#e6e6e6"/>
        <polygon points="319.042 315.855 311.798 315.855 312.875 324.488 319.042 324.488 319.042 315.855" fill="#e6e6e6"/>
        <path d="M319.042,317.582h0a6.907,6.907,0,0,1,6.907,6.907h-6.907Z" fill="#e6e6e6"/>
      </g>
      <g>
        <circle cx="272.329" cy="324.488" r="6.167" fill="#e6e6e6"/>
        <polygon points="272.322 315.855 279.841 313.646 278.489 324.488 272.322 324.488 272.322 315.855" fill="#e6e6e6"/>
        <path d="M272.322,317.582h0a6.907,6.907,0,0,0-6.907,6.907h6.907Z" fill="#e6e6e6"/>
      </g>
      <polygon points="314.264 308.455 241.498 315.855 241.498 309.686 314.264 291.189 387.03 309.686 387.03 315.855 314.264 308.455" fill="#e6e6e6"/>
      <polygon points="314.264 291.189 314.264 308.455 272.329 315.855 272.329 309.686 314.264 291.189" fill="#e6e6e6"/>
      <polygon points="314.264 291.189 314.264 308.455 356.199 315.855 356.199 309.686 314.264 291.189" fill="#f6f6f6"/>
      <g>
        <circle cx="241.498" cy="324.488" r="6.167" fill="#e6e6e6"/>
        <polygon points="241.498 315.855 248.741 315.855 248.898 314.601 241.498 315.855" fill="#e6e6e6"/>
      </g>
      <polygon points="272.329 315.855 279.565 315.855 279.841 313.646 272.329 315.855" fill="#e6e6e6"/>
      <g>
        <circle cx="387.03" cy="324.488" r="6.167" fill="#e6e6e6"/>
        <polygon points="387.03 315.855 379.63 314.601 380.863 324.488 387.03 324.488 387.03 315.855" fill="#e6e6e6"/>
        <path d="M387.03,317.582h0a6.907,6.907,0,0,1,6.907,6.907H387.03Z" fill="#e6e6e6"/>
        <polygon points="387.03 315.855 379.787 315.855 379.63 314.601 387.03 315.855" fill="#e6e6e6"/>
      </g>
      <rect x="308.097" y="265.683" width="12.333" height="27.133" fill="#e6e6e6"/>
      <polygon points="316.731 315.855 311.797 315.855 310.564 292.816 317.964 292.816 316.731 315.855" fill="#e6e6e6"/>
      <path d="M373.463,215.956a31.354,31.354,0,0,0-1.158-8.633H256.222a32.764,32.764,0,0,0,0,17.266H372.305A31.354,31.354,0,0,0,373.463,215.956Z" fill="#f6f6f6"/>
    </g>
  </g>
</svg>
