<svg xmlns="http://www.w3.org/2000/svg" width="1440" height="726" viewBox="0 0 1440 726">
  <title>jumbotron</title>
  <g>
    <g>
      <path d="M1058,158h-36v6h-6v28.5a4.458,4.458,0,0,0,6,4.225V197h34.5a4.5,4.5,0,0,0,4.5-4.5V158Zm-36,34.5a1.5,1.5,0,0,1-3,0V167h3Zm36,0a1.5,1.5,0,0,1-1.5,1.5h-31.775a4.469,4.469,0,0,0,.275-1.5V161h33Z" fill="#52ccbd"/>
      <path d="M1040,176h-12v9h12Zm-3,6h-6v-3h6Z" fill="#52ccbd"/>
      <rect x="1043" y="176" width="12" height="3" fill="#52ccbd"/>
      <rect x="1043" y="182" width="12" height="3" fill="#52ccbd"/>
      <rect x="1028" y="188" width="27" height="3" fill="#52ccbd"/>
      <path d="M1055,164h-27v9h27Zm-3,6h-21v-3h21Z" fill="#52ccbd"/>
    </g>
    <rect x="1013" y="155" width="48" height="48" fill="none"/>
  </g>
  <g>
    <path d="M1004,338c-6.174,0-10,1.338-10,8h2c0-4.149,1.155-6,8-6s8,1.851,8,6h2C1014,339.338,1010.174,338,1004,338Z" fill="#17abe5"/>
    <path d="M1004,336a5.979,5.979,0,0,0,5.937-5.38,12.226,12.226,0,0,1-2-1.228A3.939,3.939,0,0,1,1008,330a4.079,4.079,0,1,1-2.894-3.825,8.778,8.778,0,0,1-.859-2.15c-.084,0-.163-.025-.247-.025a6,6,0,0,0,0,12Z" fill="#17abe5"/>
    <path d="M1016,314c-5.514,0-10,3.589-10,8,0,3.164,2.366,6.032,5.954,7.3a6.011,6.011,0,0,1,.046.7,7.807,7.807,0,0,1-.378,2.29l-.538,1.782,1.783-.535a10.011,10.011,0,0,0,5.26-3.735c4.589-.789,7.873-4.014,7.873-7.8C1026,317.589,1021.514,314,1016,314Zm1.412,13.888-.455.061-.25.386a7.9,7.9,0,0,1-2.757,2.581A8.6,8.6,0,0,0,1014,330a9.891,9.891,0,0,0-.161-1.627l-.1-.622-.605-.175c-3.069-.89-5.131-3.132-5.131-5.576,0-3.309,3.589-6,8-6s8,2.691,8,6C1024,324.9,1021.229,327.373,1017.412,327.888Z" fill="#17abe5"/>
  </g>
  <path d="M428,309H398a2.981,2.981,0,0,0-2.147.917l-5.937,5.936A2.986,2.986,0,0,0,389,318v36a3,3,0,0,0,3,3h30a3,3,0,0,0,3-3V318a3,3,0,0,0-3-3H395l3-3h30v39a3,3,0,0,0,3-3V312A3,3,0,0,0,428,309Zm-6,45H392V318h30Z" fill="#517ed3"/>
  <g opacity="0.5">
    <g>
      <path d="M1189.5,272.928c-3.378-2.291-12.163-3.928-22.5-3.928v42c10.3,0,19.091,1.623,22.493,3.9v-.037l0,.045c3.394-2.283,12.189-3.91,22.5-3.91V269C1201.663,269,1192.878,270.637,1189.5,272.928Zm-19.5-.879c8.883.29,15.564,1.834,17.816,3.362l.184.125v35.329c-4.237-1.586-10.641-2.6-18-2.821Zm39,36c-7.36.217-13.763,1.235-18,2.821V275.536l.184-.125c2.252-1.528,8.933-3.072,17.816-3.362Z" fill="#517ed3"/>
      <path d="M1206,278.205a61.957,61.957,0,0,0-12,1.807v3.124a55.939,55.939,0,0,1,12-1.923Z" fill="#517ed3"/>
      <path d="M1206,296.205a61.957,61.957,0,0,0-12,1.807v3.124a55.939,55.939,0,0,1,12-1.923Z" fill="#517ed3"/>
      <path d="M1206,290.205a61.957,61.957,0,0,0-12,1.807v3.124a55.939,55.939,0,0,1,12-1.923Z" fill="#517ed3"/>
      <path d="M1206,284.205a61.957,61.957,0,0,0-12,1.807v3.124a55.939,55.939,0,0,1,12-1.923Z" fill="#517ed3"/>
    </g>
    <rect x="1164" y="269" width="48" height="48" fill="none"/>
  </g>
  <g>
    <rect x="452" y="455" width="24" height="2" fill="#4eb236"/>
    <path d="M469.414,429l-3.707-3.707a1,1,0,0,0-1.414,1.414L466.586,429H450l2,12h4v12h2V435h12v18h2V441h4l2-12Zm4.892,10H472v-6H456v6h-2.306l-1.333-8h23.278Z" fill="#4eb236"/>
  </g>
  <path d="M75,525v1.99A5.612,5.612,0,0,0,70.75,525a6.005,6.005,0,0,0,0,12,5.651,5.651,0,0,0,4.6-2.435C75.978,535.922,77.474,537,80,537c4.121,0,7-3.29,7-8,0-7.72-7.178-14-16-14a16,16,0,1,0,10.613,27.951l-1.328-1.494A13.993,13.993,0,1,1,71,517c7.72,0,14,5.383,14,12,0,2.986-1.546,6-5,6-1.879,0-3-.748-3-2v-8Zm-4,10a4,4,0,1,1,4-4A4,4,0,0,1,71,535Z" fill="#f66" opacity="0.25"/>
  <g opacity="0.5">
    <path d="M324,441.237c-4.5-3.054-16.217-5.237-30-5.237v56c13.738,0,25.454,2.164,29.99,5.2l0-.05,0,.06c4.525-3.044,16.252-5.213,30-5.213V436C340.217,436,328.5,438.183,324,441.237ZM306,448v-7.383a76.787,76.787,0,0,1,8,1.255V476.6l-1.81-1.184-1.642-1.074-1.855.64-2.693.932Zm-8-7.935c1.378.045,2.706.117,4,.2v41.262l8-2.766L318,484V442.913a15.5,15.5,0,0,1,3.755,1.635l.245.166V491.82c-5.649-2.114-14.188-3.472-24-3.761Zm52,47.994c-9.814.289-18.351,1.646-24,3.761V444.714l.245-.166c3-2.037,11.911-4.1,23.755-4.483Z" fill="#52ccbd"/>
    <rect x="290" y="436" width="64" height="64" fill="none"/>
  </g>
  <g>
    <path d="M371.709,180.705l1.084-3.578A27.974,27.974,0,0,0,374,169a27.372,27.372,0,0,0-.707-6.162C366.105,157.889,362,150.7,362,143c0-14.336,14.355-26,32-26s32,11.664,32,26-14.355,26-32,26q-1.512,0-2.986-.111a31.68,31.68,0,0,1-15.727,10.732ZM394,121c-15.439,0-28,9.869-28,22,0,6.557,3.7,12.73,10.148,16.936l.655.425.191.758a31.53,31.53,0,0,1,.526,13.4,27.85,27.85,0,0,0,10.966-8.909l.68-.92,1.137.118A35.392,35.392,0,0,0,394,165c15.439,0,28-9.869,28-22S409.439,121,394,121Z" fill="#f66"/>
    <rect x="362" y="117" width="64" height="64" fill="none"/>
  </g>
  <path d="M1076,408v48h64V408Zm32,29.172L1082.828,412h50.344Zm0,5.656,8-8L1133.172,452h-50.344L1100,434.828Zm28-28v34.344L1118.828,432ZM1097.172,432,1080,449.172V414.828Z" fill="#f66" opacity="0.5"/>
  <g>
    <path d="M963,441v52h52V441Zm32,4v12H983V445Zm0,16v12H983V461Zm-28-16h12v12H967Zm0,16h12v12H967Zm0,28V477h12v12Zm16,0V477h12v12Zm28,0H999V477h12Zm0-16H999V461h12Zm0-16H999V445h12Z" fill="#517ed3"/>
    <rect x="955" y="437" width="64" height="64" fill="none"/>
  </g>
  <g opacity="0.25">
    <path d="M165,398a14.936,14.936,0,0,0-11.963,23.963l2.125-2.125a12,12,0,1,1,19.676,0l2.125,2.125A14.936,14.936,0,0,0,165,398Z" fill="#999"/>
    <path d="M165,389a23.964,23.964,0,0,0-18.381,39.382l2.119-2.12a21,21,0,1,1,32.522,0l2.12,2.12A23.961,23.961,0,0,0,165,389Z" fill="#999"/>
    <path d="M153.56,434.1l.055-.1H153.4C153.454,434.031,153.5,434.072,153.56,434.1Z" fill="#999"/>
    <path d="M176.483,434.081c.044-.025.082-.057.126-.081h-.17Z" fill="#999"/>
    <path d="M171,413a6,6,0,1,0-6,6A6,6,0,0,0,171,413Zm-9,0a3,3,0,1,1,3,3A3,3,0,0,1,162,413Z" fill="#999"/>
    <path d="M165,422c-5.4,0-9,1.276-9,7.5V437h3v-7.5c0-3.129.567-4.5,6-4.5s6,1.371,6,4.5V437h3v-7.5C174,423.276,170.4,422,165,422Z" fill="#999"/>
  </g>
  <g opacity="0.5">
    <g>
      <path d="M1280,403h-22a2,2,0,0,0-2,2v2h-1a1,1,0,0,0,0,2h1v2h-1a1,1,0,0,0,0,2h1v2h-1a1,1,0,0,0,0,2h1v2h-1a1,1,0,0,0,0,2h1v2h-1a1,1,0,0,0,0,2h1v2h-1a1,1,0,0,0,0,2h1v2a2,2,0,0,0,2,2h22a2,2,0,0,0,2-2V405A2,2,0,0,0,1280,403Zm-22,28v-2h1a1,1,0,0,0,0-2h-1v-2h1a1,1,0,0,0,0-2h-1v-2h1a1,1,0,0,0,0-2h-1v-2h1a1,1,0,0,0,0-2h-1v-2h1a1,1,0,0,0,0-2h-1v-2h1a1,1,0,0,0,0-2h-1v-2h22v16h-10v10Zm14-8h6.585L1272,429.586Zm8,8h-6.586l6.586-6.586Z" fill="#4eb236"/>
      <rect x="1264" y="411" width="12" height="2" fill="#4eb236"/>
      <rect x="1266" y="415" width="8" height="2" fill="#4eb236"/>
    </g>
    <rect x="1252" y="403" width="32" height="32" fill="none"/>
  </g>
  <g opacity="0.25">
    <g>
      <path d="M1297,123h-56a4,4,0,0,0-4,4v44a4,4,0,0,0,4,4h56a4,4,0,0,0,4-4V127A4,4,0,0,0,1297,123Zm0,48h-56V143h56Zm0-32h-56V127h56Z" fill="#17abe5"/>
      <rect x="1269" y="147" width="24" height="4" fill="#17abe5"/>
      <rect x="1269" y="155" width="24" height="4" fill="#17abe5"/>
      <rect x="1269" y="163" width="24" height="4" fill="#17abe5"/>
      <path d="M1265,147h-20v20h20Zm-4,16h-12V151h12Z" fill="#17abe5"/>
      <circle cx="1247" cy="133" r="2" fill="#17abe5"/>
      <circle cx="1255" cy="133" r="2" fill="#17abe5"/>
      <circle cx="1263" cy="133" r="2" fill="#17abe5"/>
    </g>
    <rect x="1237" y="119" width="64" height="64" fill="none"/>
  </g>
  <g opacity="0.5">
    <g>
      <polygon points="160.172 132 139 153.172 139 154.828 160.172 176 163 173.172 143.828 154 163 134.828 160.172 132" fill="#17abe5"/>
      <polygon points="177.828 132 175 134.828 194.172 154 175 173.172 177.828 176 199 154.828 199 153.172 177.828 132" fill="#17abe5"/>
    </g>
    <rect x="135" y="124" width="64" height="64" fill="none"/>
  </g>
  <g opacity="0.25">
    <path d="M1364.492,530c0-5.471-5.6-7.6-10.539-9.479-5.356-2.038-8.867-3.627-8.867-7.021,0-2.177.492-4.5,6.375-4.5,1.583,0,6.75.428,6.75,5.937h3c0-5.345-3.919-8.937-9.75-8.937-6.221,0-9.375,2.524-9.375,7.5a6.979,6.979,0,0,0,1.147,3.9,7.217,7.217,0,0,0-3.725,6.6c0,5.481,5.642,7.632,10.621,9.527,5.363,2.044,8.879,3.633,8.879,6.973,0,1.113,0,4.5-6.985,4.5-1.583,0-6.75-.428-6.75-5.937h-3c0,5.345,3.919,8.937,9.75,8.937,9.012,0,9.985-5.246,9.985-7.5a6.85,6.85,0,0,0-1.367-4.146A6.993,6.993,0,0,0,1364.492,530Zm-21.984-6a4.319,4.319,0,0,1,2.886-4.332,30.56,30.56,0,0,0,7.492,3.657c5.2,1.977,8.606,3.509,8.606,6.675a4.275,4.275,0,0,1-3.141,4.119,33.2,33.2,0,0,0-7.154-3.394C1345.949,528.724,1342.508,527.176,1342.508,524Z" fill="#bc976f"/>
    <rect x="1328" y="503" width="48" height="48" fill="none"/>
  </g>
  <g opacity="0.5">
    <path d="M233,256v48h36V256Zm33,45H236V259h30Z" fill="#17abe5"/>
    <path d="M263,262H239v12h24Zm-3,9H242v-6h18Z" fill="#17abe5"/>
    <rect x="239" y="277" width="15" height="3" fill="#17abe5"/>
    <rect x="239" y="283" width="12" height="3" fill="#17abe5"/>
    <rect x="239" y="289" width="15" height="3" fill="#17abe5"/>
    <rect x="239" y="295" width="12" height="3" fill="#17abe5"/>
    <rect x="257" y="277" width="6" height="3" fill="#17abe5"/>
    <rect x="257" y="283" width="6" height="3" fill="#17abe5"/>
    <rect x="257" y="289" width="6" height="3" fill="#17abe5"/>
  </g>
  <g opacity="0.25">
    <path d="M1361,290v39h42V290Zm30,3v15h-18V293Zm-27,0h6v6h-6Zm0,9h6v6h-6Zm0,9h6v6h-6Zm0,15v-6h6v6Zm9,0V311h18v15Zm27,0h-6v-6h6Zm0-9h-6v-6h6Zm0-9h-6v-6h6Zm0-9h-6v-6h6Z" fill="#777"/>
    <rect x="1358" y="287" width="48" height="48" fill="none"/>
  </g>
  <g opacity="0.25">
    <path d="M53,318v8H51v-8h2m-9-14-15,6v4H59v-4l-15-6Zm-13,8v-.646l13-5.2,13,5.2V312Zm24,4H49v12h6V316Zm-8,0H41v12h6V316Zm-4,10v-8h2v8Zm-4-10H33v12h6V316Zm-4,10v-8h2v8Zm22,4H31a2,2,0,0,0-2,2v4H59v-4a2,2,0,0,0-2-2Zm-26,4v-2H57v2Z" fill="#bc976f"/>
    <rect x="27" y="304" width="32" height="32" fill="none"/>
  </g>
</svg>
