<svg xmlns="http://www.w3.org/2000/svg" width="444" height="335" viewBox="0 0 444 335">
  <title>organize</title>
  <g style="isolation: isolate">
    <g>
      <path d="M6,0H438a6,6,0,0,1,6,6V26a0,0,0,0,1,0,0H0a0,0,0,0,1,0,0V6A6,6,0,0,1,6,0Z" fill="#ebebeb"/>
      <circle cx="13" cy="13" r="5" fill="#ebebeb" style="mix-blend-mode: multiply"/>
      <circle cx="29" cy="13" r="5" fill="#ebebeb" style="mix-blend-mode: multiply"/>
      <circle cx="45" cy="13" r="5" fill="#ebebeb" style="mix-blend-mode: multiply"/>
      <path d="M324,29H444a0,0,0,0,1,0,0V329a6,6,0,0,1-6,6H324a0,0,0,0,1,0,0V29A0,0,0,0,1,324,29Z" fill="#f6f6f6"/>
      <rect x="123" y="29" width="198" height="18" transform="translate(444 76) rotate(180)" fill="#f6f6f6"/>
      <rect x="123" y="65" width="198" height="18" transform="translate(444 148) rotate(180)" fill="#f6f6f6"/>
      <rect x="123" y="101" width="198" height="18" transform="translate(444 220) rotate(180)" fill="#f6f6f6"/>
      <rect x="123" y="137" width="198" height="18" transform="translate(444 292) rotate(180)" fill="#f6f6f6"/>
      <rect x="123" y="173" width="198" height="18" transform="translate(444 364) rotate(180)" fill="#f6f6f6"/>
      <rect x="123" y="209" width="198" height="18" transform="translate(444 436) rotate(180)" fill="#f6f6f6"/>
      <rect x="123" y="245" width="198" height="18" transform="translate(444 508) rotate(180)" fill="#f6f6f6"/>
      <rect x="123" y="281" width="198" height="18" transform="translate(444 580) rotate(180)" fill="#f6f6f6"/>
      <rect x="123" y="317" width="198" height="18" transform="translate(444 652) rotate(180)" fill="#f6f6f6"/>
      <rect x="368" y="57" width="40" height="6" fill="#ebebeb"/>
      <rect x="342" y="57" width="18" height="6" fill="#ebebeb"/>
      <rect x="368" y="73" width="56" height="6" fill="#ebebeb"/>
      <rect x="336" y="73" width="24" height="6" fill="#ebebeb"/>
      <rect x="368" y="89" width="48" height="6" fill="#ebebeb"/>
      <rect x="340" y="89" width="20" height="6" fill="#ebebeb"/>
      <rect x="368" y="105" width="64" height="6" fill="#ebebeb"/>
      <rect x="336" y="105" width="24" height="6" fill="#ebebeb"/>
      <rect x="368" y="121" width="56" height="6" fill="#ebebeb"/>
      <rect x="340" y="121" width="20" height="6" fill="#ebebeb"/>
      <rect x="368" y="137" width="64" height="6" fill="#ebebeb"/>
      <rect x="332" y="137" width="28" height="6" fill="#ebebeb"/>
      <rect x="368" y="153" width="52" height="6" fill="#ebebeb"/>
      <rect x="340" y="153" width="20" height="6" fill="#ebebeb"/>
      <rect x="368" y="169" width="60" height="6" fill="#ebebeb"/>
      <rect x="336" y="169" width="24" height="6" fill="#ebebeb"/>
      <rect x="368" y="185" width="48" height="6" fill="#ebebeb"/>
      <rect x="344" y="185" width="16" height="6" fill="#ebebeb"/>
      <rect x="368" y="201" width="40" height="6" fill="#ebebeb"/>
      <rect x="340" y="201" width="20" height="6" fill="#ebebeb"/>
      <rect x="368" y="217" width="52" height="6" fill="#ebebeb"/>
      <rect x="336" y="217" width="24" height="6" fill="#ebebeb"/>
      <rect x="368" y="233" width="36" height="6" fill="#ebebeb"/>
      <rect x="342" y="233" width="18" height="6" fill="#ebebeb"/>
      <path d="M0,192H120a0,0,0,0,1,0,0V335a0,0,0,0,1,0,0H6a6,6,0,0,1-6-6V192A0,0,0,0,1,0,192Z" fill="#f6f6f6"/>
      <rect x="8" y="221" width="42" height="6" rx="3" ry="3" fill="#009980"/>
      <rect x="33" y="257" width="35" height="6" rx="3" ry="3" fill="#0069e0"/>
      <rect x="65" y="239" width="35" height="6" rx="3" ry="3" fill="#999"/>
      <rect x="54" y="221" width="21" height="6" rx="3" ry="3" fill="#f66"/>
      <rect x="40" y="239" width="21" height="6" rx="3" ry="3" fill="#a28ae5"/>
      <rect x="8" y="257" width="21" height="6" rx="3" ry="3" fill="#a6507b"/>
      <rect x="79" y="221" width="28" height="6" rx="3" ry="3" fill="#576dd9"/>
      <rect x="8" y="239" width="28" height="6" rx="3" ry="3" fill="#5fb236"/>
      <rect x="8" y="275" width="28" height="6" rx="3" ry="3" transform="translate(44 555.999) rotate(-180)" fill="#0069e0"/>
      <rect x="58" y="275" width="35" height="6" rx="3" ry="3" fill="#0069e0"/>
      <rect x="40" y="275" width="14" height="6" rx="3" ry="3" fill="#0069e0"/>
      <rect x="72" y="257" width="35" height="6" rx="3" ry="3" fill="#0069e0"/>
      <g>
        <path d="M11.553,209h-.792v-7.062H8.154v-.727H14.16v.727H11.553Z" fill="#bbb"/>
        <path d="M17.185,205.842v-.132a1.172,1.172,0,0,0-1.32-1.331,2.272,2.272,0,0,0-1.573.605l-.44-.518a2.909,2.909,0,0,1,2.178-.748,2.375,2.375,0,0,1,.721.11,1.637,1.637,0,0,1,.6.335,1.667,1.667,0,0,1,.407.567,1.963,1.963,0,0,1,.154.813v2.3q0,.3.028.622T18,209h-.7c-.022-.125-.039-.26-.05-.407s-.016-.289-.016-.429h-.022a1.966,1.966,0,0,1-.753.742,2.282,2.282,0,0,1-1.062.226,2.326,2.326,0,0,1-.66-.094,1.675,1.675,0,0,1-.567-.285,1.464,1.464,0,0,1-.4-.474,1.382,1.382,0,0,1-.148-.654,1.41,1.41,0,0,1,.325-.984,1.984,1.984,0,0,1,.814-.533,4.015,4.015,0,0,1,1.045-.221q.555-.044,1.018-.044Zm-.374.594q-.275,0-.687.028a3.946,3.946,0,0,0-.792.132,1.741,1.741,0,0,0-.649.324.739.739,0,0,0-.27.605.857.857,0,0,0,.1.435.878.878,0,0,0,.281.3,1.2,1.2,0,0,0,.391.165,1.965,1.965,0,0,0,.434.049,1.656,1.656,0,0,0,.688-.132,1.4,1.4,0,0,0,.781-.886,2.175,2.175,0,0,0,.093-.644v-.374Z" fill="#bbb"/>
        <path d="M19.99,210.034a2.322,2.322,0,0,0,.831.688,2.493,2.493,0,0,0,1.139.259,2.438,2.438,0,0,0,.935-.16,1.618,1.618,0,0,0,.622-.435,1.674,1.674,0,0,0,.341-.644,2.88,2.88,0,0,0,.1-.786v-.924h-.022a1.986,1.986,0,0,1-.858.748,2.65,2.65,0,0,1-1.067.22,2.776,2.776,0,0,1-1.05-.2,2.669,2.669,0,0,1-.853-.544,2.5,2.5,0,0,1-.572-.831,2.609,2.609,0,0,1-.209-1.045,2.738,2.738,0,0,1,.2-1.045,2.69,2.69,0,0,1,.544-.847,2.449,2.449,0,0,1,.825-.566,2.654,2.654,0,0,1,1.05-.2,2.935,2.935,0,0,1,.49.044,2.316,2.316,0,0,1,.517.154,2.38,2.38,0,0,1,.512.3,2.409,2.409,0,0,1,.473.489h.022v-.858h.726v5.1a4.129,4.129,0,0,1-.1.891,2.191,2.191,0,0,1-.407.869,2.309,2.309,0,0,1-.841.66,3.22,3.22,0,0,1-1.408.264,3.531,3.531,0,0,1-1.375-.253,3.2,3.2,0,0,1-1.1-.78Zm.132-3.674a1.971,1.971,0,0,0,.148.764,2.007,2.007,0,0,0,.407.628,1.975,1.975,0,0,0,.6.429,1.777,1.777,0,0,0,.753.159,2.016,2.016,0,0,0,1.386-.544,1.761,1.761,0,0,0,.423-.622,2,2,0,0,0,.138-.813,2.181,2.181,0,0,0-.132-.765,1.835,1.835,0,0,0-.385-.627,1.863,1.863,0,0,0-.616-.43,2.016,2.016,0,0,0-.814-.159,1.792,1.792,0,0,0-.753.159,1.978,1.978,0,0,0-.6.43,2.013,2.013,0,0,0-.407.627A1.98,1.98,0,0,0,20.122,206.36Z" fill="#bbb"/>
        <path d="M29.043,205.073a1.34,1.34,0,0,0-.44-.506,1.164,1.164,0,0,0-.671-.187,1.7,1.7,0,0,0-.38.044,1.152,1.152,0,0,0-.346.138.766.766,0,0,0-.248.236.63.63,0,0,0-.094.353.583.583,0,0,0,.253.527,2.464,2.464,0,0,0,.759.286l.737.176a1.753,1.753,0,0,1,.9.49,1.266,1.266,0,0,1,.358.918,1.41,1.41,0,0,1-.622,1.216,1.938,1.938,0,0,1-.644.28,3.123,3.123,0,0,1-.737.088,2.71,2.71,0,0,1-1.105-.226,2.039,2.039,0,0,1-.875-.775l.627-.429a1.721,1.721,0,0,0,.555.561,1.475,1.475,0,0,0,.8.209,2.049,2.049,0,0,0,.44-.049,1.293,1.293,0,0,0,.39-.154.835.835,0,0,0,.275-.27.707.707,0,0,0,.1-.385.6.6,0,0,0-.286-.556,2.539,2.539,0,0,0-.693-.27l-.7-.165c-.088-.022-.208-.059-.357-.11a1.68,1.68,0,0,1-.44-.23,1.391,1.391,0,0,1-.368-.4,1.133,1.133,0,0,1-.154-.61,1.442,1.442,0,0,1,.16-.693,1.365,1.365,0,0,1,.429-.484,1.99,1.99,0,0,1,.61-.28,2.642,2.642,0,0,1,.7-.094,2.412,2.412,0,0,1,1,.209,1.475,1.475,0,0,1,.715.715Z" fill="#bbb"/>
      </g>
      <rect x="281" y="35" width="32" height="6" fill="#ebebeb"/>
      <rect x="217" y="53" width="48" height="6" fill="#ebebeb"/>
      <rect x="217" y="89" width="40" height="6" fill="#ebebeb"/>
      <rect x="217" y="143" width="48" height="6" fill="#ebebeb"/>
      <rect x="217" y="179" width="40" height="6" fill="#ebebeb"/>
      <rect x="217" y="233" width="48" height="6" fill="#ebebeb"/>
      <rect x="217" y="287" width="40" height="6" fill="#ebebeb"/>
      <rect x="131" y="35" width="60" height="6" fill="#ebebeb"/>
      <rect x="131" y="71" width="70" height="6" fill="#ebebeb"/>
      <rect x="131" y="125" width="48" height="6" fill="#ebebeb"/>
      <rect x="131" y="161" width="60" height="6" fill="#ebebeb"/>
      <rect x="131" y="233" width="70" height="6" fill="#ebebeb"/>
      <rect x="131" y="269" width="56" height="6" fill="#ebebeb"/>
      <rect x="281" y="71" width="32" height="6" fill="#ebebeb"/>
      <rect x="281" y="125" width="32" height="6" fill="#ebebeb"/>
      <rect x="281" y="197" width="32" height="6" fill="#ebebeb"/>
      <rect x="281" y="251" width="32" height="6" fill="#ebebeb"/>
      <g>
        <rect y="29" width="120" height="160" fill="#f6f6f6"/>
        <rect x="42" y="43" width="56" height="6" fill="#0069e0"/>
        <rect x="52" y="63" width="36" height="6" fill="#0069e0"/>
        <rect x="42" y="103" width="41" height="6" fill="#0069e0"/>
        <polygon points="26.928 66 20 70 20 62 26.928 66" fill="#0069e0"/>
        <rect x="52" y="83" width="48" height="6" fill="#0069e0"/>
        <polygon points="12 49.928 8 43 16 43 12 49.928" fill="#0069e0"/>
        <rect x="42" y="123" width="51" height="6" fill="#0069e0"/>
        <path d="M35,41H30l-.724-1.447A1,1,0,0,0,28.382,39H25.618a1,1,0,0,0-.894.553L24,41H23a1,1,0,0,0-1,1v9a1,1,0,0,0,1,1H35a1,1,0,0,0,1-1V42A1,1,0,0,0,35,41Zm0,10H23V44H35Zm0-8H23V42h1a1,1,0,0,0,.894-.553L25.618,40h2.764l.724,1.447A1,1,0,0,0,30,42h5Z" fill="#0069e0"/>
        <path d="M28.382,40l.724,1.447A1,1,0,0,0,30,42h5v1H23V42h1a1,1,0,0,0,.894-.553L25.618,40h2.764" fill="#0069e0" opacity="0.15"/>
        <rect x="23" y="44" width="12" height="7" fill="#0069e0" opacity="0.3"/>
        <path d="M45,81H40l-.724-1.447A1,1,0,0,0,38.382,79H35.618a1,1,0,0,0-.894.553L34,81H33a1,1,0,0,0-1,1v9a1,1,0,0,0,1,1H45a1,1,0,0,0,1-1V82A1,1,0,0,0,45,81Zm0,10H33V84H45Zm0-8H33V82h1a1,1,0,0,0,.894-.553L35.618,80h2.764l.724,1.447A1,1,0,0,0,40,82h5Z" fill="#0069e0"/>
        <path d="M38.382,80l.724,1.447A1,1,0,0,0,40,82h5v1H33V82h1a1,1,0,0,0,.894-.553L35.618,80h2.764" fill="#0069e0" opacity="0.15"/>
        <rect x="33" y="84" width="12" height="7" fill="#0069e0" opacity="0.3"/>
        <path d="M45,61H40l-.724-1.447A1,1,0,0,0,38.382,59H35.618a1,1,0,0,0-.894.553L34,61H33a1,1,0,0,0-1,1v9a1,1,0,0,0,1,1H45a1,1,0,0,0,1-1V62A1,1,0,0,0,45,61Zm0,10H33V64H45Zm0-8H33V62h1a1,1,0,0,0,.894-.553L35.618,60h2.764l.724,1.447A1,1,0,0,0,40,62h5Z" fill="#0069e0"/>
        <path d="M38.382,60l.724,1.447A1,1,0,0,0,40,62h5v1H33V62h1a1,1,0,0,0,.894-.553L35.618,60h2.764" fill="#0069e0" opacity="0.15"/>
        <rect x="33" y="64" width="12" height="7" fill="#0069e0" opacity="0.3"/>
        <g>
          <g opacity="0.3">
            <path d="M28.046,112.5l-.131-.911a.5.5,0,0,0-.357-.384,5.365,5.365,0,0,1-1.22-.5.5.5,0,0,0-.524.019l-.814.543-1.27-1.341.55-.735a.5.5,0,0,0,.019-.524,5.365,5.365,0,0,1-.5-1.22.5.5,0,0,0-.384-.357l-.961-.192.05-1.846.911-.131a.5.5,0,0,0,.384-.357,5.37,5.37,0,0,1,.5-1.22.5.5,0,0,0-.019-.524L23.737,102l1.341-1.27.735.55a.5.5,0,0,0,.277.084.5.5,0,0,0,.247-.065,5.365,5.365,0,0,1,1.22-.5.5.5,0,0,0,.357-.384l.192-.961,1.846.05.131.911a.5.5,0,0,0,.357.384,5.37,5.37,0,0,1,1.22.5.5.5,0,0,0,.247.065.5.5,0,0,0,.277-.084l.814-.542,1.27,1.341-.55.735a.5.5,0,0,0-.019.524,5.37,5.37,0,0,1,.5,1.22.5.5,0,0,0,.384.357l.961.192-.05,1.846-.911.131a.5.5,0,0,0-.384.357,5.365,5.365,0,0,1-.5,1.22.5.5,0,0,0,.019.524l.542.814-1.341,1.271-.735-.551a.5.5,0,0,0-.524-.019,5.365,5.365,0,0,1-1.22.5.5.5,0,0,0-.357.384l-.182.911Zm.954-9a2.5,2.5,0,1,0,2.5,2.5A2.5,2.5,0,0,0,29,103.5Z" fill="#0069e0"/>
          </g>
          <path d="M29.493,100l.1.509a1,1,0,0,0,.714.768,4.869,4.869,0,0,1,1.107.457,1,1,0,0,0,1.048-.038l.43-.287.7.7-.287.43a1,1,0,0,0-.038,1.048,4.876,4.876,0,0,1,.457,1.107,1,1,0,0,0,.768.714l.509.1v.985l-.509.1a1,1,0,0,0-.768.714,4.876,4.876,0,0,1-.457,1.107,1,1,0,0,0,.038,1.048l.287.43-.7.7-.43-.287a1,1,0,0,0-1.048-.038,4.869,4.869,0,0,1-1.107.457,1,1,0,0,0-.714.768l-.1.509h-.985l-.1-.509a1,1,0,0,0-.714-.768,4.869,4.869,0,0,1-1.107-.457,1,1,0,0,0-1.048.038l-.43.287-.7-.7.287-.43a1,1,0,0,0,.038-1.048,4.876,4.876,0,0,1-.457-1.107,1,1,0,0,0-.768-.714l-.509-.1v-.985l.509-.1a1,1,0,0,0,.768-.714,4.876,4.876,0,0,1,.457-1.107,1,1,0,0,0-.038-1.048l-.287-.43.7-.7.43.287a1,1,0,0,0,1.048.038,4.869,4.869,0,0,1,1.107-.457,1,1,0,0,0,.714-.768l.1-.509h.985M29,109a3,3,0,1,0-3-3,3,3,0,0,0,3,3m.954-10H28.046a.438.438,0,0,0-.429.352l-.192.961a5.859,5.859,0,0,0-1.334.551l-.814-.543a.438.438,0,0,0-.552.055l-1.349,1.349a.437.437,0,0,0-.055.552l.543.814a5.866,5.866,0,0,0-.551,1.334l-.961.192a.437.437,0,0,0-.352.429v1.908a.437.437,0,0,0,.352.429l.961.192a5.866,5.866,0,0,0,.551,1.334l-.543.814a.437.437,0,0,0,.055.552l1.349,1.349a.438.438,0,0,0,.552.055l.814-.543a5.859,5.859,0,0,0,1.334.551l.192.961a.438.438,0,0,0,.429.352h1.908a.438.438,0,0,0,.429-.352l.192-.961a5.859,5.859,0,0,0,1.334-.551l.814.543a.438.438,0,0,0,.552-.055l1.349-1.349a.437.437,0,0,0,.055-.552l-.543-.814a5.866,5.866,0,0,0,.551-1.334l.961-.192a.437.437,0,0,0,.352-.429v-1.908a.437.437,0,0,0-.352-.429l-.961-.192a5.866,5.866,0,0,0-.551-1.334l.543-.814a.437.437,0,0,0-.055-.552l-1.349-1.349a.438.438,0,0,0-.552-.055l-.814.543a5.859,5.859,0,0,0-1.334-.551l-.192-.961A.438.438,0,0,0,29.954,99ZM29,108a2,2,0,1,1,2-2,2,2,0,0,1-2,2Z" fill="#0069e0"/>
        </g>
        <g>
          <g opacity="0.3">
            <path d="M28.046,132.5l-.131-.911a.5.5,0,0,0-.357-.384,5.365,5.365,0,0,1-1.22-.5.5.5,0,0,0-.524.019l-.814.543-1.27-1.341.55-.735a.5.5,0,0,0,.019-.524,5.365,5.365,0,0,1-.5-1.22.5.5,0,0,0-.384-.357l-.961-.192.05-1.846.911-.131a.5.5,0,0,0,.384-.357,5.37,5.37,0,0,1,.5-1.22.5.5,0,0,0-.019-.524L23.737,122l1.341-1.27.735.55a.5.5,0,0,0,.277.084.5.5,0,0,0,.247-.065,5.365,5.365,0,0,1,1.22-.5.5.5,0,0,0,.357-.384l.192-.961,1.846.05.131.911a.5.5,0,0,0,.357.384,5.37,5.37,0,0,1,1.22.5.5.5,0,0,0,.247.065.5.5,0,0,0,.277-.084l.814-.542,1.27,1.341-.55.735a.5.5,0,0,0-.019.524,5.37,5.37,0,0,1,.5,1.22.5.5,0,0,0,.384.357l.961.192-.05,1.846-.911.131a.5.5,0,0,0-.384.357,5.365,5.365,0,0,1-.5,1.22.5.5,0,0,0,.019.524l.542.814-1.341,1.271-.735-.551a.5.5,0,0,0-.524-.019,5.365,5.365,0,0,1-1.22.5.5.5,0,0,0-.357.384l-.182.911Zm.954-9a2.5,2.5,0,1,0,2.5,2.5A2.5,2.5,0,0,0,29,123.5Z" fill="#0069e0"/>
          </g>
          <path d="M29.493,120l.1.509a1,1,0,0,0,.714.768,4.869,4.869,0,0,1,1.107.457,1,1,0,0,0,1.048-.038l.43-.287.7.7-.287.43a1,1,0,0,0-.038,1.048,4.876,4.876,0,0,1,.457,1.107,1,1,0,0,0,.768.714l.509.1v.985l-.509.1a1,1,0,0,0-.768.714,4.876,4.876,0,0,1-.457,1.107,1,1,0,0,0,.038,1.048l.287.43-.7.7-.43-.287a1,1,0,0,0-1.048-.038,4.869,4.869,0,0,1-1.107.457,1,1,0,0,0-.714.768l-.1.509h-.985l-.1-.509a1,1,0,0,0-.714-.768,4.869,4.869,0,0,1-1.107-.457,1,1,0,0,0-1.048.038l-.43.287-.7-.7.287-.43a1,1,0,0,0,.038-1.048,4.876,4.876,0,0,1-.457-1.107,1,1,0,0,0-.768-.714l-.509-.1v-.985l.509-.1a1,1,0,0,0,.768-.714,4.876,4.876,0,0,1,.457-1.107,1,1,0,0,0-.038-1.048l-.287-.43.7-.7.43.287a1,1,0,0,0,1.048.038,4.869,4.869,0,0,1,1.107-.457,1,1,0,0,0,.714-.768l.1-.509h.985M29,129a3,3,0,1,0-3-3,3,3,0,0,0,3,3m.954-10H28.046a.438.438,0,0,0-.429.352l-.192.961a5.859,5.859,0,0,0-1.334.551l-.814-.543a.438.438,0,0,0-.552.055l-1.349,1.349a.437.437,0,0,0-.055.552l.543.814a5.866,5.866,0,0,0-.551,1.334l-.961.192a.437.437,0,0,0-.352.429v1.908a.437.437,0,0,0,.352.429l.961.192a5.866,5.866,0,0,0,.551,1.334l-.543.814a.437.437,0,0,0,.055.552l1.349,1.349a.438.438,0,0,0,.552.055l.814-.543a5.86,5.86,0,0,0,1.334.551l.192.961a.438.438,0,0,0,.429.352h1.908a.438.438,0,0,0,.429-.352l.192-.961a5.86,5.86,0,0,0,1.334-.551l.814.543a.438.438,0,0,0,.552-.055l1.349-1.349a.437.437,0,0,0,.055-.552l-.543-.814a5.866,5.866,0,0,0,.551-1.334l.961-.192a.437.437,0,0,0,.352-.429v-1.908a.437.437,0,0,0-.352-.429l-.961-.192a5.866,5.866,0,0,0-.551-1.334l.543-.814a.437.437,0,0,0-.055-.552l-1.349-1.349a.438.438,0,0,0-.552-.055l-.814.543a5.859,5.859,0,0,0-1.334-.551l-.192-.961a.438.438,0,0,0-.429-.352ZM29,128a2,2,0,1,1,2-2,2,2,0,0,1-2,2Z" fill="#0069e0"/>
        </g>
      </g>
      <rect x="222" y="4" width="99" height="18" rx="3" ry="3" fill="#fff"/>
      <rect x="364" y="29" width="80" height="18" fill="#ebebeb"/>
    </g>
  </g>
</svg>
