<svg xmlns="http://www.w3.org/2000/svg" width="444" height="336" viewBox="0 0 444 336">
  <g>
    <path d="M222,302.7s113.512-40.745,113.512-155.843V50.539L222,0h0L108.488,50.539v96.318C108.488,261.955,222,302.7,222,302.7Z" fill="#ddd"/>
    <ellipse cx="222" cy="331.171" rx="113.512" ry="4.829" fill="#f6f6f6"/>
    <path d="M222,10.572,118.146,56.811v90.046c0,24.519,5.525,47.407,16.423,68.029a158.923,158.923,0,0,0,36.505,45.325A198.555,198.555,0,0,0,222,292.3a198.529,198.529,0,0,0,50.926-32.086,158.923,158.923,0,0,0,36.5-45.325c10.9-20.622,16.423-43.51,16.423-68.029V56.811Z" fill="#fff"/>
    <path d="M222,10.572,118.146,56.811v90.046c0,24.519,5.525,47.407,16.423,68.029a158.923,158.923,0,0,0,36.505,45.325A198.555,198.555,0,0,0,222,292.3a198.529,198.529,0,0,0,50.926-32.086,158.923,158.923,0,0,0,36.5-45.325c10.9-20.622,16.423-43.51,16.423-68.029V56.811Z" fill="#f6f6f6"/>
    <polygon points="245.435 86.615 163.585 194.147 163.585 208.49 281.524 208.49 272.56 199.526 281.524 190.562 192.27 190.562 274.108 83.029 274.108 68.687 163.365 68.687 172.329 77.651 163.365 86.615 245.435 86.615" fill="#cc2936"/>
    <path d="M222,10.572,325.854,56.811v90.046c0,24.519-5.525,47.407-16.423,68.029a158.923,158.923,0,0,1-36.5,45.325A198.529,198.529,0,0,1,222,292.3Z" opacity="0.04"/>
  </g>
</svg>
