<svg xmlns="http://www.w3.org/2000/svg" width="444" height="400" viewBox="0 0 444 400">
  <g>
    <path d="M222,360.357s135.134-48.506,135.134-185.528V60.165L222,0h0L86.866,60.165V174.829C86.866,311.851,222,360.357,222,360.357Z" fill="#ddd"/>
    <ellipse cx="222" cy="394.251" rx="135.134" ry="5.749" fill="#f6f6f6"/>
    <path d="M222,12.586,98.364,67.632v107.2c0,29.19,6.578,56.438,19.552,80.988,10.444,19.763,25.065,37.917,43.458,53.958A236.292,236.292,0,0,0,222,347.972a236.339,236.339,0,0,0,60.625-38.2c18.393-16.041,33.014-34.195,43.458-53.958,12.974-24.55,19.552-51.8,19.552-80.988V67.632Z" fill="#fff"/>
    <path d="M222,12.586,98.364,67.632v107.2c0,29.189,6.578,56.438,19.552,80.988,10.443,19.763,25.065,37.917,43.458,53.958A236.292,236.292,0,0,0,222,347.972a236.322,236.322,0,0,0,60.625-38.2c18.393-16.041,33.015-34.195,43.458-53.958,12.974-24.55,19.552-51.8,19.552-80.988V67.632Z" opacity="0.04"/>
    <polygon points="249.899 103.113 152.459 231.128 152.459 248.202 292.862 248.202 282.191 237.531 292.862 226.859 186.607 226.859 284.033 98.844 284.033 81.77 152.196 81.77 162.867 92.442 152.196 103.113 249.899 103.113" fill="#cc2936"/>
    <path d="M222,12.586,345.636,67.632v107.2c0,29.19-6.578,56.438-19.552,80.988-10.444,19.763-25.065,37.917-43.458,53.958A236.339,236.339,0,0,1,222,347.972Z" opacity="0.04"/>
  </g>
</svg>
