<svg xmlns="http://www.w3.org/2000/svg" width="336" height="315" viewBox="0 0 336 315">
  <title>sync-md</title>
  <g>
    <circle cx="208.844" cy="245.844" r="68.156" transform="translate(-81.609 105.516) rotate(-23.865)" fill="#f6f6f6"/>
    <circle cx="296.665" cy="134.853" r="39.325" transform="translate(-29.195 131.558) rotate(-23.865)" fill="#f6f6f6"/>
    <circle cx="52.228" cy="132.123" r="52.217" transform="translate(-48.99 32.428) rotate(-23.865)" fill="#f6f6f6"/>
    <circle cx="184.164" cy="57.491" r="57.476" transform="translate(-7.514 79.426) rotate(-23.865)" fill="#f6f6f6"/>
    <circle cx="52.447" cy="215.119" r="52.434" transform="matrix(0.914, -0.405, 0.405, 0.914, -82.55, 39.612)" fill="#f6f6f6"/>
    <circle cx="278.152" cy="208.522" r="50.666" transform="translate(-60.583 130.366) rotate(-23.865)" fill="#f6f6f6"/>
    <circle cx="252.367" cy="80.488" r="49.523" transform="translate(-10.987 108.987) rotate(-23.865)" fill="#f6f6f6"/>
    <circle cx="122.742" cy="255.348" r="52.728" transform="translate(-92.816 71.493) rotate(-23.865)" fill="#f6f6f6"/>
    <circle cx="112.948" cy="81.504" r="55.416" transform="translate(-23.319 52.666) rotate(-23.865)" fill="#f6f6f6"/>
    <rect x="67.508" y="98.28" width="210" height="135" transform="translate(-47.141 70.932) rotate(-20.505)" fill="#f6f6f6"/>
  </g>
  <g>
    <path d="M253.457,101.714H121.06a6.335,6.335,0,0,0-6.335,6.335V195.58a6.335,6.335,0,0,0,6.335,6.335h51.991l-1.795,19.191h-5.982v1.2h43.968v-1.2h-5.982l-1.795-19.191h51.991a6.335,6.335,0,0,0,6.334-6.335V108.049A6.335,6.335,0,0,0,253.457,101.714Z" fill="#e6e6e6"/>
    <rect x="120.743" y="107.416" width="133.03" height="75.384" fill="#fff"/>
    <polygon points="173.051 201.915 171.256 221.106 165.274 221.106 165.274 222.303 209.243 222.303 209.243 221.106 203.261 221.106 201.466 201.915 173.051 201.915" fill="#ddd"/>
  </g>
  <g>
    <rect x="235.89" y="163.138" width="41.785" height="59.165" rx="2.321" ry="2.321" fill="#e6e6e6"/>
    <circle cx="256.782" cy="219.895" r="1.304" fill="#ccc"/>
    <rect x="239.29" y="167.952" width="34.984" height="49.536" fill="#fff"/>
  </g>
  <g>
    <path d="M138.622,219.519V167.7a.7.7,0,0,0-.7-.7H53.387a.7.7,0,0,0-.7.7v51.817Z" fill="#e6e6e6"/>
    <rect x="57.465" y="171.78" width="76.382" height="42.965" fill="#fff"/>
    <polygon points="40.323 220.911 43.107 222.303 148.886 222.303 151.67 220.911 151.67 219.519 40.323 219.519 40.323 220.911" fill="#ddd"/>
  </g>
  <circle cx="188" cy="145" r="16" fill="#295fcc"/>
  <g>
    <path d="M188,136.1a8.89,8.89,0,0,1,7.931,4.9H193v1h5v-5h-1v3.42A10.1,10.1,0,0,0,177.9,145h1.2A8.91,8.91,0,0,1,188,136.1Z" fill="#fff"/>
    <path d="M196.9,145a8.888,8.888,0,0,1-16.831,4H183v-1h-5v5h1v-3.42A10.1,10.1,0,0,0,198.1,145Z" fill="#fff"/>
  </g>
  <g>
    <circle cx="96" cy="193" r="9" fill="#295fcc"/>
    <g>
      <path d="M100,188v1.861A5.083,5.083,0,0,0,91,192h1.245a3.867,3.867,0,0,1,7.073-1H97v1h4v-4Z" fill="#fff"/>
      <path d="M96,196.9a3.867,3.867,0,0,1-3.319-1.9H95v-1H91v4h1v-1.861A5.083,5.083,0,0,0,101,194H99.754A3.9,3.9,0,0,1,96,196.9Z" fill="#fff"/>
    </g>
  </g>
  <g>
    <circle cx="257" cy="192" r="9" fill="#295fcc"/>
    <g>
      <path d="M261,187v1.861A5.083,5.083,0,0,0,252,191h1.245a3.867,3.867,0,0,1,7.073-1H258v1h4v-4Z" fill="#fff"/>
      <path d="M257,195.9a3.867,3.867,0,0,1-3.319-1.9H256v-1h-4v4h1v-1.861A5.083,5.083,0,0,0,262,193h-1.245A3.9,3.9,0,0,1,257,195.9Z" fill="#fff"/>
    </g>
  </g>
</svg>
