<svg xmlns="http://www.w3.org/2000/svg" width="544" height="336" viewBox="0 0 544 336">
  <title>sync-xl</title>
  <g>
    <circle cx="297.734" cy="218.715" r="117.002" transform="translate(-12.308 17.828) rotate(-3.36)" fill="#f6f6f6"/>
    <circle cx="494.842" cy="178.293" r="49.157" transform="translate(-9.6 29.312) rotate(-3.36)" fill="#f6f6f6"/>
    <circle cx="134.325" cy="132.04" r="65.261" transform="translate(-7.509 8.1) rotate(-3.36)" fill="#f6f6f6"/>
    <circle cx="353.772" cy="87.94" r="71.845" transform="translate(-4.546 20.888) rotate(-3.36)" fill="#f6f6f6"/>
    <circle cx="65.544" cy="185.728" r="65.542" transform="translate(-10.774 4.161) rotate(-3.36)" fill="#f6f6f6"/>
    <circle cx="423.201" cy="217.817" r="67.561" transform="translate(-12.04 25.18) rotate(-3.36)" fill="#f6f6f6"/>
    <circle cx="437.227" cy="125.083" r="56.589" transform="translate(-6.58 25.843) rotate(-3.36)" fill="#f6f6f6"/>
    <circle cx="153.855" cy="210.866" r="94.511" transform="translate(-12.095 9.381) rotate(-3.36)" fill="#f6f6f6"/>
    <circle cx="252.23" cy="98.316" r="98.313" transform="translate(-5.329 14.954) rotate(-3.36)" fill="#f6f6f6"/>
    <rect x="124.096" y="115.159" width="343.904" height="92.276" fill="#f6f6f6"/>
  </g>
  <g>
    <path d="M363.957,85.659H198.46a7.919,7.919,0,0,0-7.919,7.919V202.991a7.919,7.919,0,0,0,7.919,7.919h64.989L261.206,234.9h-7.478v1.5h54.961v-1.5h-7.478l-2.243-23.989h64.989a7.918,7.918,0,0,0,7.918-7.919V93.577A7.918,7.918,0,0,0,363.957,85.659Z" fill="#e6e6e6"/>
    <rect x="198.064" y="92.786" width="166.288" height="94.23" fill="#fff"/>
    <polygon points="263.449 210.91 261.206 234.899 253.728 234.899 253.728 236.394 308.689 236.394 308.689 234.899 301.211 234.899 298.968 210.91 263.449 210.91" fill="#ddd"/>
  </g>
  <g>
    <rect x="394.229" y="162.438" width="52.232" height="73.956" rx="2.902" ry="2.902" fill="#e6e6e6"/>
    <circle cx="420.345" cy="233.385" r="1.629" fill="#ccc"/>
    <rect x="398.48" y="168.456" width="43.73" height="61.92" fill="#fff"/>
  </g>
  <g>
    <circle cx="421" cy="199" r="11" fill="#0069e0"/>
    <g>
      <g>
        <path d="M421,194.1a4.866,4.866,0,0,1,3.848,1.9H423v1h4v-4h-1v2.537A6.086,6.086,0,0,0,414.9,199h1.2A4.905,4.905,0,0,1,421,194.1Z" fill="#fff"/>
        <path d="M425.9,199a4.882,4.882,0,0,1-8.748,3H419v-1h-4v4h1v-2.537A6.086,6.086,0,0,0,427.1,199Z" fill="#fff"/>
      </g>
      <rect x="414" y="190" width="16" height="16" fill="none"/>
    </g>
  </g>
  <g>
    <circle cx="281" cy="140" r="19" fill="#0069e0"/>
    <g>
      <path d="M270,139.9a10.878,10.878,0,0,1,19.967-6H285.9v1h6.009l-.009-.019V128.9h-1v4.217a12.087,12.087,0,0,0-22.1,6.783c0,.337.023.669.05,1h1.2C270.021,140.57,270,140.237,270,139.9Z" fill="#fff"/>
      <path d="M292.95,138.9h-1.2c.03.33.051.663.051,1a10.878,10.878,0,0,1-19.967,6H275.9v-1h-6.009l.009.019V150.9h1v-4.217A12.087,12.087,0,0,0,293,139.9C293,139.563,292.977,139.231,292.95,138.9Z" fill="#fff"/>
    </g>
  </g>
  <g>
    <path d="M220.412,232.915V168.144a.87.87,0,0,0-.87-.87H113.87a.87.87,0,0,0-.87.87v64.771Z" fill="#e6e6e6"/>
    <rect x="118.967" y="173.241" width="95.478" height="53.706" fill="#fff"/>
    <polygon points="97.539 234.655 101.019 236.394 233.243 236.394 236.723 234.655 236.723 232.915 97.539 232.915 97.539 234.655" fill="#ddd"/>
  </g>
  <g>
    <circle cx="167" cy="200" r="11" fill="#0069e0"/>
    <g>
      <g>
        <path d="M167,195.1a4.866,4.866,0,0,1,3.848,1.9H169v1h4v-4h-1v2.537A6.086,6.086,0,0,0,160.9,200h1.2A4.905,4.905,0,0,1,167,195.1Z" fill="#fff"/>
        <path d="M171.9,200a4.882,4.882,0,0,1-8.748,3H165v-1h-4v4h1v-2.537A6.086,6.086,0,0,0,173.1,200Z" fill="#fff"/>
      </g>
      <rect x="160" y="191" width="16" height="16" fill="none"/>
    </g>
  </g>
  <polygon points="227.309 210.91 220.412 210.91 220.412 187.016 223.433 187.016 227.309 210.91" fill="#ddd"/>
</svg>
