<svg xmlns="http://www.w3.org/2000/svg" width="484" height="336" viewBox="0 0 484 336">
  <title>sync-lg</title>
  <g>
    <circle cx="265.734" cy="218.715" r="117.002" transform="translate(-12.363 15.952) rotate(-3.36)" fill="#f6f6f6"/>
    <circle cx="434.842" cy="178.293" r="49.157" transform="translate(-9.703 25.795) rotate(-3.36)" fill="#f6f6f6"/>
    <circle cx="107.096" cy="115.159" r="49.157" transform="translate(-6.566 6.475) rotate(-3.36)" fill="#f6f6f6"/>
    <circle cx="314.772" cy="87.94" r="71.845" transform="translate(-4.613 18.602) rotate(-3.36)" fill="#f6f6f6"/>
    <circle cx="65.544" cy="185.728" r="65.542" transform="translate(-10.774 4.161) rotate(-3.36)" fill="#f6f6f6"/>
    <circle cx="376.973" cy="230.045" r="63.333" transform="translate(-12.836 22.492) rotate(-3.36)" fill="#f6f6f6"/>
    <circle cx="387.12" cy="120.976" r="52.482" transform="translate(-6.425 22.899) rotate(-3.36)" fill="#f6f6f6"/>
    <circle cx="136.893" cy="225.634" r="81.743" transform="translate(-12.99 8.412) rotate(-3.36)" fill="#f6f6f6"/>
    <circle cx="220.23" cy="98.316" r="98.313" transform="translate(-5.384 13.078) rotate(-3.36)" fill="#f6f6f6"/>
  </g>
  <g>
    <path d="M347.073,85.659h-165.5a7.919,7.919,0,0,0-7.919,7.919V202.991a7.919,7.919,0,0,0,7.919,7.919h64.989L244.321,234.9h-7.478v1.5H291.8v-1.5h-7.478l-2.243-23.989h64.989a7.918,7.918,0,0,0,7.918-7.919V93.577A7.918,7.918,0,0,0,347.073,85.659Z" fill="#e6e6e6"/>
    <rect x="181.18" y="92.786" width="166.288" height="94.23" fill="#fff"/>
    <polygon points="246.565 210.91 244.321 234.899 236.844 234.899 236.844 236.394 291.804 236.394 291.804 234.899 284.327 234.899 282.084 210.91 246.565 210.91" fill="#ddd"/>
  </g>
  <g>
    <rect x="325.114" y="162.438" width="52.232" height="73.956" rx="2.902" ry="2.902" fill="#e6e6e6"/>
    <circle cx="351.229" cy="233.385" r="1.629" fill="#ccc"/>
    <rect x="329.364" y="168.456" width="43.73" height="61.92" fill="#fff"/>
  </g>
  <g>
    <path d="M203.528,232.915V168.144a.87.87,0,0,0-.87-.87H96.985a.87.87,0,0,0-.87.87v64.771Z" fill="#e6e6e6"/>
    <rect x="102.083" y="173.241" width="95.478" height="53.706" fill="#fff"/>
    <polygon points="80.655 234.655 84.134 236.394 216.359 236.394 219.839 234.655 219.839 232.915 80.655 232.915 80.655 234.655" fill="#ddd"/>
  </g>
  <circle cx="265" cy="140" r="19" fill="#2d69e0"/>
  <g>
    <path d="M254,139.9a10.878,10.878,0,0,1,19.967-6H269.9v1h6.009l-.009-.019V128.9h-1v4.217a12.087,12.087,0,0,0-22.1,6.783c0,.337.023.669.05,1h1.2C254.021,140.57,254,140.237,254,139.9Z" fill="#fff"/>
    <path d="M276.95,138.9h-1.2c.03.33.051.663.051,1a10.878,10.878,0,0,1-19.967,6H259.9v-1h-6.009l.009.019V150.9h1v-4.217A12.087,12.087,0,0,0,277,139.9C277,139.563,276.977,139.231,276.95,138.9Z" fill="#fff"/>
  </g>
  <g>
    <circle cx="150" cy="200" r="11" fill="#2d69e0"/>
    <g>
      <g>
        <path d="M150,195.1a4.866,4.866,0,0,1,3.848,1.9H152v1h4v-4h-1v2.537A6.086,6.086,0,0,0,143.9,200h1.2A4.905,4.905,0,0,1,150,195.1Z" fill="#fff"/>
        <path d="M154.9,200a4.882,4.882,0,0,1-8.748,3H148v-1h-4v4h1v-2.537A6.086,6.086,0,0,0,156.1,200Z" fill="#fff"/>
      </g>
      <rect x="143" y="191" width="16" height="16" fill="none"/>
    </g>
  </g>
  <g>
    <circle cx="352" cy="199" r="11" fill="#2d69e0"/>
    <g>
      <g>
        <path d="M352,194.1a4.866,4.866,0,0,1,3.848,1.9H354v1h4v-4h-1v2.537A6.086,6.086,0,0,0,345.9,199h1.2A4.905,4.905,0,0,1,352,194.1Z" fill="#fff"/>
        <path d="M356.9,199a4.882,4.882,0,0,1-8.748,3H350v-1h-4v4h1v-2.537A6.086,6.086,0,0,0,358.1,199Z" fill="#fff"/>
      </g>
      <rect x="345" y="190" width="16" height="16" fill="none"/>
    </g>
  </g>
  <polygon points="210.425 210.91 203.528 210.91 203.528 187.016 206.548 187.016 210.425 210.91" fill="#ddd"/>
</svg>
